{
copyright = "Copyright (c) 2015, Cadson Demak (info@cadsondemak.com)";
customParameters = (
{
name = vendorID;
value = CDK;
},
{
name = description;
value = "Copyright (c) 2015, Cadson Demak (info@cadsondemak.com)";
},
{
name = license;

glyphs = (
{
glyphname = A;
lastChange = "2015-10-27 09:00:36 +0000";
layers = (
{
layerId = "FF1AE41B-C668-46D5-83F9-5511CE68DF10";
name = "Regular Italic";
paths = (
{
closed = 1;
nodes = (
"182 0 LINE",
"184 13 LINE",
"163 22 OFFCURVE",
"141 29 OFFCURVE",
"109 33 CURVE",
"415 590 LINE",
"491 34 LINE",
"465 31 OFFCURVE",
"439 26 OFFCURVE",
"409 15 CURVE",
"406 0 LINE",
"666 0 LINE",
"668 14 LINE",
"646 23 OFFCURVE",
"622 30 OFFCURVE",
"598 34 CURVE",
"498 704 LINE",
"422 704 LINE",
"50 36 LINE",
"36 34 OFFCURVE",
"-3 25 OFFCURVE",
"-29 16 CURVE",
"-32 0 LINE"
);
},
{
closed = 1;
nodes = (
"500 181 LINE",
"508 221 LINE",
"179 221 LINE",
"171 181 LINE"
);
}
);
width = 711;
}
);
leftKerningGroup = A;
note = A;
rightKerningGroup = A;
unicode = 0041;
},
{
glyphname = Aacute;
lastChange = "2015-10-27 09:00:36 +0000";
layers = (
{
layerId = "FF1AE41B-C668-46D5-83F9-5511CE68DF10";
name = "Regular Italic";
paths = (
{
closed = 1;
nodes = (
"182 0 LINE",
"184 13 LINE",
"163 22 OFFCURVE",
"141 29 OFFCURVE",
"109 33 CURVE",
"415 590 LINE",
"491 34 LINE",
"465 31 OFFCURVE",
"439 26 OFFCURVE",
"409 15 CURVE",
"406 0 LINE",
"666 0 LINE",
"668 14 LINE",
"646 23 OFFCURVE",
"622 30 OFFCURVE",
"598 34 CURVE",
"498 704 LINE",
"422 704 LINE",
"50 36 LINE",
"36 34 OFFCURVE",
"-3 25 OFFCURVE",
"-29 16 CURVE",
"-32 0 LINE"
);
},
{
closed = 1;
nodes = (
"500 181 LINE",
"508 221 LINE",
"179 221 LINE",
"171 181 LINE"
);
},
{
closed = 1;
nodes = (
"587 872 LINE SMOOTH",
"613 887 OFFCURVE",
"629 902 OFFCURVE",
"633 921 CURVE",
"636 936 OFFCURVE",
"628 953 OFFCURVE",
"604 953 CURVE SMOOTH",
"579 953 OFFCURVE",
"557 933 OFFCURVE",
"549 926 CURVE",
"414 813 LINE",
"427 786 LINE"
);
}
);
width = 711;
}
);
leftKerningGroup = A;
note = Aacute;
rightKerningGroup = A;
unicode = 00C1;
},
{
glyphname = Abreve;
lastChange = "2015-10-27 09:00:36 +0000";
layers = (
{
layerId = "FF1AE41B-C668-46D5-83F9-5511CE68DF10";
name = "Regular Italic";
paths = (
{
closed = 1;
nodes = (
"182 0 LINE",
"184 13 LINE",
"163 22 OFFCURVE",
"141 29 OFFCURVE",
"109 33 CURVE",
"415 590 LINE",
"491 34 LINE",
"465 31 OFFCURVE",
"439 26 OFFCURVE",
"409 15 CURVE",
"406 0 LINE",
"666 0 LINE",
"668 14 LINE",
"646 23 OFFCURVE",
"622 30 OFFCURVE",
"598 34 CURVE",
"498 704 LINE",
"422 704 LINE",
"50 36 LINE",
"36 34 OFFCURVE",
"-3 25 OFFCURVE",
"-29 16 CURVE",
"-32 0 LINE"
);
},
{
closed = 1;
nodes = (
"500 181 LINE",
"508 221 LINE",
"179 221 LINE",
"171 181 LINE"
);
},
{
closed = 1;
nodes = (
"560 778 OFFCURVE",
"629 818 OFFCURVE",
"658 905 CURVE",
"594 905 LINE",
"571 830 OFFCURVE",
"522 820 OFFCURVE",
"483 820 CURVE SMOOTH",
"444 820 OFFCURVE",
"398 830 OFFCURVE",
"406 905 CURVE",
"344 905 LINE",
"338 818 OFFCURVE",
"389 778 OFFCURVE",
"474 778 CURVE SMOOTH"
);
}
);
width = 711;
}
);
leftKerningGroup = A;
note = Abreve;
rightKerningGroup = A;
unicode = 0102;
},
{
glyphname = Abreveacute;
lastChange = "2015-10-27 09:00:38 +0000";
layers = (
{
layerId = "FF1AE41B-C668-46D5-83F9-5511CE68DF10";
name = "Regular Italic";
paths = (
{
closed = 1;
nodes = (
"182 0 LINE",
"184 13 LINE",
"163 22 OFFCURVE",
"141 29 OFFCURVE",
"109 33 CURVE",
"415 590 LINE",
"491 34 LINE",
"465 31 OFFCURVE",
"439 26 OFFCURVE",
"409 15 CURVE",
"406 0 LINE",
"666 0 LINE",
"668 14 LINE",
"646 23 OFFCURVE",
"622 30 OFFCURVE",
"598 34 CURVE",
"498 704 LINE",
"422 704 LINE",
"50 36 LINE",
"36 34 OFFCURVE",
"-3 25 OFFCURVE",
"-29 16 CURVE",
"-32 0 LINE"
);
},
{
closed = 1;
nodes = (
"500 181 LINE",
"508 221 LINE",
"179 221 LINE",
"171 181 LINE"
);
},
{
closed = 1;
nodes = (
"573 784 OFFCURVE",
"641 824 OFFCURVE",
"670 911 CURVE",
"608 911 LINE",
"585 836 OFFCURVE",
"536 826 OFFCURVE",
"496 826 CURVE SMOOTH",
"457 826 OFFCURVE",
"412 836 OFFCURVE",
"420 911 CURVE",
"356 911 LINE",
"350 824 OFFCURVE",
"402 784 OFFCURVE",
"488 784 CURVE SMOOTH"
);
},
{
closed = 1;
nodes = (
"590 964 LINE SMOOTH",
"632 985 OFFCURVE",
"652 1009 OFFCURVE",
"656 1027 CURVE SMOOTH",
"659 1042 OFFCURVE",
"650 1053 OFFCURVE",
"633 1053 CURVE SMOOTH",
"616 1053 OFFCURVE",
"590 1042 OFFCURVE",
"559 1013 CURVE SMOOTH",
"474 937 LINE",
"487 913 LINE"
);
}
);
width = 711;
}
);
leftKerningGroup = A;
note = Abreveacute;
rightKerningGroup = A;
unicode = 1EAE;
},
{
glyphname = Abrevedotbelow;
lastChange = "2015-10-27 09:00:36 +0000";
layers = (
{
layerId = "FF1AE41B-C668-46D5-83F9-5511CE68DF10";
name = "Regular Italic";
paths = (
{
closed = 1;
nodes = (
"182 0 LINE",
"184 13 LINE",
"163 22 OFFCURVE",
"141 29 OFFCURVE",
"109 33 CURVE",
"415 590 LINE",
"491 34 LINE",
"465 31 OFFCURVE",
"439 26 OFFCURVE",
"409 15 CURVE",
"406 0 LINE",
"666 0 LINE",
"668 14 LINE",
"646 23 OFFCURVE",
"622 30 OFFCURVE",
"598 34 CURVE",
"498 704 LINE",
"422 704 LINE",
"50 36 LINE",
"36 34 OFFCURVE",
"-3 25 OFFCURVE",
"-29 16 CURVE",
"-32 0 LINE"
);
},
{
closed = 1;
nodes = (
"310 -160 OFFCURVE",
"334 -138 OFFCURVE",
"340 -109 CURVE SMOOTH",
"347 -79 OFFCURVE",
"331 -57 OFFCURVE",
"301 -57 CURVE SMOOTH",
"273 -57 OFFCURVE",
"250 -79 OFFCURVE",
"243 -109 CURVE SMOOTH",
"237 -138 OFFCURVE",
"252 -160 OFFCURVE",
"280 -160 CURVE SMOOTH"
);
},
{
closed = 1;
nodes = (
"500 181 LINE",
"508 221 LINE",
"179 221 LINE",
"171 181 LINE"
);
},
{
closed = 1;
nodes = (
"556 777 OFFCURVE",
"625 817 OFFCURVE",
"654 904 CURVE",
"590 904 LINE",
"567 829 OFFCURVE",
"518 819 OFFCURVE",
"479 819 CURVE SMOOTH",
"440 819 OFFCURVE",
"395 829 OFFCURVE",
"402 904 CURVE",
"340 904 LINE",
"334 817 OFFCURVE",
"385 777 OFFCURVE",
"470 777 CURVE SMOOTH"
);
}
);
width = 711;
}
);
leftKerningGroup = A;
note = Abrevedotbelow;
rightKerningGroup = A;
unicode = 1EB6;
},
{
glyphname = Abrevegrave;
lastChange = "2015-10-27 09:00:35 +0000";
layers = (
{
layerId = "FF1AE41B-C668-46D5-83F9-5511CE68DF10";
name = "Regular Italic";
paths = (
{
closed = 1;
nodes = (
"182 0 LINE",
"184 13 LINE",
"163 22 OFFCURVE",
"141 29 OFFCURVE",
"109 33 CURVE",
"415 590 LINE",
"491 34 LINE",
"465 31 OFFCURVE",
"439 26 OFFCURVE",
"409 15 CURVE",
"406 0 LINE",
"666 0 LINE",
"668 14 LINE",
"646 23 OFFCURVE",
"622 30 OFFCURVE",
"598 34 CURVE",
"498 704 LINE",
"422 704 LINE",
"50 36 LINE",
"36 34 OFFCURVE",
"-3 25 OFFCURVE",
"-29 16 CURVE",
"-32 0 LINE"
);
},
{
closed = 1;
nodes = (
"500 181 LINE",
"508 221 LINE",
"179 221 LINE",
"171 181 LINE"
);
},
{
closed = 1;
nodes = (
"574 784 OFFCURVE",
"642 824 OFFCURVE",
"671 911 CURVE",
"609 911 LINE",
"586 836 OFFCURVE",
"537 826 OFFCURVE",
"497 826 CURVE SMOOTH",
"458 826 OFFCURVE",
"413 836 OFFCURVE",
"420 911 CURVE",
"357 911 LINE",
"351 824 OFFCURVE",
"403 784 OFFCURVE",
"489 784 CURVE SMOOTH"
);
},
{
closed = 1;
nodes = (
"566 937 LINE",
"513 1013 LINE SMOOTH",
"492 1042 OFFCURVE",
"470 1053 OFFCURVE",
"453 1053 CURVE SMOOTH",
"436 1053 OFFCURVE",
"423 1042 OFFCURVE",
"420 1027 CURVE SMOOTH",
"417 1009 OFFCURVE",
"427 985 OFFCURVE",
"460 964 CURVE SMOOTH",
"544 913 LINE"
);
}
);
width = 711;
}
);
leftKerningGroup = A;
note = Abrevegrave;
rightKerningGroup = A;
unicode = 1EB0;
},
{
glyphname = Abrevehookabove;
lastChange = "2015-10-27 09:00:37 +0000";
layers = (
{
layerId = "FF1AE41B-C668-46D5-83F9-5511CE68DF10";
name = "Regular Italic";
paths = (
{
closed = 1;
nodes = (
"182 0 LINE",
"184 13 LINE",
"163 22 OFFCURVE",
"141 29 OFFCURVE",
"109 33 CURVE",
"415 590 LINE",
"491 34 LINE",
"465 31 OFFCURVE",
"439 26 OFFCURVE",
"409 15 CURVE",
"406 0 LINE",
"666 0 LINE",
"668 14 LINE",
"646 23 OFFCURVE",
"622 30 OFFCURVE",
"598 34 CURVE",
"498 704 LINE",
"422 704 LINE",
"50 36 LINE",
"36 34 OFFCURVE",
"-3 25 OFFCURVE",
"-29 16 CURVE",
"-32 0 LINE"
);
},
{
closed = 1;
nodes = (
"500 181 LINE",
"508 221 LINE",
"179 221 LINE",
"171 181 LINE"
);
},
{
closed = 1;
nodes = (
"573 784 OFFCURVE",
"641 824 OFFCURVE",
"670 911 CURVE",
"608 911 LINE",
"585 836 OFFCURVE",
"536 826 OFFCURVE",
"496 826 CURVE SMOOTH",
"457 826 OFFCURVE",
"412 836 OFFCURVE",
"420 911 CURVE",
"356 911 LINE",
"350 824 OFFCURVE",
"402 784 OFFCURVE",
"488 784 CURVE SMOOTH"
);
},
{
closed = 1;
nodes = (
"527 908 LINE",
"546 963 LINE",
"591 967 OFFCURVE",
"625 986 OFFCURVE",
"633 1029 CURVE",
"643 1078 OFFCURVE",
"604 1098 OFFCURVE",
"559 1098 CURVE SMOOTH",
"533 1098 OFFCURVE",
"506 1091 OFFCURVE",
"489 1084 CURVE",
"489 1054 LINE",
"507 1063 OFFCURVE",
"526 1067 OFFCURVE",
"540 1067 CURVE SMOOTH",
"574 1067 OFFCURVE",
"588 1051 OFFCURVE",
"583 1030 CURVE SMOOTH",
"577 1002 OFFCURVE",
"554 987 OFFCURVE",
"523 987 CURVE SMOOTH",
"499 987 LINE",
"488 908 LINE"
);
}
);
width = 711;
}
);
leftKerningGroup = A;
note = Abrevehookabove;
rightKerningGroup = A;
unicode = 1EB2;
},
{
glyphname = Abrevetilde;
lastChange = "2015-10-27 09:00:36 +0000";
layers = (
{
layerId = "FF1AE41B-C668-46D5-83F9-5511CE68DF10";
name = "Regular Italic";
paths = (
{
closed = 1;
nodes = (
"182 0 LINE",
"184 13 LINE",
"163 22 OFFCURVE",
"141 29 OFFCURVE",
"109 33 CURVE",
"415 590 LINE",
"491 34 LINE",
"465 31 OFFCURVE",
"439 26 OFFCURVE",
"409 15 CURVE",
"406 0 LINE",
"666 0 LINE",
"668 14 LINE",
"646 23 OFFCURVE",
"622 30 OFFCURVE",
"598 34 CURVE",
"498 704 LINE",
"422 704 LINE",
"50 36 LINE",
"36 34 OFFCURVE",
"-3 25 OFFCURVE",
"-29 16 CURVE",
"-32 0 LINE"
);
},
{
closed = 1;
nodes = (
"500 181 LINE",
"508 221 LINE",
"179 221 LINE",
"171 181 LINE"
);
},
{
closed = 1;
nodes = (
"573 784 OFFCURVE",
"641 824 OFFCURVE",
"670 911 CURVE",
"608 911 LINE",
"585 836 OFFCURVE",
"536 826 OFFCURVE",
"496 826 CURVE SMOOTH",
"457 826 OFFCURVE",
"412 836 OFFCURVE",
"420 911 CURVE",
"356 911 LINE",
"350 824 OFFCURVE",
"402 784 OFFCURVE",
"488 784 CURVE SMOOTH"
);
},
{
closed = 1;
nodes = (
"396 977 LINE",
"410 1011 OFFCURVE",
"440 1033 OFFCURVE",
"468 1033 CURVE SMOOTH",
"506 1033 OFFCURVE",
"539 978 OFFCURVE",
"589 978 CURVE SMOOTH",
"651 978 OFFCURVE",
"695 1021 OFFCURVE",
"716 1087 CURVE",
"680 1087 LINE",
"660 1043 OFFCURVE",
"628 1029 OFFCURVE",
"601 1029 CURVE SMOOTH",
"562 1029 OFFCURVE",
"541 1083 OFFCURVE",
"482 1083 CURVE SMOOTH",
"426 1083 OFFCURVE",
"382 1049 OFFCURVE",
"358 977 CURVE"
);
}
);
width = 711;
}
);
leftKerningGroup = A;
note = Abrevetilde;
rightKerningGroup = A;
unicode = 1EB4;
},
{
glyphname = Acaron;
lastChange = "2015-10-27 09:00:36 +0000";
layers = (
{
layerId = "FF1AE41B-C668-46D5-83F9-5511CE68DF10";
name = "Regular Italic";
paths = (
{
closed = 1;
nodes = (
"182 0 LINE",
"184 13 LINE",
"163 22 OFFCURVE",
"141 29 OFFCURVE",
"109 33 CURVE",
"415 590 LINE",
"491 34 LINE",
"465 31 OFFCURVE",
"439 26 OFFCURVE",
"409 15 CURVE",
"406 0 LINE",
"666 0 LINE",
"668 14 LINE",
"646 23 OFFCURVE",
"622 30 OFFCURVE",
"598 34 CURVE",
"498 704 LINE",
"422 704 LINE",
"50 36 LINE",
"36 34 OFFCURVE",
"-3 25 OFFCURVE",
"-29 16 CURVE",
"-32 0 LINE"
);
},
{
closed = 1;
nodes = (
"500 181 LINE",
"508 221 LINE",
"179 221 LINE",
"171 181 LINE"
);
},
{
closed = 1;
nodes = (
"502 786 LINE",
"536 826 OFFCURVE",
"615 888 OFFCURVE",
"661 916 CURVE",
"625 952 LINE",
"582 923 OFFCURVE",
"520 873 OFFCURVE",
"489 837 CURVE",
"484 837 LINE",
"468 873 OFFCURVE",
"427 923 OFFCURVE",
"396 952 CURVE",
"345 916 LINE",
"378 888 OFFCURVE",
"433 826 OFFCURVE",
"451 786 CURVE"
);
}
);
width = 711;
}
);
leftKerningGroup = A;
note = Acaron;
rightKerningGroup = A;
unicode = 01CD;
},
{
glyphname = Acircumflex;
lastChange = "2015-10-27 09:00:36 +0000";
layers = (
{
layerId = "FF1AE41B-C668-46D5-83F9-5511CE68DF10";
name = "Regular Italic";
paths = (
{
closed = 1;
nodes = (
"182 0 LINE",
"184 13 LINE",
"163 22 OFFCURVE",
"141 29 OFFCURVE",
"109 33 CURVE",
"415 590 LINE",
"491 34 LINE",
"465 31 OFFCURVE",
"439 26 OFFCURVE",
"409 15 CURVE",
"406 0 LINE",
"666 0 LINE",
"668 14 LINE",
"646 23 OFFCURVE",
"622 30 OFFCURVE",
"598 34 CURVE",
"498 704 LINE",
"422 704 LINE",
"50 36 LINE",
"36 34 OFFCURVE",
"-3 25 OFFCURVE",
"-29 16 CURVE",
"-32 0 LINE"
);
},
{
closed = 1;
nodes = (
"500 181 LINE",
"508 221 LINE",
"179 221 LINE",
"171 181 LINE"
);
},
{
closed = 1;
nodes = (
"404 811 OFFCURVE",
"466 861 OFFCURVE",
"496 897 CURVE",
"501 897 LINE",
"518 861 OFFCURVE",
"559 811 OFFCURVE",
"590 781 CURVE",
"641 818 LINE",
"607 845 OFFCURVE",
"553 908 OFFCURVE",
"535 947 CURVE",
"484 947 LINE",
"450 908 OFFCURVE",
"370 845 OFFCURVE",
"324 818 CURVE",
"361 781 LINE"
);
}
);
width = 711;
}
);
leftKerningGroup = A;
note = Acircumflex;
rightKerningGroup = A;
unicode = 00C2;
},
{
glyphname = Acircumflexacute;
lastChange = "2015-10-27 09:00:37 +0000";
layers = (
{
layerId = "FF1AE41B-C668-46D5-83F9-5511CE68DF10";
name = "Regular Italic";
paths = (
{
closed = 1;
nodes = (
"182 0 LINE",
"184 13 LINE",
"163 22 OFFCURVE",
"141 29 OFFCURVE",
"109 33 CURVE",
"415 590 LINE",
"491 34 LINE",
"465 31 OFFCURVE",
"439 26 OFFCURVE",
"409 15 CURVE",
"406 0 LINE",
"666 0 LINE",
"668 14 LINE",
"646 23 OFFCURVE",
"622 30 OFFCURVE",
"598 34 CURVE",
"498 704 LINE",
"422 704 LINE",
"50 36 LINE",
"36 34 OFFCURVE",
"-3 25 OFFCURVE",
"-29 16 CURVE",
"-32 0 LINE"
);
},
{
closed = 1;
nodes = (
"500 181 LINE",
"508 221 LINE",
"179 221 LINE",
"171 181 LINE"
);
},
{
closed = 1;
nodes = (
"406 811 OFFCURVE",
"467 861 OFFCURVE",
"498 897 CURVE",
"502 897 LINE",
"520 861 OFFCURVE",
"560 811 OFFCURVE",
"591 781 CURVE",
"641 818 LINE",
"609 845 OFFCURVE",
"555 908 OFFCURVE",
"536 947 CURVE",
"486 947 LINE",
"451 908 OFFCURVE",
"371 845 OFFCURVE",
"325 818 CURVE",
"363 781 LINE"
);
},
{
closed = 1;
nodes = (
"728 959 LINE SMOOTH",
"770 980 OFFCURVE",
"790 1004 OFFCURVE",
"794 1022 CURVE SMOOTH",
"797 1037 OFFCURVE",
"788 1048 OFFCURVE",
"771 1048 CURVE SMOOTH",
"754 1048 OFFCURVE",
"728 1037 OFFCURVE",
"696 1008 CURVE SMOOTH",
"612 932 LINE",
"624 908 LINE"
);
}
);
width = 711;
}
);
leftKerningGroup = A;
note = Acircumflexacute;
rightKerningGroup = A;
unicode = 1EA4;
},
{
glyphname = Acircumflexdotbelow;
lastChange = "2015-10-27 09:00:36 +0000";
layers = (
{
layerId = "FF1AE41B-C668-46D5-83F9-5511CE68DF10";
name = "Regular Italic";
paths = (
{
closed = 1;
nodes = (
"182 0 LINE",
"184 13 LINE",
"163 22 OFFCURVE",
"141 29 OFFCURVE",
"109 33 CURVE",
"415 590 LINE",
"491 34 LINE",
"465 31 OFFCURVE",
"439 26 OFFCURVE",
"409 15 CURVE",
"406 0 LINE",
"666 0 LINE",
"668 14 LINE",
"646 23 OFFCURVE",
"622 30 OFFCURVE",
"598 34 CURVE",
"498 704 LINE",
"422 704 LINE",
"50 36 LINE",
"36 34 OFFCURVE",
"-3 25 OFFCURVE",
"-29 16 CURVE",
"-32 0 LINE"
);
},
{
closed = 1;
nodes = (
"315 -160 OFFCURVE",
"339 -138 OFFCURVE",
"345 -109 CURVE SMOOTH",
"351 -79 OFFCURVE",
"336 -57 OFFCURVE",
"306 -57 CURVE SMOOTH",
"277 -57 OFFCURVE",
"254 -79 OFFCURVE",
"248 -109 CURVE SMOOTH",
"242 -138 OFFCURVE",
"256 -160 OFFCURVE",
"285 -160 CURVE SMOOTH"
);
},
{
closed = 1;
nodes = (
"500 181 LINE",
"508 221 LINE",
"179 221 LINE",
"171 181 LINE"
);
},
{
closed = 1;
nodes = (
"405 810 OFFCURVE",
"467 860 OFFCURVE",
"497 896 CURVE",
"502 896 LINE",
"519 860 OFFCURVE",
"560 810 OFFCURVE",
"591 780 CURVE",
"642 817 LINE",
"608 844 OFFCURVE",
"554 907 OFFCURVE",
"536 946 CURVE",
"485 946 LINE",
"451 907 OFFCURVE",
"371 844 OFFCURVE",
"325 817 CURVE",
"362 780 LINE"
);
}
);
width = 711;
}
);
leftKerningGroup = A;
note = Acircumflexdotbelow;
rightKerningGroup = A;
unicode = 1EAC;
},
{
glyphname = Acircumflexgrave;
lastChange = "2015-10-27 09:00:36 +0000";
layers = (
{
layerId = "FF1AE41B-C668-46D5-83F9-5511CE68DF10";
name = "Regular Italic";
paths = (
{
closed = 1;
nodes = (
"182 0 LINE",
"184 13 LINE",
"163 22 OFFCURVE",
"141 29 OFFCURVE",
"109 33 CURVE",
"415 590 LINE",
"491 34 LINE",
"465 31 OFFCURVE",
"439 26 OFFCURVE",
"409 15 CURVE",
"406 0 LINE",
"666 0 LINE",
"668 14 LINE",
"646 23 OFFCURVE",
"622 30 OFFCURVE",
"598 34 CURVE",
"498 704 LINE",
"422 704 LINE",
"50 36 LINE",
"36 34 OFFCURVE",
"-3 25 OFFCURVE",
"-29 16 CURVE",
"-32 0 LINE"
);
},
{
closed = 1;
nodes = (
"500 181 LINE",
"508 221 LINE",
"179 221 LINE",
"171 181 LINE"
);
},
{
closed = 1;
nodes = (
"409 932 LINE",
"355 1008 LINE SMOOTH",
"335 1037 OFFCURVE",
"313 1048 OFFCURVE",
"296 1048 CURVE SMOOTH",
"278 1048 OFFCURVE",
"266 1037 OFFCURVE",
"263 1022 CURVE SMOOTH",
"259 1004 OFFCURVE",
"270 980 OFFCURVE",
"302 959 CURVE SMOOTH",
"387 908 LINE"
);
},
{
closed = 1;
nodes = (
"406 811 OFFCURVE",
"467 861 OFFCURVE",
"498 897 CURVE",
"502 897 LINE",
"520 861 OFFCURVE",
"560 811 OFFCURVE",
"591 781 CURVE",
"641 818 LINE",
"609 845 OFFCURVE",
"555 908 OFFCURVE",
"536 947 CURVE",
"486 947 LINE",
"451 908 OFFCURVE",
"371 845 OFFCURVE",
"325 818 CURVE",
"363 781 LINE"
);
}
);
width = 711;
}
);
leftKerningGroup = A;
note = Acircumflexgrave;
rightKerningGroup = A;
unicode = 1EA6;
},
{
glyphname = Acircumflexhookabove;
lastChange = "2015-10-27 09:00:36 +0000";
layers = (
{
layerId = "FF1AE41B-C668-46D5-83F9-5511CE68DF10";
name = "Regular Italic";
paths = (
{
closed = 1;
nodes = (
"182 0 LINE",
"184 13 LINE",
"163 22 OFFCURVE",
"141 29 OFFCURVE",
"109 33 CURVE",
"415 590 LINE",
"491 34 LINE",
"465 31 OFFCURVE",
"439 26 OFFCURVE",
"409 15 CURVE",
"406 0 LINE",
"666 0 LINE",
"668 14 LINE",
"646 23 OFFCURVE",
"622 30 OFFCURVE",
"598 34 CURVE",
"498 704 LINE",
"422 704 LINE",
"50 36 LINE",
"36 34 OFFCURVE",
"-3 25 OFFCURVE",
"-29 16 CURVE",
"-32 0 LINE"
);
},
{
closed = 1;
nodes = (
"500 181 LINE",
"508 221 LINE",
"179 221 LINE",
"171 181 LINE"
);
},
{
closed = 1;
nodes = (
"406 811 OFFCURVE",
"467 861 OFFCURVE",
"498 897 CURVE",
"502 897 LINE",
"520 861 OFFCURVE",
"560 811 OFFCURVE",
"591 781 CURVE",
"641 818 LINE",
"609 845 OFFCURVE",
"555 908 OFFCURVE",
"536 947 CURVE",
"486 947 LINE",
"451 908 OFFCURVE",
"371 845 OFFCURVE",
"325 818 CURVE",
"363 781 LINE"
);
},
{
closed = 1;
nodes = (
"643 903 LINE",
"662 958 LINE",
"708 962 OFFCURVE",
"741 981 OFFCURVE",
"750 1024 CURVE SMOOTH",
"760 1073 OFFCURVE",
"720 1093 OFFCURVE",
"675 1093 CURVE SMOOTH",
"649 1093 OFFCURVE",
"622 1086 OFFCURVE",
"606 1079 CURVE",
"606 1049 LINE",
"623 1058 OFFCURVE",
"642 1062 OFFCURVE",
"657 1062 CURVE SMOOTH",
"690 1062 OFFCURVE",
"704 1046 OFFCURVE",
"699 1025 CURVE SMOOTH",
"693 997 OFFCURVE",
"670 982 OFFCURVE",
"639 982 CURVE SMOOTH",
"616 982 LINE",
"605 903 LINE"
);
}
);
width = 711;
}
);
leftKerningGroup = A;
note = Acircumflexhookabove;
rightKerningGroup = A;
unicode = 1EA8;
},
{
glyphname = Acircumflextilde;
lastChange = "2015-10-27 09:00:37 +0000";
layers = (
{
layerId = "FF1AE41B-C668-46D5-83F9-5511CE68DF10";
name = "Regular Italic";
paths = (
{
closed = 1;
nodes = (
"182 0 LINE",
"184 13 LINE",
"163 22 OFFCURVE",
"141 29 OFFCURVE",
"109 33 CURVE",
"415 590 LINE",
"491 34 LINE",
"465 31 OFFCURVE",
"439 26 OFFCURVE",
"409 15 CURVE",
"406 0 LINE",
"666 0 LINE",
"668 14 LINE",
"646 23 OFFCURVE",
"622 30 OFFCURVE",
"598 34 CURVE",
"498 704 LINE",
"422 704 LINE",
"50 36 LINE",
"36 34 OFFCURVE",
"-3 25 OFFCURVE",
"-29 16 CURVE",
"-32 0 LINE"
);
},
{
closed = 1;
nodes = (
"500 181 LINE",
"508 221 LINE",
"179 221 LINE",
"171 181 LINE"
);
},
{
closed = 1;
nodes = (
"406 811 OFFCURVE",
"467 861 OFFCURVE",
"498 897 CURVE",
"502 897 LINE",
"520 861 OFFCURVE",
"560 811 OFFCURVE",
"591 781 CURVE",
"641 818 LINE",
"609 845 OFFCURVE",
"555 908 OFFCURVE",
"536 947 CURVE",
"486 947 LINE",
"451 908 OFFCURVE",
"371 845 OFFCURVE",
"325 818 CURVE",
"363 781 LINE"
);
},
{
closed = 1;
nodes = (
"385 972 LINE",
"398 1006 OFFCURVE",
"428 1028 OFFCURVE",
"457 1028 CURVE SMOOTH",
"494 1028 OFFCURVE",
"540 973 OFFCURVE",
"591 973 CURVE SMOOTH",
"653 973 OFFCURVE",
"694 1016 OFFCURVE",
"715 1082 CURVE",
"679 1082 LINE",
"660 1038 OFFCURVE",
"629 1024 OFFCURVE",
"603 1024 CURVE SMOOTH",
"564 1024 OFFCURVE",
"530 1078 OFFCURVE",
"470 1078 CURVE SMOOTH",
"415 1078 OFFCURVE",
"371 1044 OFFCURVE",
"347 972 CURVE"
);
}
);
width = 711;
}
);
leftKerningGroup = A;
note = Acircumflextilde;
rightKerningGroup = A;
unicode = 1EAA;
},
{
glyphname = Adieresis;
lastChange = "2015-10-27 09:00:35 +0000";
layers = (
{
layerId = "FF1AE41B-C668-46D5-83F9-5511CE68DF10";
name = "Regular Italic";
paths = (
{
closed = 1;
nodes = (
"182 0 LINE",
"184 13 LINE",
"163 22 OFFCURVE",
"141 29 OFFCURVE",
"109 33 CURVE",
"415 590 LINE",
"491 34 LINE",
"465 31 OFFCURVE",
"439 26 OFFCURVE",
"409 15 CURVE",
"406 0 LINE",
"666 0 LINE",
"668 14 LINE",
"646 23 OFFCURVE",
"622 30 OFFCURVE",
"598 34 CURVE",
"498 704 LINE",
"422 704 LINE",
"50 36 LINE",
"36 34 OFFCURVE",
"-3 25 OFFCURVE",
"-29 16 CURVE",
"-32 0 LINE"
);
},
{
closed = 1;
nodes = (
"500 181 LINE",
"508 221 LINE",
"179 221 LINE",
"171 181 LINE"
);
},
{
closed = 1;
nodes = (
"386 785 OFFCURVE",
"410 807 OFFCURVE",
"416 836 CURVE SMOOTH",
"422 866 OFFCURVE",
"407 888 OFFCURVE",
"377 888 CURVE SMOOTH",
"348 888 OFFCURVE",
"326 866 OFFCURVE",
"320 836 CURVE SMOOTH",
"314 807 OFFCURVE",
"328 785 OFFCURVE",
"356 785 CURVE SMOOTH"
);
},
{
closed = 1;
nodes = (
"603 785 OFFCURVE",
"627 807 OFFCURVE",
"633 836 CURVE SMOOTH",
"639 866 OFFCURVE",
"624 888 OFFCURVE",
"595 888 CURVE SMOOTH",
"565 888 OFFCURVE",
"543 866 OFFCURVE",
"537 836 CURVE SMOOTH",
"531 807 OFFCURVE",
"544 785 OFFCURVE",
"574 785 CURVE SMOOTH"
);
}
);
width = 711;
}
);
leftKerningGroup = A;
note = Adieresis;
rightKerningGroup = A;
unicode = 00C4;
},
{
glyphname = Adotbelow;
lastChange = "2015-10-27 09:00:35 +0000";
layers = (
{
layerId = "FF1AE41B-C668-46D5-83F9-5511CE68DF10";
name = "Regular Italic";
paths = (
{
closed = 1;
nodes = (
"182 0 LINE",
"184 13 LINE",
"163 22 OFFCURVE",
"141 29 OFFCURVE",
"109 33 CURVE",
"415 590 LINE",
"491 34 LINE",
"465 31 OFFCURVE",
"439 26 OFFCURVE",
"409 15 CURVE",
"406 0 LINE",
"666 0 LINE",
"668 14 LINE",
"646 23 OFFCURVE",
"622 30 OFFCURVE",
"598 34 CURVE",
"498 704 LINE",
"422 704 LINE",
"50 36 LINE",
"36 34 OFFCURVE",
"-3 25 OFFCURVE",
"-29 16 CURVE",
"-32 0 LINE"
);
},
{
closed = 1;
nodes = (
"314 -160 OFFCURVE",
"338 -138 OFFCURVE",
"344 -109 CURVE SMOOTH",
"350 -79 OFFCURVE",
"335 -57 OFFCURVE",
"305 -57 CURVE SMOOTH",
"276 -57 OFFCURVE",
"253 -79 OFFCURVE",
"247 -109 CURVE SMOOTH",
"241 -138 OFFCURVE",
"255 -160 OFFCURVE",
"284 -160 CURVE SMOOTH"
);
},
{
closed = 1;
nodes = (
"500 181 LINE",
"508 221 LINE",
"179 221 LINE",
"171 181 LINE"
);
}
);
width = 711;
}
);
leftKerningGroup = A;
note = Adotbelow;
rightKerningGroup = A;
unicode = 1EA0;
},
{
glyphname = Agrave;
lastChange = "2015-10-27 09:00:37 +0000";
layers = (
{
layerId = "FF1AE41B-C668-46D5-83F9-5511CE68DF10";
name = "Regular Italic";
paths = (
{
closed = 1;
nodes = (
"182 0 LINE",
"184 13 LINE",
"163 22 OFFCURVE",
"141 29 OFFCURVE",
"109 33 CURVE",
"415 590 LINE",
"491 34 LINE",
"465 31 OFFCURVE",
"439 26 OFFCURVE",
"409 15 CURVE",
"406 0 LINE",
"666 0 LINE",
"668 14 LINE",
"646 23 OFFCURVE",
"622 30 OFFCURVE",
"598 34 CURVE",
"498 704 LINE",
"422 704 LINE",
"50 36 LINE",
"36 34 OFFCURVE",
"-3 25 OFFCURVE",
"-29 16 CURVE",
"-32 0 LINE"
);
},
{
closed = 1;
nodes = (
"500 181 LINE",
"508 221 LINE",
"179 221 LINE",
"171 181 LINE"
);
},
{
closed = 1;
nodes = (
"556 813 LINE",
"467 927 LINE SMOOTH",
"460 935 OFFCURVE",
"446 953 OFFCURVE",
"423 953 CURVE SMOOTH",
"398 953 OFFCURVE",
"384 936 OFFCURVE",
"380 921 CURVE",
"376 902 OFFCURVE",
"387 887 OFFCURVE",
"408 872 CURVE SMOOTH",
"533 786 LINE"
);
}
);
width = 711;
}
);
leftKerningGroup = A;
note = Agrave;
rightKerningGroup = A;
unicode = 00C0;
},
{
glyphname = Ahookabove;
lastChange = "2015-10-27 09:00:36 +0000";
layers = (
{
layerId = "FF1AE41B-C668-46D5-83F9-5511CE68DF10";
name = "Regular Italic";
paths = (
{
closed = 1;
nodes = (
"182 0 LINE",
"184 13 LINE",
"163 22 OFFCURVE",
"141 29 OFFCURVE",
"109 33 CURVE",
"415 590 LINE",
"491 34 LINE",
"465 31 OFFCURVE",
"439 26 OFFCURVE",
"409 15 CURVE",
"406 0 LINE",
"666 0 LINE",
"668 14 LINE",
"646 23 OFFCURVE",
"622 30 OFFCURVE",
"598 34 CURVE",
"498 704 LINE",
"422 704 LINE",
"50 36 LINE",
"36 34 OFFCURVE",
"-3 25 OFFCURVE",
"-29 16 CURVE",
"-32 0 LINE"
);
},
{
closed = 1;
nodes = (
"500 181 LINE",
"508 221 LINE",
"179 221 LINE",
"171 181 LINE"
);
},
{
closed = 1;
nodes = (
"506 781 LINE",
"529 847 LINE",
"581 852 OFFCURVE",
"619 875 OFFCURVE",
"629 926 CURVE SMOOTH",
"641 985 OFFCURVE",
"596 1009 OFFCURVE",
"545 1009 CURVE SMOOTH",
"516 1009 OFFCURVE",
"485 1001 OFFCURVE",
"465 992 CURVE",
"465 959 LINE",
"486 970 OFFCURVE",
"508 975 OFFCURVE",
"524 975 CURVE SMOOTH",
"563 975 OFFCURVE",
"578 953 OFFCURVE",
"572 928 CURVE SMOOTH",
"565 894 OFFCURVE",
"538 876 OFFCURVE",
"503 876 CURVE SMOOTH",
"475 876 LINE",
"461 781 LINE"
);
}
);
width = 711;
}
);
leftKerningGroup = A;
note = Ahookabove;
rightKerningGroup = A;
unicode = 1EA2;
},
{
glyphname = Amacron;
lastChange = "2015-10-27 09:00:36 +0000";
layers = (
{
layerId = "FF1AE41B-C668-46D5-83F9-5511CE68DF10";
name = "Regular Italic";
paths = (
{
closed = 1;
nodes = (
"182 0 LINE",
"184 13 LINE",
"163 22 OFFCURVE",
"141 29 OFFCURVE",
"109 33 CURVE",
"415 590 LINE",
"491 34 LINE",
"465 31 OFFCURVE",
"439 26 OFFCURVE",
"409 15 CURVE",
"406 0 LINE",
"666 0 LINE",
"668 14 LINE",
"646 23 OFFCURVE",
"622 30 OFFCURVE",
"598 34 CURVE",
"498 704 LINE",
"422 704 LINE",
"50 36 LINE",
"36 34 OFFCURVE",
"-3 25 OFFCURVE",
"-29 16 CURVE",
"-32 0 LINE"
);
},
{
closed = 1;
nodes = (
"500 181 LINE",
"508 221 LINE",
"179 221 LINE",
"171 181 LINE"
);
},
{
closed = 1;
nodes = (
"647 785 LINE",
"655 825 LINE",
"318 825 LINE",
"310 785 LINE"
);
}
);
width = 711;
}
);
leftKerningGroup = A;
note = Amacron;
rightKerningGroup = A;
unicode = 0100;
},
{
glyphname = Aogonek;
lastChange = "2015-10-27 09:00:36 +0000";
layers = (
{
layerId = "FF1AE41B-C668-46D5-83F9-5511CE68DF10";
name = "Regular Italic";
paths = (
{
closed = 1;
nodes = (
"182 0 LINE",
"184 13 LINE",
"163 22 OFFCURVE",
"141 29 OFFCURVE",
"109 33 CURVE",
"415 590 LINE",
"491 34 LINE",
"465 31 OFFCURVE",
"439 26 OFFCURVE",
"409 15 CURVE",
"406 0 LINE",
"666 0 LINE",
"668 14 LINE",
"646 23 OFFCURVE",
"622 30 OFFCURVE",
"598 34 CURVE",
"498 704 LINE",
"422 704 LINE",
"50 36 LINE",
"36 34 OFFCURVE",
"-3 25 OFFCURVE",
"-29 16 CURVE",
"-32 0 LINE"
);
},
{
closed = 1;
nodes = (
"626 -193 OFFCURVE",
"659 -186 OFFCURVE",
"684 -173 CURVE",
"694 -125 LINE",
"672 -136 OFFCURVE",
"652 -141 OFFCURVE",
"636 -141 CURVE SMOOTH",
"602 -141 OFFCURVE",
"580 -123 OFFCURVE",
"587 -90 CURVE SMOOTH",
"594 -55 OFFCURVE",
"628 -19 OFFCURVE",
"661 0 CURVE",
"607 0 LINE",
"550 -19 OFFCURVE",
"511 -65 OFFCURVE",
"501 -110 CURVE SMOOTH",
"492 -156 OFFCURVE",
"521 -193 OFFCURVE",
"591 -193 CURVE SMOOTH"
);
},
{
closed = 1;
nodes = (
"500 181 LINE",
"508 221 LINE",
"179 221 LINE",
"171 181 LINE"
);
}
);
width = 711;
}
);
leftKerningGroup = A;
note = Aogonek;
rightKerningGroup = A;
unicode = 0104;
},
{
glyphname = Aring;
lastChange = "2015-10-27 09:00:37 +0000";
layers = (
{
layerId = "FF1AE41B-C668-46D5-83F9-5511CE68DF10";
name = "Regular Italic";
paths = (
{
closed = 1;
nodes = (
"182 0 LINE",
"184 13 LINE",
"163 22 OFFCURVE",
"141 29 OFFCURVE",
"109 33 CURVE",
"415 590 LINE",
"491 34 LINE",
"465 31 OFFCURVE",
"439 26 OFFCURVE",
"409 15 CURVE",
"406 0 LINE",
"666 0 LINE",
"668 14 LINE",
"646 23 OFFCURVE",
"622 30 OFFCURVE",
"598 34 CURVE",
"498 704 LINE",
"422 704 LINE",
"50 36 LINE",
"36 34 OFFCURVE",
"-3 25 OFFCURVE",
"-29 16 CURVE",
"-32 0 LINE"
);
},
{
closed = 1;
nodes = (
"500 181 LINE",
"508 221 LINE",
"179 221 LINE",
"171 181 LINE"
);
},
{
closed = 1;
nodes = (
"522 742 OFFCURVE",
"568 779 OFFCURVE",
"580 834 CURVE SMOOTH",
"591 889 OFFCURVE",
"561 927 OFFCURVE",
"505 927 CURVE SMOOTH",
"449 927 OFFCURVE",
"403 889 OFFCURVE",
"392 834 CURVE SMOOTH",
"380 779 OFFCURVE",
"411 742 OFFCURVE",
"467 742 CURVE SMOOTH"
);
},
{
closed = 1;
nodes = (
"443 778 OFFCURVE",
"423 800 OFFCURVE",
"430 834 CURVE SMOOTH",
"437 868 OFFCURVE",
"466 890 OFFCURVE",
"497 890 CURVE SMOOTH",
"529 890 OFFCURVE",
"547 868 OFFCURVE",
"540 834 CURVE SMOOTH",
"534 800 OFFCURVE",
"506 778 OFFCURVE",
"474 778 CURVE SMOOTH"
);
}
);
width = 711;
}
);
leftKerningGroup = A;
note = Aring;
rightKerningGroup = A;
unicode = 00C5;
},
{
glyphname = Aringacute;
lastChange = "2015-10-27 09:00:36 +0000";
layers = (
{
layerId = "FF1AE41B-C668-46D5-83F9-5511CE68DF10";
name = "Regular Italic";
paths = (
{
closed = 1;
nodes = (
"182 0 LINE",
"184 13 LINE",
"163 22 OFFCURVE",
"141 29 OFFCURVE",
"109 33 CURVE",
"415 590 LINE",
"491 34 LINE",
"465 31 OFFCURVE",
"439 26 OFFCURVE",
"409 15 CURVE",
"406 0 LINE",
"666 0 LINE",
"668 14 LINE",
"646 23 OFFCURVE",
"622 30 OFFCURVE",
"598 34 CURVE",
"498 704 LINE",
"422 704 LINE",
"50 36 LINE",
"36 34 OFFCURVE",
"-3 25 OFFCURVE",
"-29 16 CURVE",
"-32 0 LINE"
);
},
{
closed = 1;
nodes = (
"500 181 LINE",
"508 221 LINE",
"179 221 LINE",
"171 181 LINE"
);
},
{
closed = 1;
nodes = (
"522 740 OFFCURVE",
"568 777 OFFCURVE",
"580 832 CURVE SMOOTH",
"591 887 OFFCURVE",
"561 925 OFFCURVE",
"505 925 CURVE SMOOTH",
"449 925 OFFCURVE",
"403 887 OFFCURVE",
"392 832 CURVE SMOOTH",
"380 777 OFFCURVE",
"411 740 OFFCURVE",
"467 740 CURVE SMOOTH"
);
},
{
closed = 1;
nodes = (
"443 776 OFFCURVE",
"423 798 OFFCURVE",
"430 832 CURVE SMOOTH",
"437 866 OFFCURVE",
"466 888 OFFCURVE",
"497 888 CURVE SMOOTH",
"529 888 OFFCURVE",
"547 866 OFFCURVE",
"540 832 CURVE SMOOTH",
"534 798 OFFCURVE",
"506 776 OFFCURVE",
"474 776 CURVE SMOOTH"
);
},
{
closed = 1;
nodes = (
"618 1036 LINE SMOOTH",
"645 1051 OFFCURVE",
"660 1066 OFFCURVE",
"664 1085 CURVE",
"668 1100 OFFCURVE",
"660 1117 OFFCURVE",
"636 1117 CURVE SMOOTH",
"611 1117 OFFCURVE",
"588 1097 OFFCURVE",
"581 1090 CURVE",
"445 977 LINE",
"459 950 LINE"
);
}
);
width = 711;
}
);
leftKerningGroup = A;
note = Aringacute;
rightKerningGroup = A;
unicode = 01FA;
},
{
glyphname = Atilde;
lastChange = "2015-10-27 09:00:37 +0000";
layers = (
{
layerId = "FF1AE41B-C668-46D5-83F9-5511CE68DF10";
name = "Regular Italic";
paths = (
{
closed = 1;
nodes = (
"182 0 LINE",
"184 13 LINE",
"163 22 OFFCURVE",
"141 29 OFFCURVE",
"109 33 CURVE",
"415 590 LINE",
"491 34 LINE",
"465 31 OFFCURVE",
"439 26 OFFCURVE",
"409 15 CURVE",
"406 0 LINE",
"666 0 LINE",
"668 14 LINE",
"646 23 OFFCURVE",
"622 30 OFFCURVE",
"598 34 CURVE",
"498 704 LINE",
"422 704 LINE",
"50 36 LINE",
"36 34 OFFCURVE",
"-3 25 OFFCURVE",
"-29 16 CURVE",
"-32 0 LINE"
);
},
{
closed = 1;
nodes = (
"500 181 LINE",
"508 221 LINE",
"179 221 LINE",
"171 181 LINE"
);
},
{
closed = 1;
nodes = (
"341 786 LINE",
"354 820 OFFCURVE",
"384 842 OFFCURVE",
"413 842 CURVE SMOOTH",
"450 842 OFFCURVE",
"496 787 OFFCURVE",
"547 787 CURVE SMOOTH",
"610 787 OFFCURVE",
"649 830 OFFCURVE",
"670 896 CURVE",
"635 896 LINE",
"616 852 OFFCURVE",
"586 838 OFFCURVE",
"559 838 CURVE SMOOTH",
"519 838 OFFCURVE",
"485 892 OFFCURVE",
"425 892 CURVE SMOOTH",
"370 892 OFFCURVE",
"326 858 OFFCURVE",
"302 786 CURVE"
);
}
);
width = 711;
}
);
leftKerningGroup = A;
note = Atilde;
rightKerningGroup = A;
unicode = 00C3;
},
{
glyphname = AE;
lastChange = "2015-10-27 09:00:35 +0000";
layers = (
{
layerId = "FF1AE41B-C668-46D5-83F9-5511CE68DF10";
name = "Regular Italic";
paths = (
{
closed = 1;
nodes = (
"187 0 LINE",
"189 13 LINE",
"169 22 OFFCURVE",
"143 29 OFFCURVE",
"111 33 CURVE",
"225 181 LINE",
"480 181 LINE",
"450 33 LINE",
"418 29 OFFCURVE",
"390 22 OFFCURVE",
"365 14 CURVE",
"363 0 LINE",
"873 0 LINE",
"919 155 LINE",
"894 155 LINE",
"876 135 OFFCURVE",
"840 72 OFFCURVE",
"830 40 CURVE",
"560 40 LINE",
"621 339 LINE",
"811 339 LINE",
"809 322 OFFCURVE",
"807 282 OFFCURVE",
"812 255 CURVE",
"830 255 LINE",
"873 464 LINE",
"854 464 LINE",
"840 438 OFFCURVE",
"825 398 OFFCURVE",
"819 380 CURVE",
"629 380 LINE",
"686 659 LINE",
"953 659 LINE",
"949 631 OFFCURVE",
"952 565 OFFCURVE",
"959 544 CURVE",
"984 544 LINE",
"1016 700 LINE",
"502 700 LINE",
"499 686 LINE",
"514 679 OFFCURVE",
"529 676 OFFCURVE",
"544 672 CURVE",
"47 35 LINE",
"21 30 OFFCURVE",
"-2 24 OFFCURVE",
"-30 14 CURVE",
"-32 0 LINE"
);
},
{
closed = 1;
nodes = (
"572 632 LINE",
"488 221 LINE",
"255 221 LINE"
);
}
);
width = 970;
}
);
leftKerningGroup = A;
note = AE;
unicode = 00C6;
},
{
glyphname = AEacute;
lastChange = "2015-10-27 09:00:37 +0000";
layers = (
{
layerId = "FF1AE41B-C668-46D5-83F9-5511CE68DF10";
name = "Regular Italic";
paths = (
{
closed = 1;
nodes = (
"187 0 LINE",
"189 13 LINE",
"169 22 OFFCURVE",
"143 29 OFFCURVE",
"111 33 CURVE",
"225 181 LINE",
"480 181 LINE",
"450 33 LINE",
"418 29 OFFCURVE",
"390 22 OFFCURVE",
"365 14 CURVE",
"363 0 LINE",
"873 0 LINE",
"919 155 LINE",
"894 155 LINE",
"876 135 OFFCURVE",
"840 72 OFFCURVE",
"830 40 CURVE",
"560 40 LINE",
"621 339 LINE",
"811 339 LINE",
"809 322 OFFCURVE",
"807 282 OFFCURVE",
"812 255 CURVE",
"830 255 LINE",
"873 464 LINE",
"854 464 LINE",
"840 438 OFFCURVE",
"825 398 OFFCURVE",
"819 380 CURVE",
"629 380 LINE",
"686 659 LINE",
"953 659 LINE",
"949 631 OFFCURVE",
"952 565 OFFCURVE",
"959 544 CURVE",
"984 544 LINE",
"1016 700 LINE",
"502 700 LINE",
"499 686 LINE",
"514 679 OFFCURVE",
"529 676 OFFCURVE",
"544 672 CURVE",
"47 35 LINE",
"21 30 OFFCURVE",
"-2 24 OFFCURVE",
"-30 14 CURVE",
"-32 0 LINE"
);
},
{
closed = 1;
nodes = (
"572 632 LINE",
"488 221 LINE",
"255 221 LINE"
);
},
{
closed = 1;
nodes = (
"886 872 LINE SMOOTH",
"913 887 OFFCURVE",
"928 902 OFFCURVE",
"932 921 CURVE",
"936 936 OFFCURVE",
"927 953 OFFCURVE",
"903 953 CURVE SMOOTH",
"878 953 OFFCURVE",
"856 933 OFFCURVE",
"849 926 CURVE",
"713 813 LINE",
"727 786 LINE"
);
}
);
width = 970;
}
);
leftKerningGroup = A;
note = AEacute;
unicode = 01FC;
},
{
glyphname = B;
lastChange = "2015-10-27 09:00:37 +0000";
layers = (
{
layerId = "FF1AE41B-C668-46D5-83F9-5511CE68DF10";
name = "Regular Italic";
paths = (
{
closed = 1;
nodes = (
"310 0 LINE SMOOTH",
"469 0 OFFCURVE",
"542 68 OFFCURVE",
"567 192 CURVE SMOOTH",
"582 262 OFFCURVE",
"564 346 OFFCURVE",
"452 368 CURVE",
"453 373 LINE",
"544 394 OFFCURVE",
"596 467 OFFCURVE",
"610 536 CURVE SMOOTH",
"633 645 OFFCURVE",
"584 700 OFFCURVE",
"422 700 CURVE SMOOTH",
"134 700 LINE",
"132 685 LINE",
"156 676 OFFCURVE",
"181 670 OFFCURVE",
"205 666 CURVE",
"77 35 LINE",
"50 32 OFFCURVE",
"31 27 OFFCURVE",
"-6 14 CURVE",
"-8 0 LINE"
);
},
{
closed = 1;
nodes = (
"250 348 LINE",
"354 348 LINE SMOOTH",
"442 348 OFFCURVE",
"481 295 OFFCURVE",
"461 196 CURVE SMOOTH",
"441 95 OFFCURVE",
"391 40 OFFCURVE",
"304 40 CURVE SMOOTH",
"187 40 LINE"
);
},
{
closed = 1;
nodes = (
"314 659 LINE",
"401 659 LINE SMOOTH",
"490 659 OFFCURVE",
"517 619 OFFCURVE",
"499 531 CURVE SMOOTH",
"482 445 OFFCURVE",
"428 388 OFFCURVE",
"342 388 CURVE SMOOTH",
"258 388 LINE"
);
}
);
width = 593;
}
);
note = B;
unicode = 0042;
},
{
glyphname = C;
lastChange = "2015-10-27 09:00:35 +0000";
layers = (
{
layerId = "FF1AE41B-C668-46D5-83F9-5511CE68DF10";
name = "Regular Italic";
paths = (
{
closed = 1;
nodes = (
"402 -10 OFFCURVE",
"481 14 OFFCURVE",
"538 57 CURVE",
"528 89 LINE",
"464 49 OFFCURVE",
"391 32 OFFCURVE",
"345 32 CURVE SMOOTH",
"187 32 OFFCURVE",
"149 162 OFFCURVE",
"187 350 CURVE SMOOTH",
"226 538 OFFCURVE",
"327 668 OFFCURVE",
"483 668 CURVE SMOOTH",
"533 668 OFFCURVE",
"573 652 OFFCURVE",
"599 627 CURVE",
"594 589 OFFCURVE",
"591 537 OFFCURVE",
"594 508 CURVE",
"621 508 LINE",
"659 638 LINE",
"621 682 OFFCURVE",
"562 710 OFFCURVE",
"464 710 CURVE SMOOTH",
"259 710 OFFCURVE",
"121 572 OFFCURVE",
"76 350 CURVE SMOOTH",
"30 127 OFFCURVE",
"108 -10 OFFCURVE",
"319 -10 CURVE SMOOTH"
);
}
);
width = 609;
}
);
leftKerningGroup = C;
note = C;
unicode = 0043;
},
{
glyphname = Cacute;
lastChange = "2015-10-27 09:00:36 +0000";
layers = (
{
layerId = "FF1AE41B-C668-46D5-83F9-5511CE68DF10";
name = "Regular Italic";
paths = (
{
closed = 1;
nodes = (
"402 -10 OFFCURVE",
"481 14 OFFCURVE",
"538 57 CURVE",
"528 89 LINE",
"464 49 OFFCURVE",
"391 32 OFFCURVE",
"345 32 CURVE SMOOTH",
"187 32 OFFCURVE",
"149 162 OFFCURVE",
"187 350 CURVE SMOOTH",
"226 538 OFFCURVE",
"327 668 OFFCURVE",
"483 668 CURVE SMOOTH",
"533 668 OFFCURVE",
"573 652 OFFCURVE",
"599 627 CURVE",
"594 589 OFFCURVE",
"591 537 OFFCURVE",
"594 508 CURVE",
"621 508 LINE",
"659 638 LINE",
"621 682 OFFCURVE",
"562 710 OFFCURVE",
"464 710 CURVE SMOOTH",
"259 710 OFFCURVE",
"121 572 OFFCURVE",
"76 350 CURVE SMOOTH",
"30 127 OFFCURVE",
"108 -10 OFFCURVE",
"319 -10 CURVE SMOOTH"
);
},
{
closed = 1;
nodes = (
"590 872 LINE SMOOTH",
"617 887 OFFCURVE",
"633 902 OFFCURVE",
"636 921 CURVE",
"640 936 OFFCURVE",
"632 953 OFFCURVE",
"608 953 CURVE SMOOTH",
"583 953 OFFCURVE",
"561 933 OFFCURVE",
"553 926 CURVE",
"418 813 LINE",
"431 786 LINE"
);
}
);
width = 609;
}
);
leftKerningGroup = C;
note = Cacute;
unicode = 0106;
},
{
glyphname = Ccaron;
lastChange = "2015-10-27 09:00:35 +0000";
layers = (
{
layerId = "FF1AE41B-C668-46D5-83F9-5511CE68DF10";
name = "Regular Italic";
paths = (
{
closed = 1;
nodes = (
"402 -10 OFFCURVE",
"481 14 OFFCURVE",
"538 57 CURVE",
"528 89 LINE",
"464 49 OFFCURVE",
"391 32 OFFCURVE",
"345 32 CURVE SMOOTH",
"187 32 OFFCURVE",
"149 162 OFFCURVE",
"187 350 CURVE SMOOTH",
"226 538 OFFCURVE",
"327 668 OFFCURVE",
"483 668 CURVE SMOOTH",
"533 668 OFFCURVE",
"573 652 OFFCURVE",
"599 627 CURVE",
"594 589 OFFCURVE",
"591 537 OFFCURVE",
"594 508 CURVE",
"621 508 LINE",
"659 638 LINE",
"621 682 OFFCURVE",
"562 710 OFFCURVE",
"464 710 CURVE SMOOTH",
"259 710 OFFCURVE",
"121 572 OFFCURVE",
"76 350 CURVE SMOOTH",
"30 127 OFFCURVE",
"108 -10 OFFCURVE",
"319 -10 CURVE SMOOTH"
);
},
{
closed = 1;
nodes = (
"523 786 LINE",
"557 826 OFFCURVE",
"636 888 OFFCURVE",
"683 916 CURVE",
"646 952 LINE",
"603 923 OFFCURVE",
"541 873 OFFCURVE",
"510 837 CURVE",
"505 837 LINE",
"489 873 OFFCURVE",
"448 923 OFFCURVE",
"417 952 CURVE",
"366 916 LINE",
"399 888 OFFCURVE",
"454 826 OFFCURVE",
"472 786 CURVE"
);
}
);
width = 609;
}
);
leftKerningGroup = C;
note = Ccaron;
unicode = 010C;
},
{
glyphname = Ccedilla;
lastChange = "2015-10-27 09:00:35 +0000";
layers = (
{
layerId = "FF1AE41B-C668-46D5-83F9-5511CE68DF10";
name = "Regular Italic";
paths = (
{
closed = 1;
nodes = (
"402 -10 OFFCURVE",
"481 14 OFFCURVE",
"538 57 CURVE",
"528 89 LINE",
"464 49 OFFCURVE",
"391 32 OFFCURVE",
"345 32 CURVE SMOOTH",
"187 32 OFFCURVE",
"149 162 OFFCURVE",
"187 350 CURVE SMOOTH",
"226 538 OFFCURVE",
"327 668 OFFCURVE",
"483 668 CURVE SMOOTH",
"533 668 OFFCURVE",
"573 652 OFFCURVE",
"599 627 CURVE",
"594 589 OFFCURVE",
"591 537 OFFCURVE",
"594 508 CURVE",
"621 508 LINE",
"659 638 LINE",
"621 682 OFFCURVE",
"562 710 OFFCURVE",
"464 710 CURVE SMOOTH",
"259 710 OFFCURVE",
"121 572 OFFCURVE",
"76 350 CURVE SMOOTH",
"30 127 OFFCURVE",
"108 -10 OFFCURVE",
"319 -10 CURVE SMOOTH"
);
},
{
closed = 1;
nodes = (
"306 -234 OFFCURVE",
"367 -203 OFFCURVE",
"380 -140 CURVE SMOOTH",
"389 -95 OFFCURVE",
"357 -67 OFFCURVE",
"289 -67 CURVE",
"341 12 LINE",
"291 12 LINE",
"233 -73 LINE",
"249 -103 LINE",
"256 -102 OFFCURVE",
"265 -101 OFFCURVE",
"273 -101 CURVE SMOOTH",
"300 -101 OFFCURVE",
"329 -110 OFFCURVE",
"324 -140 CURVE SMOOTH",
"315 -179 OFFCURVE",
"280 -193 OFFCURVE",
"239 -193 CURVE SMOOTH",
"217 -193 OFFCURVE",
"193 -188 OFFCURVE",
"177 -179 CURVE",
"153 -211 LINE",
"174 -226 OFFCURVE",
"208 -234 OFFCURVE",
"238 -234 CURVE SMOOTH"
);
}
);
width = 609;
}
);
leftKerningGroup = C;
note = Ccedilla;
unicode = 00C7;
},
{
glyphname = Ccircumflex;
lastChange = "2015-10-27 09:00:36 +0000";
layers = (
{
layerId = "FF1AE41B-C668-46D5-83F9-5511CE68DF10";
name = "Regular Italic";
paths = (
{
closed = 1;
nodes = (
"402 -10 OFFCURVE",
"481 14 OFFCURVE",
"538 57 CURVE",
"528 89 LINE",
"464 49 OFFCURVE",
"391 32 OFFCURVE",
"345 32 CURVE SMOOTH",
"187 32 OFFCURVE",
"149 162 OFFCURVE",
"187 350 CURVE SMOOTH",
"226 538 OFFCURVE",
"327 668 OFFCURVE",
"483 668 CURVE SMOOTH",
"533 668 OFFCURVE",
"573 652 OFFCURVE",
"599 627 CURVE",
"594 589 OFFCURVE",
"591 537 OFFCURVE",
"594 508 CURVE",
"621 508 LINE",
"659 638 LINE",
"621 682 OFFCURVE",
"562 710 OFFCURVE",
"464 710 CURVE SMOOTH",
"259 710 OFFCURVE",
"121 572 OFFCURVE",
"76 350 CURVE SMOOTH",
"30 127 OFFCURVE",
"108 -10 OFFCURVE",
"319 -10 CURVE SMOOTH"
);
},
{
closed = 1;
nodes = (
"417 811 OFFCURVE",
"478 861 OFFCURVE",
"509 897 CURVE",
"514 897 LINE",
"531 861 OFFCURVE",
"571 811 OFFCURVE",
"603 781 CURVE",
"654 818 LINE",
"619 845 OFFCURVE",
"565 908 OFFCURVE",
"547 947 CURVE",
"496 947 LINE",
"463 908 OFFCURVE",
"382 845 OFFCURVE",
"337 818 CURVE",
"373 781 LINE"
);
}
);
width = 609;
}
);
leftKerningGroup = C;
note = Ccircumflex;
unicode = 0108;
},
{
glyphname = Cdotaccent;
lastChange = "2015-10-27 09:00:37 +0000";
layers = (
{
layerId = "FF1AE41B-C668-46D5-83F9-5511CE68DF10";
name = "Regular Italic";
paths = (
{
closed = 1;
nodes = (
"402 -10 OFFCURVE",
"481 14 OFFCURVE",
"538 57 CURVE",
"528 89 LINE",
"464 49 OFFCURVE",
"391 32 OFFCURVE",
"345 32 CURVE SMOOTH",
"187 32 OFFCURVE",
"149 162 OFFCURVE",
"187 350 CURVE SMOOTH",
"226 538 OFFCURVE",
"327 668 OFFCURVE",
"483 668 CURVE SMOOTH",
"533 668 OFFCURVE",
"573 652 OFFCURVE",
"599 627 CURVE",
"594 589 OFFCURVE",
"591 537 OFFCURVE",
"594 508 CURVE",
"621 508 LINE",
"659 638 LINE",
"621 682 OFFCURVE",
"562 710 OFFCURVE",
"464 710 CURVE SMOOTH",
"259 710 OFFCURVE",
"121 572 OFFCURVE",
"76 350 CURVE SMOOTH",
"30 127 OFFCURVE",
"108 -10 OFFCURVE",
"319 -10 CURVE SMOOTH"
);
},
{
closed = 1;
nodes = (
"523 785 OFFCURVE",
"547 807 OFFCURVE",
"553 836 CURVE SMOOTH",
"560 866 OFFCURVE",
"544 888 OFFCURVE",
"516 888 CURVE SMOOTH",
"486 888 OFFCURVE",
"464 866 OFFCURVE",
"457 836 CURVE SMOOTH",
"451 807 OFFCURVE",
"465 785 OFFCURVE",
"494 785 CURVE SMOOTH"
);
}
);
width = 609;
}
);
leftKerningGroup = C;
note = Cdotaccent;
unicode = 010A;
},
{
glyphname = D;
lastChange = "2015-10-27 09:00:36 +0000";
layers = (
{
layerId = "FF1AE41B-C668-46D5-83F9-5511CE68DF10";
name = "Regular Italic";
paths = (
{
closed = 1;
nodes = (
"294 0 LINE SMOOTH",
"500 0 OFFCURVE",
"609 127 OFFCURVE",
"655 350 CURVE SMOOTH",
"700 573 OFFCURVE",
"643 700 OFFCURVE",
"437 700 CURVE SMOOTH",
"139 700 LINE",
"136 686 LINE",
"160 678 OFFCURVE",
"184 671 OFFCURVE",
"208 666 CURVE",
"80 34 LINE",
"53 31 OFFCURVE",
"24 23 OFFCURVE",
"0 15 CURVE",
"-3 0 LINE"
);
},
{
closed = 1;
nodes = (
"316 659 LINE",
"428 659 LINE SMOOTH",
"564 659 OFFCURVE",
"581 535 OFFCURVE",
"543 350 CURVE SMOOTH",
"506 165 OFFCURVE",
"437 40 OFFCURVE",
"300 40 CURVE SMOOTH",
"189 40 LINE"
);
}
);
width = 658;
}
);
note = D;
rightKerningGroup = D;
unicode = 0044;
},
{
glyphname = Eth;
lastChange = "2015-11-28 11:44:10 +0000";
layers = (
{
layerId = "FF1AE41B-C668-46D5-83F9-5511CE68DF10";
name = "Regular Italic";
paths = (
{
closed = 1;
nodes = (
"294 0 LINE SMOOTH",
"500 0 OFFCURVE",
"609 127 OFFCURVE",
"655 350 CURVE SMOOTH",
"700 573 OFFCURVE",
"643 700 OFFCURVE",
"437 700 CURVE SMOOTH",
"139 700 LINE",
"136 686 LINE",
"160 678 OFFCURVE",
"184 671 OFFCURVE",
"208 666 CURVE",
"80 34 LINE",
"53 31 OFFCURVE",
"24 23 OFFCURVE",
"0 15 CURVE",
"-3 0 LINE"
);
},
{
closed = 1;
nodes = (
"316 659 LINE",
"428 659 LINE SMOOTH",
"564 659 OFFCURVE",
"581 535 OFFCURVE",
"543 350 CURVE SMOOTH",
"506 165 OFFCURVE",
"437 40 OFFCURVE",
"300 40 CURVE SMOOTH",
"189 40 LINE"
);
},
{
closed = 1;
nodes = (
"398 313 LINE",
"407 353 LINE",
"78 353 LINE",
"69 313 LINE"
);
}
);
width = 659;
}
);
note = Eth;
rightKerningGroup = D;
unicode = 00D0;
},
{
glyphname = Dcaron;
lastChange = "2015-10-27 09:00:37 +0000";
layers = (
{
layerId = "FF1AE41B-C668-46D5-83F9-5511CE68DF10";
name = "Regular Italic";
paths = (
{
closed = 1;
nodes = (
"294 0 LINE SMOOTH",
"500 0 OFFCURVE",
"609 127 OFFCURVE",
"655 350 CURVE SMOOTH",
"700 573 OFFCURVE",
"643 700 OFFCURVE",
"437 700 CURVE SMOOTH",
"139 700 LINE",
"136 686 LINE",
"160 678 OFFCURVE",
"184 671 OFFCURVE",
"208 666 CURVE",
"80 34 LINE",
"53 31 OFFCURVE",
"24 23 OFFCURVE",
"0 15 CURVE",
"-3 0 LINE"
);
},
{
closed = 1;
nodes = (
"316 659 LINE",
"428 659 LINE SMOOTH",
"564 659 OFFCURVE",
"581 535 OFFCURVE",
"543 350 CURVE SMOOTH",
"506 165 OFFCURVE",
"437 40 OFFCURVE",
"300 40 CURVE SMOOTH",
"189 40 LINE"
);
},
{
closed = 1;
nodes = (
"471 786 LINE",
"505 826 OFFCURVE",
"585 888 OFFCURVE",
"631 916 CURVE",
"594 952 LINE",
"551 923 OFFCURVE",
"490 873 OFFCURVE",
"458 837 CURVE",
"453 837 LINE",
"437 873 OFFCURVE",
"396 923 OFFCURVE",
"365 952 CURVE",
"314 916 LINE",
"348 888 OFFCURVE",
"402 826 OFFCURVE",
"420 786 CURVE"
);
}
);
width = 658;
}
);
note = Dcaron;
rightKerningGroup = D;
unicode = 010E;
},
{
glyphname = Dcroat;
lastChange = "2015-11-28 11:44:06 +0000";
layers = (
{
layerId = "FF1AE41B-C668-46D5-83F9-5511CE68DF10";
name = "Regular Italic";
paths = (
{
closed = 1;
nodes = (
"294 0 LINE SMOOTH",
"500 0 OFFCURVE",
"609 127 OFFCURVE",
"655 350 CURVE SMOOTH",
"700 573 OFFCURVE",
"643 700 OFFCURVE",
"437 700 CURVE SMOOTH",
"139 700 LINE",
"136 686 LINE",
"160 678 OFFCURVE",
"184 671 OFFCURVE",
"208 666 CURVE",
"80 34 LINE",
"53 31 OFFCURVE",
"24 23 OFFCURVE",
"0 15 CURVE",
"-3 0 LINE"
);
},
{
closed = 1;
nodes = (
"316 659 LINE",
"428 659 LINE SMOOTH",
"564 659 OFFCURVE",
"581 535 OFFCURVE",
"543 350 CURVE SMOOTH",
"506 165 OFFCURVE",
"437 40 OFFCURVE",
"300 40 CURVE SMOOTH",
"189 40 LINE"
);
},
{
closed = 1;
nodes = (
"398 313 LINE",
"407 353 LINE",
"78 353 LINE",
"69 313 LINE"
);
}
);
width = 658;
}
);
note = Dcroat;
rightKerningGroup = D;
unicode = 0110;
},
{
glyphname = Ddotbelow;
lastChange = "2015-11-28 11:44:14 +0000";
layers = (
{
layerId = "FF1AE41B-C668-46D5-83F9-5511CE68DF10";
name = "Regular Italic";
paths = (
{
closed = 1;
nodes = (
"294 0 LINE SMOOTH",
"500 0 OFFCURVE",
"609 127 OFFCURVE",
"655 350 CURVE SMOOTH",
"700 573 OFFCURVE",
"643 700 OFFCURVE",
"437 700 CURVE SMOOTH",
"139 700 LINE",
"136 686 LINE",
"160 678 OFFCURVE",
"184 671 OFFCURVE",
"208 666 CURVE",
"80 34 LINE",
"53 31 OFFCURVE",
"24 23 OFFCURVE",
"0 15 CURVE",
"-3 0 LINE"
);
},
{
closed = 1;
nodes = (
"316 659 LINE",
"428 659 LINE SMOOTH",
"564 659 OFFCURVE",
"581 535 OFFCURVE",
"543 350 CURVE SMOOTH",
"506 165 OFFCURVE",
"437 40 OFFCURVE",
"300 40 CURVE SMOOTH",
"189 40 LINE"
);
},
{
closed = 1;
nodes = (
"206 -138 OFFCURVE",
"221 -160 OFFCURVE",
"250 -160 CURVE SMOOTH",
"279 -160 OFFCURVE",
"303 -138 OFFCURVE",
"309 -109 CURVE SMOOTH",
"316 -79 OFFCURVE",
"300 -57 OFFCURVE",
"271 -57 CURVE SMOOTH",
"242 -57 OFFCURVE",
"219 -79 OFFCURVE",
"212 -109 CURVE SMOOTH"
);
}
);
width = 658;
}
);
note = Ddotbelow;
rightKerningGroup = D;
unicode = 1E0C;
},
{
glyphname = Dlinebelow;
lastChange = "2015-11-28 11:44:20 +0000";
layers = (
{
layerId = "FF1AE41B-C668-46D5-83F9-5511CE68DF10";
name = "Regular Italic";
paths = (
{
closed = 1;
nodes = (
"294 0 LINE SMOOTH",
"500 0 OFFCURVE",
"609 127 OFFCURVE",
"655 350 CURVE SMOOTH",
"700 573 OFFCURVE",
"643 700 OFFCURVE",
"437 700 CURVE SMOOTH",
"139 700 LINE",
"136 686 LINE",
"160 678 OFFCURVE",
"184 671 OFFCURVE",
"208 666 CURVE",
"80 34 LINE",
"53 31 OFFCURVE",
"24 23 OFFCURVE",
"0 15 CURVE",
"-3 0 LINE"
);
},
{
closed = 1;
nodes = (
"316 659 LINE",
"428 659 LINE SMOOTH",
"564 659 OFFCURVE",
"581 535 OFFCURVE",
"543 350 CURVE SMOOTH",
"506 165 OFFCURVE",
"437 40 OFFCURVE",
"300 40 CURVE SMOOTH",
"189 40 LINE"
);
},
{
closed = 1;
nodes = (
"418 -105 LINE",
"425 -66 LINE",
"88 -66 LINE",
"81 -105 LINE"
);
}
);
width = 658;
}
);
note = Dlinebelow;
rightKerningGroup = D;
unicode = 1E0E;
},
{
glyphname = E;
lastChange = "2015-10-27 09:00:37 +0000";
layers = (
{
layerId = "FF1AE41B-C668-46D5-83F9-5511CE68DF10";
name = "Regular Italic";
paths = (
{
closed = 1;
nodes = (
"507 0 LINE",
"553 155 LINE",
"528 155 LINE",
"511 135 OFFCURVE",
"474 72 OFFCURVE",
"465 40 CURVE",
"195 40 LINE",
"322 659 LINE",
"588 659 LINE",
"584 631 OFFCURVE",
"587 565 OFFCURVE",
"593 544 CURVE",
"618 544 LINE",
"650 700 LINE",
"139 700 LINE",
"136 686 LINE",
"160 678 OFFCURVE",
"187 670 OFFCURVE",
"213 666 CURVE",
"84 35 LINE",
"58 32 OFFCURVE",
"24 23 OFFCURVE",
"0 15 CURVE",
"-3 0 LINE"
);
},
{
closed = 1;
nodes = (
"460 235 LINE",
"503 444 LINE",
"485 444 LINE",
"469 418 OFFCURVE",
"455 378 OFFCURVE",
"449 360 CURVE",
"174 360 LINE",
"165 319 LINE",
"441 319 LINE",
"440 302 OFFCURVE",
"438 262 OFFCURVE",
"442 235 CURVE"
);
}
);
width = 604;
}
);
note = E;
unicode = 0045;
},
{
glyphname = Eacute;
lastChange = "2015-10-27 09:00:37 +0000";
layers = (
{
layerId = "FF1AE41B-C668-46D5-83F9-5511CE68DF10";
name = "Regular Italic";
paths = (
{
closed = 1;
nodes = (
"507 0 LINE",
"553 155 LINE",
"528 155 LINE",
"511 135 OFFCURVE",
"474 72 OFFCURVE",
"465 40 CURVE",
"195 40 LINE",
"322 659 LINE",
"588 659 LINE",
"584 631 OFFCURVE",
"587 565 OFFCURVE",
"593 544 CURVE",
"618 544 LINE",
"650 700 LINE",
"139 700 LINE",
"136 686 LINE",
"160 678 OFFCURVE",
"187 670 OFFCURVE",
"213 666 CURVE",
"84 35 LINE",
"58 32 OFFCURVE",
"24 23 OFFCURVE",
"0 15 CURVE",
"-3 0 LINE"
);
},
{
closed = 1;
nodes = (
"460 235 LINE",
"503 444 LINE",
"485 444 LINE",
"469 418 OFFCURVE",
"455 378 OFFCURVE",
"449 360 CURVE",
"174 360 LINE",
"165 319 LINE",
"441 319 LINE",
"440 302 OFFCURVE",
"438 262 OFFCURVE",
"442 235 CURVE"
);
},
{
closed = 1;
nodes = (
"530 872 LINE SMOOTH",
"557 887 OFFCURVE",
"572 902 OFFCURVE",
"576 921 CURVE",
"580 936 OFFCURVE",
"571 953 OFFCURVE",
"547 953 CURVE SMOOTH",
"522 953 OFFCURVE",
"500 933 OFFCURVE",
"492 926 CURVE",
"357 813 LINE",
"371 786 LINE"
);
}
);
width = 604;
}
);
note = Eacute;
unicode = 00C9;
},
{
glyphname = Ebreve;
lastChange = "2015-10-27 09:00:35 +0000";
layers = (
{
layerId = "FF1AE41B-C668-46D5-83F9-5511CE68DF10";
name = "Regular Italic";
paths = (
{
closed = 1;
nodes = (
"507 0 LINE",
"553 155 LINE",
"528 155 LINE",
"511 135 OFFCURVE",
"474 72 OFFCURVE",
"465 40 CURVE",
"195 40 LINE",
"322 659 LINE",
"588 659 LINE",
"584 631 OFFCURVE",
"587 565 OFFCURVE",
"593 544 CURVE",
"618 544 LINE",
"650 700 LINE",
"139 700 LINE",
"136 686 LINE",
"160 678 OFFCURVE",
"187 670 OFFCURVE",
"213 666 CURVE",
"84 35 LINE",
"58 32 OFFCURVE",
"24 23 OFFCURVE",
"0 15 CURVE",
"-3 0 LINE"
);
},
{
closed = 1;
nodes = (
"460 235 LINE",
"503 444 LINE",
"485 444 LINE",
"469 418 OFFCURVE",
"455 378 OFFCURVE",
"449 360 CURVE",
"174 360 LINE",
"165 319 LINE",
"441 319 LINE",
"440 302 OFFCURVE",
"438 262 OFFCURVE",
"442 235 CURVE"
);
},
{
closed = 1;
nodes = (
"544 779 OFFCURVE",
"613 819 OFFCURVE",
"642 906 CURVE",
"579 906 LINE",
"556 831 OFFCURVE",
"507 821 OFFCURVE",
"468 821 CURVE SMOOTH",
"428 821 OFFCURVE",
"383 831 OFFCURVE",
"391 906 CURVE",
"328 906 LINE",
"323 819 OFFCURVE",
"373 779 OFFCURVE",
"459 779 CURVE SMOOTH"
);
}
);
width = 604;
}
);
note = Ebreve;
unicode = 0114;
},
{
glyphname = Ecaron;
lastChange = "2015-10-27 09:00:36 +0000";
layers = (
{
layerId = "FF1AE41B-C668-46D5-83F9-5511CE68DF10";
name = "Regular Italic";
paths = (
{
closed = 1;
nodes = (
"507 0 LINE",
"553 155 LINE",
"528 155 LINE",
"511 135 OFFCURVE",
"474 72 OFFCURVE",
"465 40 CURVE",
"195 40 LINE",
"322 659 LINE",
"588 659 LINE",
"584 631 OFFCURVE",
"587 565 OFFCURVE",
"593 544 CURVE",
"618 544 LINE",
"650 700 LINE",
"139 700 LINE",
"136 686 LINE",
"160 678 OFFCURVE",
"187 670 OFFCURVE",
"213 666 CURVE",
"84 35 LINE",
"58 32 OFFCURVE",
"24 23 OFFCURVE",
"0 15 CURVE",
"-3 0 LINE"
);
},
{
closed = 1;
nodes = (
"460 235 LINE",
"503 444 LINE",
"485 444 LINE",
"469 418 OFFCURVE",
"455 378 OFFCURVE",
"449 360 CURVE",
"174 360 LINE",
"165 319 LINE",
"441 319 LINE",
"440 302 OFFCURVE",
"438 262 OFFCURVE",
"442 235 CURVE"
);
},
{
closed = 1;
nodes = (
"483 786 LINE",
"516 826 OFFCURVE",
"596 888 OFFCURVE",
"642 916 CURVE",
"606 952 LINE",
"563 923 OFFCURVE",
"501 873 OFFCURVE",
"469 837 CURVE",
"465 837 LINE",
"448 873 OFFCURVE",
"408 923 OFFCURVE",
"376 952 CURVE",
"325 916 LINE",
"359 888 OFFCURVE",
"414 826 OFFCURVE",
"432 786 CURVE"
);
}
);
width = 604;
}
);
note = Ecaron;
unicode = 011A;
},
{
glyphname = Ecircumflex;
lastChange = "2015-10-27 09:00:36 +0000";
layers = (
{
layerId = "FF1AE41B-C668-46D5-83F9-5511CE68DF10";
name = "Regular Italic";
paths = (
{
closed = 1;
nodes = (
"507 0 LINE",
"553 155 LINE",
"528 155 LINE",
"511 135 OFFCURVE",
"474 72 OFFCURVE",
"465 40 CURVE",
"195 40 LINE",
"322 659 LINE",
"588 659 LINE",
"584 631 OFFCURVE",
"587 565 OFFCURVE",
"593 544 CURVE",
"618 544 LINE",
"650 700 LINE",
"139 700 LINE",
"136 686 LINE",
"160 678 OFFCURVE",
"187 670 OFFCURVE",
"213 666 CURVE",
"84 35 LINE",
"58 32 OFFCURVE",
"24 23 OFFCURVE",
"0 15 CURVE",
"-3 0 LINE"
);
},
{
closed = 1;
nodes = (
"460 235 LINE",
"503 444 LINE",
"485 444 LINE",
"469 418 OFFCURVE",
"455 378 OFFCURVE",
"449 360 CURVE",
"174 360 LINE",
"165 319 LINE",
"441 319 LINE",
"440 302 OFFCURVE",
"438 262 OFFCURVE",
"442 235 CURVE"
);
},
{
closed = 1;
nodes = (
"385 811 OFFCURVE",
"446 861 OFFCURVE",
"477 897 CURVE",
"482 897 LINE",
"499 861 OFFCURVE",
"540 811 OFFCURVE",
"571 781 CURVE",
"622 818 LINE",
"588 845 OFFCURVE",
"534 908 OFFCURVE",
"516 947 CURVE",
"465 947 LINE",
"431 908 OFFCURVE",
"350 845 OFFCURVE",
"305 818 CURVE",
"342 781 LINE"
);
}
);
width = 604;
}
);
note = Ecircumflex;
unicode = 00CA;
},
{
glyphname = Ecircumflexacute;
lastChange = "2015-10-27 09:00:36 +0000";
layers = (
{
layerId = "FF1AE41B-C668-46D5-83F9-5511CE68DF10";
name = "Regular Italic";
paths = (
{
closed = 1;
nodes = (
"507 0 LINE",
"553 155 LINE",
"528 155 LINE",
"511 135 OFFCURVE",
"474 72 OFFCURVE",
"465 40 CURVE",
"195 40 LINE",
"322 659 LINE",
"588 659 LINE",
"584 631 OFFCURVE",
"587 565 OFFCURVE",
"593 544 CURVE",
"618 544 LINE",
"650 700 LINE",
"139 700 LINE",
"136 686 LINE",
"160 678 OFFCURVE",
"187 670 OFFCURVE",
"213 666 CURVE",
"84 35 LINE",
"58 32 OFFCURVE",
"24 23 OFFCURVE",
"0 15 CURVE",
"-3 0 LINE"
);
},
{
closed = 1;
nodes = (
"460 235 LINE",
"503 444 LINE",
"485 444 LINE",
"469 418 OFFCURVE",
"455 378 OFFCURVE",
"449 360 CURVE",
"174 360 LINE",
"165 319 LINE",
"441 319 LINE",
"440 302 OFFCURVE",
"438 262 OFFCURVE",
"442 235 CURVE"
);
},
{
closed = 1;
nodes = (
"375 811 OFFCURVE",
"436 861 OFFCURVE",
"468 897 CURVE",
"471 897 LINE",
"490 861 OFFCURVE",
"529 811 OFFCURVE",
"561 781 CURVE",
"611 818 LINE",
"578 845 OFFCURVE",
"524 908 OFFCURVE",
"505 947 CURVE",
"455 947 LINE",
"420 908 OFFCURVE",
"340 845 OFFCURVE",
"295 818 CURVE",
"332 781 LINE"
);
},
{
closed = 1;
nodes = (
"697 959 LINE SMOOTH",
"739 980 OFFCURVE",
"759 1004 OFFCURVE",
"763 1022 CURVE SMOOTH",
"766 1037 OFFCURVE",
"757 1048 OFFCURVE",
"740 1048 CURVE SMOOTH",
"723 1048 OFFCURVE",
"697 1037 OFFCURVE",
"665 1008 CURVE SMOOTH",
"582 932 LINE",
"593 908 LINE"
);
}
);
width = 604;
}
);
note = Ecircumflexacute;
unicode = 1EBE;
},
{
glyphname = Ecircumflexdotbelow;
lastChange = "2015-10-27 09:00:36 +0000";
layers = (
{
layerId = "FF1AE41B-C668-46D5-83F9-5511CE68DF10";
name = "Regular Italic";
paths = (
{
closed = 1;
nodes = (
"507 0 LINE",
"553 155 LINE",
"528 155 LINE",
"511 135 OFFCURVE",
"474 72 OFFCURVE",
"465 40 CURVE",
"195 40 LINE",
"322 659 LINE",
"588 659 LINE",
"584 631 OFFCURVE",
"587 565 OFFCURVE",
"593 544 CURVE",
"618 544 LINE",
"650 700 LINE",
"139 700 LINE",
"136 686 LINE",
"160 678 OFFCURVE",
"187 670 OFFCURVE",
"213 666 CURVE",
"84 35 LINE",
"58 32 OFFCURVE",
"24 23 OFFCURVE",
"0 15 CURVE",
"-3 0 LINE"
);
},
{
closed = 1;
nodes = (
"285 -160 OFFCURVE",
"309 -138 OFFCURVE",
"315 -109 CURVE SMOOTH",
"322 -79 OFFCURVE",
"306 -57 OFFCURVE",
"276 -57 CURVE SMOOTH",
"248 -57 OFFCURVE",
"225 -79 OFFCURVE",
"218 -109 CURVE SMOOTH",
"212 -138 OFFCURVE",
"227 -160 OFFCURVE",
"255 -160 CURVE SMOOTH"
);
},
{
closed = 1;
nodes = (
"460 235 LINE",
"503 444 LINE",
"485 444 LINE",
"469 418 OFFCURVE",
"455 378 OFFCURVE",
"449 360 CURVE",
"174 360 LINE",
"165 319 LINE",
"441 319 LINE",
"440 302 OFFCURVE",
"438 262 OFFCURVE",
"442 235 CURVE"
);
},
{
closed = 1;
nodes = (
"373 811 OFFCURVE",
"435 861 OFFCURVE",
"466 897 CURVE",
"470 897 LINE",
"488 861 OFFCURVE",
"528 811 OFFCURVE",
"560 781 CURVE",
"611 818 LINE",
"576 845 OFFCURVE",
"522 908 OFFCURVE",
"504 947 CURVE",
"453 947 LINE",
"420 908 OFFCURVE",
"339 845 OFFCURVE",
"294 818 CURVE",
"330 781 LINE"
);
}
);
width = 604;
}
);
note = Ecircumflexdotbelow;
unicode = 1EC6;
},
{
glyphname = Ecircumflexgrave;
lastChange = "2015-10-27 09:00:36 +0000";
layers = (
{
layerId = "FF1AE41B-C668-46D5-83F9-5511CE68DF10";
name = "Regular Italic";
paths = (
{
closed = 1;
nodes = (
"507 0 LINE",
"553 155 LINE",
"528 155 LINE",
"511 135 OFFCURVE",
"474 72 OFFCURVE",
"465 40 CURVE",
"195 40 LINE",
"322 659 LINE",
"588 659 LINE",
"584 631 OFFCURVE",
"587 565 OFFCURVE",
"593 544 CURVE",
"618 544 LINE",
"650 700 LINE",
"139 700 LINE",
"136 686 LINE",
"160 678 OFFCURVE",
"187 670 OFFCURVE",
"213 666 CURVE",
"84 35 LINE",
"58 32 OFFCURVE",
"24 23 OFFCURVE",
"0 15 CURVE",
"-3 0 LINE"
);
},
{
closed = 1;
nodes = (
"460 235 LINE",
"503 444 LINE",
"485 444 LINE",
"469 418 OFFCURVE",
"455 378 OFFCURVE",
"449 360 CURVE",
"174 360 LINE",
"165 319 LINE",
"441 319 LINE",
"440 302 OFFCURVE",
"438 262 OFFCURVE",
"442 235 CURVE"
);
},
{
closed = 1;
nodes = (
"378 932 LINE",
"324 1008 LINE SMOOTH",
"304 1037 OFFCURVE",
"282 1048 OFFCURVE",
"265 1048 CURVE SMOOTH",
"248 1048 OFFCURVE",
"235 1037 OFFCURVE",
"232 1022 CURVE SMOOTH",
"228 1004 OFFCURVE",
"239 980 OFFCURVE",
"272 959 CURVE SMOOTH",
"356 908 LINE"
);
},
{
closed = 1;
nodes = (
"375 811 OFFCURVE",
"436 861 OFFCURVE",
"468 897 CURVE",
"471 897 LINE",
"490 861 OFFCURVE",
"529 811 OFFCURVE",
"561 781 CURVE",
"611 818 LINE",
"578 845 OFFCURVE",
"524 908 OFFCURVE",
"505 947 CURVE",
"455 947 LINE",
"420 908 OFFCURVE",
"340 845 OFFCURVE",
"295 818 CURVE",
"332 781 LINE"
);
}
);
width = 604;
}
);
note = Ecircumflexgrave;
unicode = 1EC0;
},
{
glyphname = Ecircumflexhookabove;
lastChange = "2015-10-27 09:00:35 +0000";
layers = (
{
layerId = "FF1AE41B-C668-46D5-83F9-5511CE68DF10";
name = "Regular Italic";
paths = (
{
closed = 1;
nodes = (
"507 0 LINE",
"553 155 LINE",
"528 155 LINE",
"511 135 OFFCURVE",
"474 72 OFFCURVE",
"465 40 CURVE",
"195 40 LINE",
"322 659 LINE",
"588 659 LINE",
"584 631 OFFCURVE",
"587 565 OFFCURVE",
"593 544 CURVE",
"618 544 LINE",
"650 700 LINE",
"139 700 LINE",
"136 686 LINE",
"160 678 OFFCURVE",
"187 670 OFFCURVE",
"213 666 CURVE",
"84 35 LINE",
"58 32 OFFCURVE",
"24 23 OFFCURVE",
"0 15 CURVE",
"-3 0 LINE"
);
},
{
closed = 1;
nodes = (
"460 235 LINE",
"503 444 LINE",
"485 444 LINE",
"469 418 OFFCURVE",
"455 378 OFFCURVE",
"449 360 CURVE",
"174 360 LINE",
"165 319 LINE",
"441 319 LINE",
"440 302 OFFCURVE",
"438 262 OFFCURVE",
"442 235 CURVE"
);
},
{
closed = 1;
nodes = (
"375 811 OFFCURVE",
"436 861 OFFCURVE",
"468 897 CURVE",
"471 897 LINE",
"490 861 OFFCURVE",
"529 811 OFFCURVE",
"561 781 CURVE",
"611 818 LINE",
"578 845 OFFCURVE",
"524 908 OFFCURVE",
"505 947 CURVE",
"455 947 LINE",
"420 908 OFFCURVE",
"340 845 OFFCURVE",
"295 818 CURVE",
"332 781 LINE"
);
},
{
closed = 1;
nodes = (
"612 903 LINE",
"632 958 LINE",
"677 962 OFFCURVE",
"710 981 OFFCURVE",
"719 1024 CURVE SMOOTH",
"730 1073 OFFCURVE",
"689 1093 OFFCURVE",
"644 1093 CURVE SMOOTH",
"618 1093 OFFCURVE",
"591 1086 OFFCURVE",
"575 1079 CURVE",
"575 1049 LINE",
"592 1058 OFFCURVE",
"612 1062 OFFCURVE",
"626 1062 CURVE SMOOTH",
"660 1062 OFFCURVE",
"673 1046 OFFCURVE",
"668 1025 CURVE SMOOTH",
"662 997 OFFCURVE",
"639 982 OFFCURVE",
"609 982 CURVE SMOOTH",
"586 982 LINE",
"574 903 LINE"
);
}
);
width = 604;
}
);
note = Ecircumflexhookabove;
unicode = 1EC2;
},
{
glyphname = Ecircumflextilde;
lastChange = "2015-10-27 09:00:37 +0000";
layers = (
{
layerId = "FF1AE41B-C668-46D5-83F9-5511CE68DF10";
name = "Regular Italic";
paths = (
{
closed = 1;
nodes = (
"507 0 LINE",
"553 155 LINE",
"528 155 LINE",
"511 135 OFFCURVE",
"474 72 OFFCURVE",
"465 40 CURVE",
"195 40 LINE",
"322 659 LINE",
"588 659 LINE",
"584 631 OFFCURVE",
"587 565 OFFCURVE",
"593 544 CURVE",
"618 544 LINE",
"650 700 LINE",
"139 700 LINE",
"136 686 LINE",
"160 678 OFFCURVE",
"187 670 OFFCURVE",
"213 666 CURVE",
"84 35 LINE",
"58 32 OFFCURVE",
"24 23 OFFCURVE",
"0 15 CURVE",
"-3 0 LINE"
);
},
{
closed = 1;
nodes = (
"460 235 LINE",
"503 444 LINE",
"485 444 LINE",
"469 418 OFFCURVE",
"455 378 OFFCURVE",
"449 360 CURVE",
"174 360 LINE",
"165 319 LINE",
"441 319 LINE",
"440 302 OFFCURVE",
"438 262 OFFCURVE",
"442 235 CURVE"
);
},
{
closed = 1;
nodes = (
"375 811 OFFCURVE",
"436 861 OFFCURVE",
"468 897 CURVE",
"471 897 LINE",
"490 861 OFFCURVE",
"529 811 OFFCURVE",
"561 781 CURVE",
"611 818 LINE",
"578 845 OFFCURVE",
"524 908 OFFCURVE",
"505 947 CURVE",
"455 947 LINE",
"420 908 OFFCURVE",
"340 845 OFFCURVE",
"295 818 CURVE",
"332 781 LINE"
);
},
{
closed = 1;
nodes = (
"354 972 LINE",
"368 1006 OFFCURVE",
"397 1028 OFFCURVE",
"426 1028 CURVE SMOOTH",
"464 1028 OFFCURVE",
"510 973 OFFCURVE",
"561 973 CURVE SMOOTH",
"622 973 OFFCURVE",
"663 1016 OFFCURVE",
"684 1082 CURVE",
"648 1082 LINE",
"629 1038 OFFCURVE",
"598 1024 OFFCURVE",
"572 1024 CURVE SMOOTH",
"533 1024 OFFCURVE",
"499 1078 OFFCURVE",
"440 1078 CURVE SMOOTH",
"384 1078 OFFCURVE",
"340 1044 OFFCURVE",
"316 972 CURVE"
);
}
);
width = 604;
}
);
note = Ecircumflextilde;
unicode = 1EC4;
},
{
glyphname = Edieresis;
lastChange = "2015-10-27 09:00:36 +0000";
layers = (
{
layerId = "FF1AE41B-C668-46D5-83F9-5511CE68DF10";
name = "Regular Italic";
paths = (
{
closed = 1;
nodes = (
"507 0 LINE",
"553 155 LINE",
"528 155 LINE",
"511 135 OFFCURVE",
"474 72 OFFCURVE",
"465 40 CURVE",
"195 40 LINE",
"322 659 LINE",
"588 659 LINE",
"584 631 OFFCURVE",
"587 565 OFFCURVE",
"593 544 CURVE",
"618 544 LINE",
"650 700 LINE",
"139 700 LINE",
"136 686 LINE",
"160 678 OFFCURVE",
"187 670 OFFCURVE",
"213 666 CURVE",
"84 35 LINE",
"58 32 OFFCURVE",
"24 23 OFFCURVE",
"0 15 CURVE",
"-3 0 LINE"
);
},
{
closed = 1;
nodes = (
"460 235 LINE",
"503 444 LINE",
"485 444 LINE",
"469 418 OFFCURVE",
"455 378 OFFCURVE",
"449 360 CURVE",
"174 360 LINE",
"165 319 LINE",
"441 319 LINE",
"440 302 OFFCURVE",
"438 262 OFFCURVE",
"442 235 CURVE"
);
},
{
closed = 1;
nodes = (
"381 785 OFFCURVE",
"405 807 OFFCURVE",
"411 836 CURVE SMOOTH",
"418 866 OFFCURVE",
"402 888 OFFCURVE",
"372 888 CURVE SMOOTH",
"344 888 OFFCURVE",
"322 866 OFFCURVE",
"315 836 CURVE SMOOTH",
"309 807 OFFCURVE",
"324 785 OFFCURVE",
"351 785 CURVE SMOOTH"
);
},
{
closed = 1;
nodes = (
"598 785 OFFCURVE",
"622 807 OFFCURVE",
"628 836 CURVE SMOOTH",
"635 866 OFFCURVE",
"619 888 OFFCURVE",
"590 888 CURVE SMOOTH",
"561 888 OFFCURVE",
"539 866 OFFCURVE",
"532 836 CURVE SMOOTH",
"526 807 OFFCURVE",
"540 785 OFFCURVE",
"569 785 CURVE SMOOTH"
);
}
);
width = 604;
}
);
note = Edieresis;
unicode = 00CB;
},
{
glyphname = Edotaccent;
lastChange = "2015-10-27 09:00:36 +0000";
layers = (
{
layerId = "FF1AE41B-C668-46D5-83F9-5511CE68DF10";
name = "Regular Italic";
paths = (
{
closed = 1;
nodes = (
"507 0 LINE",
"553 155 LINE",
"528 155 LINE",
"511 135 OFFCURVE",
"474 72 OFFCURVE",
"465 40 CURVE",
"195 40 LINE",
"322 659 LINE",
"588 659 LINE",
"584 631 OFFCURVE",
"587 565 OFFCURVE",
"593 544 CURVE",
"618 544 LINE",
"650 700 LINE",
"139 700 LINE",
"136 686 LINE",
"160 678 OFFCURVE",
"187 670 OFFCURVE",
"213 666 CURVE",
"84 35 LINE",
"58 32 OFFCURVE",
"24 23 OFFCURVE",
"0 15 CURVE",
"-3 0 LINE"
);
},
{
closed = 1;
nodes = (
"460 235 LINE",
"503 444 LINE",
"485 444 LINE",
"469 418 OFFCURVE",
"455 378 OFFCURVE",
"449 360 CURVE",
"174 360 LINE",
"165 319 LINE",
"441 319 LINE",
"440 302 OFFCURVE",
"438 262 OFFCURVE",
"442 235 CURVE"
);
},
{
closed = 1;
nodes = (
"492 785 OFFCURVE",
"516 807 OFFCURVE",
"522 836 CURVE SMOOTH",
"529 866 OFFCURVE",
"514 888 OFFCURVE",
"485 888 CURVE SMOOTH",
"455 888 OFFCURVE",
"433 866 OFFCURVE",
"426 836 CURVE SMOOTH",
"420 807 OFFCURVE",
"434 785 OFFCURVE",
"464 785 CURVE SMOOTH"
);
}
);
width = 604;
}
);
note = Edotaccent;
unicode = 0116;
},
{
glyphname = Edotbelow;
lastChange = "2015-10-27 09:00:37 +0000";
layers = (
{
layerId = "FF1AE41B-C668-46D5-83F9-5511CE68DF10";
name = "Regular Italic";
paths = (
{
closed = 1;
nodes = (
"507 0 LINE",
"553 155 LINE",
"528 155 LINE",
"511 135 OFFCURVE",
"474 72 OFFCURVE",
"465 40 CURVE",
"195 40 LINE",
"322 659 LINE",
"588 659 LINE",
"584 631 OFFCURVE",
"587 565 OFFCURVE",
"593 544 CURVE",
"618 544 LINE",
"650 700 LINE",
"139 700 LINE",
"136 686 LINE",
"160 678 OFFCURVE",
"187 670 OFFCURVE",
"213 666 CURVE",
"84 35 LINE",
"58 32 OFFCURVE",
"24 23 OFFCURVE",
"0 15 CURVE",
"-3 0 LINE"
);
},
{
closed = 1;
nodes = (
"266 -160 OFFCURVE",
"290 -138 OFFCURVE",
"296 -109 CURVE SMOOTH",
"302 -79 OFFCURVE",
"287 -57 OFFCURVE",
"257 -57 CURVE SMOOTH",
"228 -57 OFFCURVE",
"205 -79 OFFCURVE",
"199 -109 CURVE SMOOTH",
"193 -138 OFFCURVE",
"207 -160 OFFCURVE",
"236 -160 CURVE SMOOTH"
);
},
{
closed = 1;
nodes = (
"460 235 LINE",
"503 444 LINE",
"485 444 LINE",
"469 418 OFFCURVE",
"455 378 OFFCURVE",
"449 360 CURVE",
"174 360 LINE",
"165 319 LINE",
"441 319 LINE",
"440 302 OFFCURVE",
"438 262 OFFCURVE",
"442 235 CURVE"
);
}
);
width = 604;
}
);
note = Edotbelow;
unicode = 1EB8;
},
{
glyphname = Egrave;
lastChange = "2015-10-27 09:00:37 +0000";
layers = (
{
layerId = "FF1AE41B-C668-46D5-83F9-5511CE68DF10";
name = "Regular Italic";
paths = (
{
closed = 1;
nodes = (
"507 0 LINE",
"553 155 LINE",
"528 155 LINE",
"511 135 OFFCURVE",
"474 72 OFFCURVE",
"465 40 CURVE",
"195 40 LINE",
"322 659 LINE",
"588 659 LINE",
"584 631 OFFCURVE",
"587 565 OFFCURVE",
"593 544 CURVE",
"618 544 LINE",
"650 700 LINE",
"139 700 LINE",
"136 686 LINE",
"160 678 OFFCURVE",
"187 670 OFFCURVE",
"213 666 CURVE",
"84 35 LINE",
"58 32 OFFCURVE",
"24 23 OFFCURVE",
"0 15 CURVE",
"-3 0 LINE"
);
},
{
closed = 1;
nodes = (
"460 235 LINE",
"503 444 LINE",
"485 444 LINE",
"469 418 OFFCURVE",
"455 378 OFFCURVE",
"449 360 CURVE",
"174 360 LINE",
"165 319 LINE",
"441 319 LINE",
"440 302 OFFCURVE",
"438 262 OFFCURVE",
"442 235 CURVE"
);
},
{
closed = 1;
nodes = (
"561 813 LINE",
"471 927 LINE SMOOTH",
"465 935 OFFCURVE",
"451 953 OFFCURVE",
"428 953 CURVE SMOOTH",
"403 953 OFFCURVE",
"389 936 OFFCURVE",
"385 921 CURVE",
"381 902 OFFCURVE",
"392 887 OFFCURVE",
"413 872 CURVE SMOOTH",
"538 786 LINE"
);
}
);
width = 604;
}
);
note = Egrave;
unicode = 00C8;
},
{
glyphname = Ehookabove;
lastChange = "2015-10-27 09:00:36 +0000";
layers = (
{
layerId = "FF1AE41B-C668-46D5-83F9-5511CE68DF10";
name = "Regular Italic";
paths = (
{
closed = 1;
nodes = (
"507 0 LINE",
"553 155 LINE",
"528 155 LINE",
"511 135 OFFCURVE",
"474 72 OFFCURVE",
"465 40 CURVE",
"195 40 LINE",
"322 659 LINE",
"588 659 LINE",
"584 631 OFFCURVE",
"587 565 OFFCURVE",
"593 544 CURVE",
"618 544 LINE",
"650 700 LINE",
"139 700 LINE",
"136 686 LINE",
"160 678 OFFCURVE",
"187 670 OFFCURVE",
"213 666 CURVE",
"84 35 LINE",
"58 32 OFFCURVE",
"24 23 OFFCURVE",
"0 15 CURVE",
"-3 0 LINE"
);
},
{
closed = 1;
nodes = (
"460 235 LINE",
"503 444 LINE",
"485 444 LINE",
"469 418 OFFCURVE",
"455 378 OFFCURVE",
"449 360 CURVE",
"174 360 LINE",
"165 319 LINE",
"441 319 LINE",
"440 302 OFFCURVE",
"438 262 OFFCURVE",
"442 235 CURVE"
);
},
{
closed = 1;
nodes = (
"474 781 LINE",
"497 847 LINE",
"549 852 OFFCURVE",
"588 875 OFFCURVE",
"597 926 CURVE SMOOTH",
"610 985 OFFCURVE",
"564 1009 OFFCURVE",
"514 1009 CURVE SMOOTH",
"484 1009 OFFCURVE",
"453 1001 OFFCURVE",
"433 992 CURVE",
"433 959 LINE",
"454 970 OFFCURVE",
"476 975 OFFCURVE",
"492 975 CURVE SMOOTH",
"531 975 OFFCURVE",
"546 953 OFFCURVE",
"540 928 CURVE SMOOTH",
"534 894 OFFCURVE",
"506 876 OFFCURVE",
"471 876 CURVE SMOOTH",
"444 876 LINE",
"429 781 LINE"
);
}
);
width = 604;
}
);
note = Ehookabove;
unicode = 1EBA;
},
{
glyphname = Emacron;
lastChange = "2015-10-27 09:00:35 +0000";
layers = (
{
layerId = "FF1AE41B-C668-46D5-83F9-5511CE68DF10";
name = "Regular Italic";
paths = (
{
closed = 1;
nodes = (
"507 0 LINE",
"553 155 LINE",
"528 155 LINE",
"511 135 OFFCURVE",
"474 72 OFFCURVE",
"465 40 CURVE",
"195 40 LINE",
"322 659 LINE",
"588 659 LINE",
"584 631 OFFCURVE",
"587 565 OFFCURVE",
"593 544 CURVE",
"618 544 LINE",
"650 700 LINE",
"139 700 LINE",
"136 686 LINE",
"160 678 OFFCURVE",
"187 670 OFFCURVE",
"213 666 CURVE",
"84 35 LINE",
"58 32 OFFCURVE",
"24 23 OFFCURVE",
"0 15 CURVE",
"-3 0 LINE"
);
},
{
closed = 1;
nodes = (
"460 235 LINE",
"503 444 LINE",
"485 444 LINE",
"469 418 OFFCURVE",
"455 378 OFFCURVE",
"449 360 CURVE",
"174 360 LINE",
"165 319 LINE",
"441 319 LINE",
"440 302 OFFCURVE",
"438 262 OFFCURVE",
"442 235 CURVE"
);
},
{
closed = 1;
nodes = (
"623 785 LINE",
"631 825 LINE",
"294 825 LINE",
"286 785 LINE"
);
}
);
width = 604;
}
);
note = Emacron;
unicode = 0112;
},
{
glyphname = Eogonek;
lastChange = "2015-10-27 09:00:36 +0000";
layers = (
{
layerId = "FF1AE41B-C668-46D5-83F9-5511CE68DF10";
name = "Regular Italic";
paths = (
{
closed = 1;
nodes = (
"507 0 LINE",
"553 155 LINE",
"528 155 LINE",
"511 135 OFFCURVE",
"474 72 OFFCURVE",
"465 40 CURVE",
"195 40 LINE",
"322 659 LINE",
"588 659 LINE",
"584 631 OFFCURVE",
"587 565 OFFCURVE",
"593 544 CURVE",
"618 544 LINE",
"650 700 LINE",
"139 700 LINE",
"136 686 LINE",
"160 678 OFFCURVE",
"187 670 OFFCURVE",
"213 666 CURVE",
"84 35 LINE",
"58 32 OFFCURVE",
"24 23 OFFCURVE",
"0 15 CURVE",
"-3 0 LINE"
);
},
{
closed = 1;
nodes = (
"444 -193 OFFCURVE",
"476 -186 OFFCURVE",
"502 -173 CURVE",
"512 -125 LINE",
"490 -136 OFFCURVE",
"469 -141 OFFCURVE",
"453 -141 CURVE SMOOTH",
"420 -141 OFFCURVE",
"397 -123 OFFCURVE",
"404 -90 CURVE SMOOTH",
"412 -55 OFFCURVE",
"445 -19 OFFCURVE",
"479 0 CURVE",
"424 0 LINE",
"368 -19 OFFCURVE",
"328 -65 OFFCURVE",
"319 -110 CURVE SMOOTH",
"309 -156 OFFCURVE",
"339 -193 OFFCURVE",
"409 -193 CURVE SMOOTH"
);
},
{
closed = 1;
nodes = (
"460 235 LINE",
"503 444 LINE",
"485 444 LINE",
"469 418 OFFCURVE",
"455 378 OFFCURVE",
"449 360 CURVE",
"174 360 LINE",
"165 319 LINE",
"441 319 LINE",
"440 302 OFFCURVE",
"438 262 OFFCURVE",
"442 235 CURVE"
);
}
);
width = 604;
}
);
note = Eogonek;
unicode = 0118;
},
{
glyphname = Etilde;
lastChange = "2015-10-27 09:00:37 +0000";
layers = (
{
layerId = "FF1AE41B-C668-46D5-83F9-5511CE68DF10";
name = "Regular Italic";
paths = (
{
closed = 1;
nodes = (
"507 0 LINE",
"553 155 LINE",
"528 155 LINE",
"511 135 OFFCURVE",
"474 72 OFFCURVE",
"465 40 CURVE",
"195 40 LINE",
"322 659 LINE",
"588 659 LINE",
"584 631 OFFCURVE",
"587 565 OFFCURVE",
"593 544 CURVE",
"618 544 LINE",
"650 700 LINE",
"139 700 LINE",
"136 686 LINE",
"160 678 OFFCURVE",
"187 670 OFFCURVE",
"213 666 CURVE",
"84 35 LINE",
"58 32 OFFCURVE",
"24 23 OFFCURVE",
"0 15 CURVE",
"-3 0 LINE"
);
},
{
closed = 1;
nodes = (
"460 235 LINE",
"503 444 LINE",
"485 444 LINE",
"469 418 OFFCURVE",
"455 378 OFFCURVE",
"449 360 CURVE",
"174 360 LINE",
"165 319 LINE",
"441 319 LINE",
"440 302 OFFCURVE",
"438 262 OFFCURVE",
"442 235 CURVE"
);
},
{
closed = 1;
nodes = (
"311 785 LINE",
"324 819 OFFCURVE",
"354 841 OFFCURVE",
"383 841 CURVE SMOOTH",
"420 841 OFFCURVE",
"467 786 OFFCURVE",
"517 786 CURVE SMOOTH",
"580 786 OFFCURVE",
"619 829 OFFCURVE",
"640 895 CURVE",
"605 895 LINE",
"587 851 OFFCURVE",
"556 837 OFFCURVE",
"529 837 CURVE SMOOTH",
"490 837 OFFCURVE",
"455 891 OFFCURVE",
"396 891 CURVE SMOOTH",
"340 891 OFFCURVE",
"297 857 OFFCURVE",
"273 785 CURVE"
);
}
);
width = 604;
}
);
note = Etilde;
unicode = 1EBC;
},
{
glyphname = F;
lastChange = "2015-10-27 09:00:35 +0000";
layers = (
{
layerId = "FF1AE41B-C668-46D5-83F9-5511CE68DF10";
name = "Regular Italic";
paths = (
{
closed = 1;
nodes = (
"269 0 LINE",
"271 13 LINE",
"247 23 OFFCURVE",
"218 29 OFFCURVE",
"194 33 CURVE",
"322 659 LINE",
"578 659 LINE",
"574 631 OFFCURVE",
"577 565 OFFCURVE",
"584 544 CURVE",
"609 544 LINE",
"640 700 LINE",
"139 700 LINE",
"136 686 LINE",
"160 677 OFFCURVE",
"190 670 OFFCURVE",
"213 666 CURVE",
"84 33 LINE",
"52 29 OFFCURVE",
"24 22 OFFCURVE",
"-1 14 CURVE",
"-3 0 LINE"
);
},
{
closed = 1;
nodes = (
"460 235 LINE",
"503 444 LINE",
"485 444 LINE",
"469 418 OFFCURVE",
"455 378 OFFCURVE",
"449 360 CURVE",
"174 360 LINE",
"165 319 LINE",
"441 319 LINE",
"440 302 OFFCURVE",
"438 262 OFFCURVE",
"442 235 CURVE"
);
}
);
width = 562;
}
);
note = F;
unicode = 0046;
},
{
glyphname = G;
lastChange = "2015-10-27 09:00:37 +0000";
layers = (
{
layerId = "FF1AE41B-C668-46D5-83F9-5511CE68DF10";
name = "Regular Italic";
paths = (
{
closed = 1;
nodes = (
"397 -10 OFFCURVE",
"498 10 OFFCURVE",
"555 49 CURVE",
"607 305 LINE",
"633 309 OFFCURVE",
"662 320 OFFCURVE",
"679 329 CURVE",
"682 340 LINE",
"433 340 LINE",
"430 326 LINE",
"451 318 OFFCURVE",
"477 312 OFFCURVE",
"502 307 CURVE",
"450 55 LINE",
"416 39 OFFCURVE",
"366 32 OFFCURVE",
"340 32 CURVE SMOOTH",
"182 32 OFFCURVE",
"141 162 OFFCURVE",
"180 350 CURVE SMOOTH",
"218 538 OFFCURVE",
"327 668 OFFCURVE",
"485 668 CURVE SMOOTH",
"535 668 OFFCURVE",
"601 652 OFFCURVE",
"627 627 CURVE",
"622 589 OFFCURVE",
"619 539 OFFCURVE",
"622 508 CURVE",
"649 508 LINE",
"686 638 LINE",
"649 682 OFFCURVE",
"564 710 OFFCURVE",
"466 710 CURVE SMOOTH",
"261 710 OFFCURVE",
"113 572 OFFCURVE",
"68 350 CURVE SMOOTH",
"22 127 OFFCURVE",
"103 -10 OFFCURVE",
"314 -10 CURVE SMOOTH"
);
}
);
width = 660;
}
);
leftKerningGroup = G;
note = G;
unicode = 0047;
},
{
glyphname = Gbreve;
lastChange = "2015-10-27 09:00:37 +0000";
layers = (
{
layerId = "FF1AE41B-C668-46D5-83F9-5511CE68DF10";
name = "Regular Italic";
paths = (
{
closed = 1;
nodes = (
"397 -10 OFFCURVE",
"498 10 OFFCURVE",
"555 49 CURVE",
"607 305 LINE",
"633 309 OFFCURVE",
"662 320 OFFCURVE",
"679 329 CURVE",
"682 340 LINE",
"433 340 LINE",
"430 326 LINE",
"451 318 OFFCURVE",
"477 312 OFFCURVE",
"502 307 CURVE",
"450 55 LINE",
"416 39 OFFCURVE",
"366 32 OFFCURVE",
"340 32 CURVE SMOOTH",
"182 32 OFFCURVE",
"141 162 OFFCURVE",
"180 350 CURVE SMOOTH",
"218 538 OFFCURVE",
"327 668 OFFCURVE",
"485 668 CURVE SMOOTH",
"535 668 OFFCURVE",
"601 652 OFFCURVE",
"627 627 CURVE",
"622 589 OFFCURVE",
"619 539 OFFCURVE",
"622 508 CURVE",
"649 508 LINE",
"686 638 LINE",
"649 682 OFFCURVE",
"564 710 OFFCURVE",
"466 710 CURVE SMOOTH",
"261 710 OFFCURVE",
"113 572 OFFCURVE",
"68 350 CURVE SMOOTH",
"22 127 OFFCURVE",
"103 -10 OFFCURVE",
"314 -10 CURVE SMOOTH"
);
},
{
closed = 1;
nodes = (
"566 779 OFFCURVE",
"636 819 OFFCURVE",
"664 906 CURVE",
"601 906 LINE",
"578 831 OFFCURVE",
"529 821 OFFCURVE",
"490 821 CURVE SMOOTH",
"450 821 OFFCURVE",
"405 831 OFFCURVE",
"413 906 CURVE",
"350 906 LINE",
"345 819 OFFCURVE",
"396 779 OFFCURVE",
"481 779 CURVE SMOOTH"
);
}
);
width = 660;
}
);
leftKerningGroup = G;
note = Gbreve;
unicode = 011E;
},
{
glyphname = Gcaron;
lastChange = "2015-10-27 09:00:36 +0000";
layers = (
{
layerId = "FF1AE41B-C668-46D5-83F9-5511CE68DF10";
name = "Regular Italic";
paths = (
{
closed = 1;
nodes = (
"397 -10 OFFCURVE",
"498 10 OFFCURVE",
"555 49 CURVE",
"607 305 LINE",
"633 309 OFFCURVE",
"662 320 OFFCURVE",
"679 329 CURVE",
"682 340 LINE",
"433 340 LINE",
"430 326 LINE",
"451 318 OFFCURVE",
"477 312 OFFCURVE",
"502 307 CURVE",
"450 55 LINE",
"416 39 OFFCURVE",
"366 32 OFFCURVE",
"340 32 CURVE SMOOTH",
"182 32 OFFCURVE",
"141 162 OFFCURVE",
"180 350 CURVE SMOOTH",
"218 538 OFFCURVE",
"327 668 OFFCURVE",
"485 668 CURVE SMOOTH",
"535 668 OFFCURVE",
"601 652 OFFCURVE",
"627 627 CURVE",
"622 589 OFFCURVE",
"619 539 OFFCURVE",
"622 508 CURVE",
"649 508 LINE",
"686 638 LINE",
"649 682 OFFCURVE",
"564 710 OFFCURVE",
"466 710 CURVE SMOOTH",
"261 710 OFFCURVE",
"113 572 OFFCURVE",
"68 350 CURVE SMOOTH",
"22 127 OFFCURVE",
"103 -10 OFFCURVE",
"314 -10 CURVE SMOOTH"
);
},
{
closed = 1;
nodes = (
"516 795 LINE",
"549 835 OFFCURVE",
"629 897 OFFCURVE",
"675 925 CURVE",
"638 961 LINE",
"595 932 OFFCURVE",
"534 882 OFFCURVE",
"502 846 CURVE",
"497 846 LINE",
"481 882 OFFCURVE",
"441 932 OFFCURVE",
"409 961 CURVE",
"358 925 LINE",
"392 897 OFFCURVE",
"446 835 OFFCURVE",
"465 795 CURVE"
);
}
);
width = 660;
}
);
leftKerningGroup = G;
note = Gcaron;
unicode = 01E6;
},
{
glyphname = Gcircumflex;
lastChange = "2015-10-27 09:00:37 +0000";
layers = (
{
layerId = "FF1AE41B-C668-46D5-83F9-5511CE68DF10";
name = "Regular Italic";
paths = (
{
closed = 1;
nodes = (
"397 -10 OFFCURVE",
"498 10 OFFCURVE",
"555 49 CURVE",
"607 305 LINE",
"633 309 OFFCURVE",
"662 320 OFFCURVE",
"679 329 CURVE",
"682 340 LINE",
"433 340 LINE",
"430 326 LINE",
"451 318 OFFCURVE",
"477 312 OFFCURVE",
"502 307 CURVE",
"450 55 LINE",
"416 39 OFFCURVE",
"366 32 OFFCURVE",
"340 32 CURVE SMOOTH",
"182 32 OFFCURVE",
"141 162 OFFCURVE",
"180 350 CURVE SMOOTH",
"218 538 OFFCURVE",
"327 668 OFFCURVE",
"485 668 CURVE SMOOTH",
"535 668 OFFCURVE",
"601 652 OFFCURVE",
"627 627 CURVE",
"622 589 OFFCURVE",
"619 539 OFFCURVE",
"622 508 CURVE",
"649 508 LINE",
"686 638 LINE",
"649 682 OFFCURVE",
"564 710 OFFCURVE",
"466 710 CURVE SMOOTH",
"261 710 OFFCURVE",
"113 572 OFFCURVE",
"68 350 CURVE SMOOTH",
"22 127 OFFCURVE",
"103 -10 OFFCURVE",
"314 -10 CURVE SMOOTH"
);
},
{
closed = 1;
nodes = (
"423 811 OFFCURVE",
"485 861 OFFCURVE",
"516 897 CURVE",
"520 897 LINE",
"538 861 OFFCURVE",
"578 811 OFFCURVE",
"610 781 CURVE",
"660 818 LINE",
"626 845 OFFCURVE",
"572 908 OFFCURVE",
"554 947 CURVE",
"503 947 LINE",
"469 908 OFFCURVE",
"389 845 OFFCURVE",
"344 818 CURVE",
"380 781 LINE"
);
}
);
width = 660;
}
);
leftKerningGroup = G;
note = Gcircumflex;
unicode = 011C;
},
{
glyphname = Gcommaaccent;
lastChange = "2015-10-27 09:00:37 +0000";
layers = (
{
layerId = "FF1AE41B-C668-46D5-83F9-5511CE68DF10";
name = "Regular Italic";
paths = (
{
closed = 1;
nodes = (
"397 -10 OFFCURVE",
"498 10 OFFCURVE",
"555 49 CURVE",
"607 305 LINE",
"633 309 OFFCURVE",
"662 320 OFFCURVE",
"679 329 CURVE",
"682 340 LINE",
"433 340 LINE",
"430 326 LINE",
"451 318 OFFCURVE",
"477 312 OFFCURVE",
"502 307 CURVE",
"450 55 LINE",
"416 39 OFFCURVE",
"366 32 OFFCURVE",
"340 32 CURVE SMOOTH",
"182 32 OFFCURVE",
"141 162 OFFCURVE",
"180 350 CURVE SMOOTH",
"218 538 OFFCURVE",
"327 668 OFFCURVE",
"485 668 CURVE SMOOTH",
"535 668 OFFCURVE",
"601 652 OFFCURVE",
"627 627 CURVE",
"622 589 OFFCURVE",
"619 539 OFFCURVE",
"622 508 CURVE",
"649 508 LINE",
"686 638 LINE",
"649 682 OFFCURVE",
"564 710 OFFCURVE",
"466 710 CURVE SMOOTH",
"261 710 OFFCURVE",
"113 572 OFFCURVE",
"68 350 CURVE SMOOTH",
"22 127 OFFCURVE",
"103 -10 OFFCURVE",
"314 -10 CURVE SMOOTH"
);
},
{
closed = 1;
nodes = (
"298 -281 OFFCURVE",
"346 -205 OFFCURVE",
"358 -143 CURVE SMOOTH",
"366 -104 OFFCURVE",
"355 -73 OFFCURVE",
"310 -73 CURVE SMOOTH",
"280 -73 OFFCURVE",
"248 -92 OFFCURVE",
"240 -128 CURVE SMOOTH",
"232 -166 OFFCURVE",
"252 -183 OFFCURVE",
"290 -183 CURVE",
"276 -225 OFFCURVE",
"244 -268 OFFCURVE",
"214 -295 CURVE",
"244 -324 LINE"
);
}
);
width = 660;
}
);
leftKerningGroup = G;
note = Gcommaaccent;
unicode = 0122;
},
{
glyphname = Gdotaccent;
lastChange = "2015-10-27 09:00:37 +0000";
layers = (
{
layerId = "FF1AE41B-C668-46D5-83F9-5511CE68DF10";
name = "Regular Italic";
paths = (
{
closed = 1;
nodes = (
"397 -10 OFFCURVE",
"498 10 OFFCURVE",
"555 49 CURVE",
"607 305 LINE",
"633 309 OFFCURVE",
"662 320 OFFCURVE",
"679 329 CURVE",
"682 340 LINE",
"433 340 LINE",
"430 326 LINE",
"451 318 OFFCURVE",
"477 312 OFFCURVE",
"502 307 CURVE",
"450 55 LINE",
"416 39 OFFCURVE",
"366 32 OFFCURVE",
"340 32 CURVE SMOOTH",
"182 32 OFFCURVE",
"141 162 OFFCURVE",
"180 350 CURVE SMOOTH",
"218 538 OFFCURVE",
"327 668 OFFCURVE",
"485 668 CURVE SMOOTH",
"535 668 OFFCURVE",
"601 652 OFFCURVE",
"627 627 CURVE",
"622 589 OFFCURVE",
"619 539 OFFCURVE",
"622 508 CURVE",
"649 508 LINE",
"686 638 LINE",
"649 682 OFFCURVE",
"564 710 OFFCURVE",
"466 710 CURVE SMOOTH",
"261 710 OFFCURVE",
"113 572 OFFCURVE",
"68 350 CURVE SMOOTH",
"22 127 OFFCURVE",
"103 -10 OFFCURVE",
"314 -10 CURVE SMOOTH"
);
},
{
closed = 1;
nodes = (
"522 785 OFFCURVE",
"546 807 OFFCURVE",
"552 836 CURVE SMOOTH",
"559 866 OFFCURVE",
"543 888 OFFCURVE",
"515 888 CURVE SMOOTH",
"485 888 OFFCURVE",
"463 866 OFFCURVE",
"456 836 CURVE SMOOTH",
"450 807 OFFCURVE",
"464 785 OFFCURVE",
"493 785 CURVE SMOOTH"
);
}
);
width = 660;
}
);
leftKerningGroup = G;
note = Gdotaccent;
unicode = 0120;
},
{
glyphname = Gmacron;
lastChange = "2015-10-27 09:00:37 +0000";
layers = (
{
layerId = "FF1AE41B-C668-46D5-83F9-5511CE68DF10";
name = "Regular Italic";
paths = (
{
closed = 1;
nodes = (
"397 -10 OFFCURVE",
"498 10 OFFCURVE",
"555 49 CURVE",
"607 305 LINE",
"633 309 OFFCURVE",
"662 320 OFFCURVE",
"679 329 CURVE",
"682 340 LINE",
"433 340 LINE",
"430 326 LINE",
"451 318 OFFCURVE",
"477 312 OFFCURVE",
"502 307 CURVE",
"450 55 LINE",
"416 39 OFFCURVE",
"366 32 OFFCURVE",
"340 32 CURVE SMOOTH",
"182 32 OFFCURVE",
"141 162 OFFCURVE",
"180 350 CURVE SMOOTH",
"218 538 OFFCURVE",
"327 668 OFFCURVE",
"485 668 CURVE SMOOTH",
"535 668 OFFCURVE",
"601 652 OFFCURVE",
"627 627 CURVE",
"622 589 OFFCURVE",
"619 539 OFFCURVE",
"622 508 CURVE",
"649 508 LINE",
"686 638 LINE",
"649 682 OFFCURVE",
"564 710 OFFCURVE",
"466 710 CURVE SMOOTH",
"261 710 OFFCURVE",
"113 572 OFFCURVE",
"68 350 CURVE SMOOTH",
"22 127 OFFCURVE",
"103 -10 OFFCURVE",
"314 -10 CURVE SMOOTH"
);
},
{
closed = 1;
nodes = (
"639 785 LINE",
"647 825 LINE",
"310 825 LINE",
"302 785 LINE"
);
}
);
width = 660;
}
);
leftKerningGroup = G;
note = Gmacron;
unicode = 1E20;
},
{
glyphname = H;
lastChange = "2015-10-27 09:00:38 +0000";
layers = (
{
layerId = "FF1AE41B-C668-46D5-83F9-5511CE68DF10";
name = "Regular Italic";
paths = (
{
closed = 1;
nodes = (
"697 0 LINE",
"699 13 LINE",
"675 23 OFFCURVE",
"651 29 OFFCURVE",
"627 33 CURVE",
"756 665 LINE",
"781 668 OFFCURVE",
"810 677 OFFCURVE",
"836 685 CURVE",
"839 700 LINE",
"579 700 LINE",
"576 686 LINE",
"600 678 OFFCURVE",
"623 671 OFFCURVE",
"646 667 CURVE",
"517 34 LINE",
"493 31 OFFCURVE",
"483 29 OFFCURVE",
"439 12 CURVE",
"437 0 LINE"
);
},
{
closed = 1;
nodes = (
"257 0 LINE",
"259 13 LINE",
"236 22 OFFCURVE",
"211 28 OFFCURVE",
"189 33 CURVE",
"318 666 LINE",
"342 669 OFFCURVE",
"352 671 OFFCURVE",
"397 687 CURVE",
"399 700 LINE",
"139 700 LINE",
"136 686 LINE",
"160 677 OFFCURVE",
"184 671 OFFCURVE",
"208 666 CURVE",
"80 34 LINE",
"53 31 OFFCURVE",
"24 23 OFFCURVE",
"0 15 CURVE",
"-3 0 LINE"
);
},
{
closed = 1;
nodes = (
"633 335 LINE",
"640 376 LINE",
"206 376 LINE",
"199 335 LINE"
);
}
);
width = 771;
}
);
note = H;
unicode = 0048;
},
{
glyphname = Hbar;
lastChange = "2015-10-27 09:00:35 +0000";
layers = (
{
layerId = "FF1AE41B-C668-46D5-83F9-5511CE68DF10";
name = "Regular Italic";
paths = (
{
closed = 1;
nodes = (
"697 0 LINE",
"699 13 LINE",
"675 23 OFFCURVE",
"651 29 OFFCURVE",
"627 33 CURVE",
"756 665 LINE",
"781 668 OFFCURVE",
"810 677 OFFCURVE",
"836 685 CURVE",
"839 700 LINE",
"579 700 LINE",
"576 686 LINE",
"600 678 OFFCURVE",
"623 671 OFFCURVE",
"646 667 CURVE",
"517 34 LINE",
"493 31 OFFCURVE",
"483 29 OFFCURVE",
"439 12 CURVE",
"437 0 LINE"
);
},
{
closed = 1;
nodes = (
"257 0 LINE",
"259 13 LINE",
"236 22 OFFCURVE",
"211 28 OFFCURVE",
"189 33 CURVE",
"318 666 LINE",
"342 669 OFFCURVE",
"352 671 OFFCURVE",
"397 687 CURVE",
"399 700 LINE",
"139 700 LINE",
"136 686 LINE",
"160 677 OFFCURVE",
"184 671 OFFCURVE",
"208 666 CURVE",
"80 34 LINE",
"53 31 OFFCURVE",
"24 23 OFFCURVE",
"0 15 CURVE",
"-3 0 LINE"
);
},
{
closed = 1;
nodes = (
"633 335 LINE",
"640 376 LINE",
"206 376 LINE",
"199 335 LINE"
);
},
{
closed = 1;
nodes = (
"780 501 LINE",
"788 541 LINE",
"125 541 LINE",
"117 501 LINE"
);
}
);
width = 771;
}
);
note = Hbar;
unicode = 0126;
},
{
glyphname = Hbrevebelow;
lastChange = "2015-10-27 09:00:36 +0000";
layers = (
{
layerId = "FF1AE41B-C668-46D5-83F9-5511CE68DF10";
name = "Regular Italic";
paths = (
{
closed = 1;
nodes = (
"697 0 LINE",
"699 13 LINE",
"675 23 OFFCURVE",
"651 29 OFFCURVE",
"627 33 CURVE",
"756 665 LINE",
"781 668 OFFCURVE",
"810 677 OFFCURVE",
"836 685 CURVE",
"839 700 LINE",
"579 700 LINE",
"576 686 LINE",
"600 678 OFFCURVE",
"623 671 OFFCURVE",
"646 667 CURVE",
"517 34 LINE",
"493 31 OFFCURVE",
"483 29 OFFCURVE",
"439 12 CURVE",
"437 0 LINE"
);
},
{
closed = 1;
nodes = (
"396 -177 OFFCURVE",
"464 -137 OFFCURVE",
"493 -50 CURVE",
"430 -50 LINE",
"407 -125 OFFCURVE",
"358 -136 OFFCURVE",
"320 -136 CURVE SMOOTH",
"280 -136 OFFCURVE",
"235 -125 OFFCURVE",
"243 -50 CURVE",
"180 -50 LINE",
"173 -137 OFFCURVE",
"226 -177 OFFCURVE",
"311 -177 CURVE SMOOTH"
);
},
{
closed = 1;
nodes = (
"257 0 LINE",
"259 13 LINE",
"236 22 OFFCURVE",
"211 28 OFFCURVE",
"189 33 CURVE",
"318 666 LINE",
"342 669 OFFCURVE",
"352 671 OFFCURVE",
"397 687 CURVE",
"399 700 LINE",
"139 700 LINE",
"136 686 LINE",
"160 677 OFFCURVE",
"184 671 OFFCURVE",
"208 666 CURVE",
"80 34 LINE",
"53 31 OFFCURVE",
"24 23 OFFCURVE",
"0 15 CURVE",
"-3 0 LINE"
);
},
{
closed = 1;
nodes = (
"633 335 LINE",
"640 376 LINE",
"206 376 LINE",
"199 335 LINE"
);
}
);
width = 771;
}
);
note = Hbrevebelow;
unicode = 1E2A;
},
{
glyphname = Hcircumflex;
lastChange = "2015-10-27 09:00:35 +0000";
layers = (
{
layerId = "FF1AE41B-C668-46D5-83F9-5511CE68DF10";
name = "Regular Italic";
paths = (
{
closed = 1;
nodes = (
"697 0 LINE",
"699 13 LINE",
"675 23 OFFCURVE",
"651 29 OFFCURVE",
"627 33 CURVE",
"756 665 LINE",
"781 668 OFFCURVE",
"810 677 OFFCURVE",
"836 685 CURVE",
"839 700 LINE",
"579 700 LINE",
"576 686 LINE",
"600 678 OFFCURVE",
"623 671 OFFCURVE",
"646 667 CURVE",
"517 34 LINE",
"493 31 OFFCURVE",
"483 29 OFFCURVE",
"439 12 CURVE",
"437 0 LINE"
);
},
{
closed = 1;
nodes = (
"257 0 LINE",
"259 13 LINE",
"236 22 OFFCURVE",
"211 28 OFFCURVE",
"189 33 CURVE",
"318 666 LINE",
"342 669 OFFCURVE",
"352 671 OFFCURVE",
"397 687 CURVE",
"399 700 LINE",
"139 700 LINE",
"136 686 LINE",
"160 677 OFFCURVE",
"184 671 OFFCURVE",
"208 666 CURVE",
"80 34 LINE",
"53 31 OFFCURVE",
"24 23 OFFCURVE",
"0 15 CURVE",
"-3 0 LINE"
);
},
{
closed = 1;
nodes = (
"633 335 LINE",
"640 376 LINE",
"206 376 LINE",
"199 335 LINE"
);
},
{
closed = 1;
nodes = (
"434 811 OFFCURVE",
"495 861 OFFCURVE",
"526 897 CURVE",
"531 897 LINE",
"548 861 OFFCURVE",
"588 811 OFFCURVE",
"620 781 CURVE",
"671 818 LINE",
"636 845 OFFCURVE",
"583 908 OFFCURVE",
"564 947 CURVE",
"514 947 LINE",
"480 908 OFFCURVE",
"399 845 OFFCURVE",
"354 818 CURVE",
"391 781 LINE"
);
}
);
width = 771;
}
);
note = Hcircumflex;
unicode = 0124;
},
{
glyphname = Hdotbelow;
lastChange = "2015-10-27 09:00:36 +0000";
layers = (
{
layerId = "FF1AE41B-C668-46D5-83F9-5511CE68DF10";
name = "Regular Italic";
paths = (
{
closed = 1;
nodes = (
"697 0 LINE",
"699 13 LINE",
"675 23 OFFCURVE",
"651 29 OFFCURVE",
"627 33 CURVE",
"756 665 LINE",
"781 668 OFFCURVE",
"810 677 OFFCURVE",
"836 685 CURVE",
"839 700 LINE",
"579 700 LINE",
"576 686 LINE",
"600 678 OFFCURVE",
"623 671 OFFCURVE",
"646 667 CURVE",
"517 34 LINE",
"493 31 OFFCURVE",
"483 29 OFFCURVE",
"439 12 CURVE",
"437 0 LINE"
);
},
{
closed = 1;
nodes = (
"341 -160 OFFCURVE",
"365 -138 OFFCURVE",
"371 -109 CURVE SMOOTH",
"377 -79 OFFCURVE",
"362 -57 OFFCURVE",
"332 -57 CURVE SMOOTH",
"303 -57 OFFCURVE",
"280 -79 OFFCURVE",
"274 -109 CURVE SMOOTH",
"268 -138 OFFCURVE",
"282 -160 OFFCURVE",
"311 -160 CURVE SMOOTH"
);
},
{
closed = 1;
nodes = (
"257 0 LINE",
"259 13 LINE",
"236 22 OFFCURVE",
"211 28 OFFCURVE",
"189 33 CURVE",
"318 666 LINE",
"342 669 OFFCURVE",
"352 671 OFFCURVE",
"397 687 CURVE",
"399 700 LINE",
"139 700 LINE",
"136 686 LINE",
"160 677 OFFCURVE",
"184 671 OFFCURVE",
"208 666 CURVE",
"80 34 LINE",
"53 31 OFFCURVE",
"24 23 OFFCURVE",
"0 15 CURVE",
"-3 0 LINE"
);
},
{
closed = 1;
nodes = (
"633 335 LINE",
"640 376 LINE",
"206 376 LINE",
"199 335 LINE"
);
}
);
width = 771;
}
);
note = Hdotbelow;
unicode = 1E24;
},
{
glyphname = I;
lastChange = "2015-10-27 09:00:37 +0000";
layers = (
{
layerId = "FF1AE41B-C668-46D5-83F9-5511CE68DF10";
name = "Regular Italic";
paths = (
{
closed = 1;
nodes = (
"264 0 LINE",
"266 14 LINE",
"243 22 OFFCURVE",
"216 29 OFFCURVE",
"193 33 CURVE",
"322 666 LINE",
"349 671 OFFCURVE",
"378 677 OFFCURVE",
"403 685 CURVE",
"406 700 LINE",
"141 700 LINE",
"138 686 LINE",
"162 678 OFFCURVE",
"189 670 OFFCURVE",
"212 666 CURVE",
"84 34 LINE",
"56 29 OFFCURVE",
"26 22 OFFCURVE",
"2 15 CURVE",
"-1 0 LINE"
);
}
);
width = 340;
}
);
note = I;
unicode = 0049;
},
{
glyphname = IJ;
lastChange = "2015-10-27 09:00:37 +0000";
layers = (
{
layerId = "FF1AE41B-C668-46D5-83F9-5511CE68DF10";
name = "Regular Italic";
paths = (
{
closed = 1;
nodes = (
"573 -10 OFFCURVE",
"662 41 OFFCURVE",
"684 150 CURVE SMOOTH",
"790 665 LINE",
"816 668 OFFCURVE",
"845 677 OFFCURVE",
"870 685 CURVE",
"873 700 LINE",
"612 700 LINE",
"609 684 LINE",
"628 676 OFFCURVE",
"647 670 OFFCURVE",
"681 665 CURVE",
"575 148 LINE SMOOTH",
"559 67 OFFCURVE",
"507 39 OFFCURVE",
"449 39 CURVE SMOOTH",
"407 39 OFFCURVE",
"371 53 OFFCURVE",
"348 71 CURVE",
"324 42 LINE",
"355 9 OFFCURVE",
"408 -10 OFFCURVE",
"470 -10 CURVE SMOOTH"
);
},
{
closed = 1;
nodes = (
"264 0 LINE",
"266 14 LINE",
"243 22 OFFCURVE",
"216 29 OFFCURVE",
"193 33 CURVE",
"322 666 LINE",
"349 671 OFFCURVE",
"378 677 OFFCURVE",
"403 685 CURVE",
"406 700 LINE",
"141 700 LINE",
"138 686 LINE",
"162 678 OFFCURVE",
"189 670 OFFCURVE",
"212 666 CURVE",
"84 34 LINE",
"56 29 OFFCURVE",
"26 22 OFFCURVE",
"2 15 CURVE",
"-1 0 LINE"
);
}
);
width = 804;
}
);
note = IJ;
rightKerningGroup = J;
unicode = 0132;
},
{
glyphname = Iacute;
lastChange = "2015-10-27 09:00:37 +0000";
layers = (
{
layerId = "FF1AE41B-C668-46D5-83F9-5511CE68DF10";
name = "Regular Italic";
paths = (
{
closed = 1;
nodes = (
"264 0 LINE",
"266 14 LINE",
"243 22 OFFCURVE",
"216 29 OFFCURVE",
"193 33 CURVE",
"322 666 LINE",
"349 671 OFFCURVE",
"378 677 OFFCURVE",
"403 685 CURVE",
"406 700 LINE",
"141 700 LINE",
"138 686 LINE",
"162 678 OFFCURVE",
"189 670 OFFCURVE",
"212 666 CURVE",
"84 34 LINE",
"56 29 OFFCURVE",
"26 22 OFFCURVE",
"2 15 CURVE",
"-1 0 LINE"
);
},
{
closed = 1;
nodes = (
"370 872 LINE SMOOTH",
"396 887 OFFCURVE",
"412 902 OFFCURVE",
"416 921 CURVE",
"420 936 OFFCURVE",
"411 953 OFFCURVE",
"387 953 CURVE SMOOTH",
"362 953 OFFCURVE",
"340 933 OFFCURVE",
"332 926 CURVE",
"197 813 LINE",
"210 786 LINE"
);
}
);
width = 340;
}
);
note = Iacute;
unicode = 00CD;
},
{
glyphname = Ibreve;
lastChange = "2015-10-27 09:00:36 +0000";
layers = (
{
layerId = "FF1AE41B-C668-46D5-83F9-5511CE68DF10";
name = "Regular Italic";
paths = (
{
closed = 1;
nodes = (
"264 0 LINE",
"266 14 LINE",
"243 22 OFFCURVE",
"216 29 OFFCURVE",
"193 33 CURVE",
"322 666 LINE",
"349 671 OFFCURVE",
"378 677 OFFCURVE",
"403 685 CURVE",
"406 700 LINE",
"141 700 LINE",
"138 686 LINE",
"162 678 OFFCURVE",
"189 670 OFFCURVE",
"212 666 CURVE",
"84 34 LINE",
"56 29 OFFCURVE",
"26 22 OFFCURVE",
"2 15 CURVE",
"-1 0 LINE"
);
},
{
closed = 1;
nodes = (
"374 779 OFFCURVE",
"444 819 OFFCURVE",
"472 906 CURVE",
"409 906 LINE",
"386 831 OFFCURVE",
"337 821 OFFCURVE",
"298 821 CURVE SMOOTH",
"258 821 OFFCURVE",
"213 831 OFFCURVE",
"221 906 CURVE",
"158 906 LINE",
"153 819 OFFCURVE",
"204 779 OFFCURVE",
"289 779 CURVE SMOOTH"
);
}
);
width = 340;
}
);
note = Ibreve;
unicode = 012C;
},
{
glyphname = Icaron;
lastChange = "2015-10-27 09:00:37 +0000";
layers = (
{
layerId = "FF1AE41B-C668-46D5-83F9-5511CE68DF10";
name = "Regular Italic";
paths = (
{
closed = 1;
nodes = (
"264 0 LINE",
"266 14 LINE",
"243 22 OFFCURVE",
"216 29 OFFCURVE",
"193 33 CURVE",
"322 666 LINE",
"349 671 OFFCURVE",
"378 677 OFFCURVE",
"403 685 CURVE",
"406 700 LINE",
"141 700 LINE",
"138 686 LINE",
"162 678 OFFCURVE",
"189 670 OFFCURVE",
"212 666 CURVE",
"84 34 LINE",
"56 29 OFFCURVE",
"26 22 OFFCURVE",
"2 15 CURVE",
"-1 0 LINE"
);
},
{
closed = 1;
nodes = (
"316 786 LINE",
"349 826 OFFCURVE",
"429 888 OFFCURVE",
"475 916 CURVE",
"439 952 LINE",
"396 923 OFFCURVE",
"334 873 OFFCURVE",
"302 837 CURVE",
"298 837 LINE",
"281 873 OFFCURVE",
"241 923 OFFCURVE",
"209 952 CURVE",
"158 916 LINE",
"192 888 OFFCURVE",
"247 826 OFFCURVE",
"265 786 CURVE"
);
}
);
width = 340;
}
);
note = Icaron;
unicode = 01CF;
},
{
glyphname = Icircumflex;
lastChange = "2015-10-27 09:00:36 +0000";
layers = (
{
layerId = "FF1AE41B-C668-46D5-83F9-5511CE68DF10";
name = "Regular Italic";
paths = (
{
closed = 1;
nodes = (
"264 0 LINE",
"266 14 LINE",
"243 22 OFFCURVE",
"216 29 OFFCURVE",
"193 33 CURVE",
"322 666 LINE",
"349 671 OFFCURVE",
"378 677 OFFCURVE",
"403 685 CURVE",
"406 700 LINE",
"141 700 LINE",
"138 686 LINE",
"162 678 OFFCURVE",
"189 670 OFFCURVE",
"212 666 CURVE",
"84 34 LINE",
"56 29 OFFCURVE",
"26 22 OFFCURVE",
"2 15 CURVE",
"-1 0 LINE"
);
},
{
closed = 1;
nodes = (
"218 811 OFFCURVE",
"279 861 OFFCURVE",
"310 897 CURVE",
"315 897 LINE",
"332 861 OFFCURVE",
"372 811 OFFCURVE",
"404 781 CURVE",
"455 818 LINE",
"420 845 OFFCURVE",
"367 908 OFFCURVE",
"348 947 CURVE",
"298 947 LINE",
"264 908 OFFCURVE",
"183 845 OFFCURVE",
"138 818 CURVE",
"175 781 LINE"
);
}
);
width = 340;
}
);
note = Icircumflex;
unicode = 00CE;
},
{
glyphname = Idieresis;
lastChange = "2015-10-27 09:00:36 +0000";
layers = (
{
layerId = "FF1AE41B-C668-46D5-83F9-5511CE68DF10";
name = "Regular Italic";
paths = (
{
closed = 1;
nodes = (
"264 0 LINE",
"266 14 LINE",
"243 22 OFFCURVE",
"216 29 OFFCURVE",
"193 33 CURVE",
"322 666 LINE",
"349 671 OFFCURVE",
"378 677 OFFCURVE",
"403 685 CURVE",
"406 700 LINE",
"141 700 LINE",
"138 686 LINE",
"162 678 OFFCURVE",
"189 670 OFFCURVE",
"212 666 CURVE",
"84 34 LINE",
"56 29 OFFCURVE",
"26 22 OFFCURVE",
"2 15 CURVE",
"-1 0 LINE"
);
},
{
closed = 1;
nodes = (
"210 785 OFFCURVE",
"234 807 OFFCURVE",
"240 836 CURVE SMOOTH",
"247 866 OFFCURVE",
"231 888 OFFCURVE",
"202 888 CURVE SMOOTH",
"173 888 OFFCURVE",
"151 866 OFFCURVE",
"144 836 CURVE SMOOTH",
"138 807 OFFCURVE",
"153 785 OFFCURVE",
"180 785 CURVE SMOOTH"
);
},
{
closed = 1;
nodes = (
"427 785 OFFCURVE",
"451 807 OFFCURVE",
"457 836 CURVE SMOOTH",
"464 866 OFFCURVE",
"448 888 OFFCURVE",
"420 888 CURVE SMOOTH",
"390 888 OFFCURVE",
"368 866 OFFCURVE",
"361 836 CURVE SMOOTH",
"355 807 OFFCURVE",
"369 785 OFFCURVE",
"398 785 CURVE SMOOTH"
);
}
);
width = 340;
}
);
note = Idieresis;
unicode = 00CF;
},
{
glyphname = Idotaccent;
lastChange = "2015-10-27 09:00:35 +0000";
layers = (
{
layerId = "FF1AE41B-C668-46D5-83F9-5511CE68DF10";
name = "Regular Italic";
paths = (
{
closed = 1;
nodes = (
"264 0 LINE",
"266 14 LINE",
"243 22 OFFCURVE",
"216 29 OFFCURVE",
"193 33 CURVE",
"322 666 LINE",
"349 671 OFFCURVE",
"378 677 OFFCURVE",
"403 685 CURVE",
"406 700 LINE",
"141 700 LINE",
"138 686 LINE",
"162 678 OFFCURVE",
"189 670 OFFCURVE",
"212 666 CURVE",
"84 34 LINE",
"56 29 OFFCURVE",
"26 22 OFFCURVE",
"2 15 CURVE",
"-1 0 LINE"
);
},
{
closed = 1;
nodes = (
"318 785 OFFCURVE",
"342 807 OFFCURVE",
"348 836 CURVE SMOOTH",
"354 866 OFFCURVE",
"339 888 OFFCURVE",
"310 888 CURVE SMOOTH",
"280 888 OFFCURVE",
"258 866 OFFCURVE",
"252 836 CURVE SMOOTH",
"246 807 OFFCURVE",
"259 785 OFFCURVE",
"289 785 CURVE SMOOTH"
);
}
);
width = 340;
}
);
note = Idotaccent;
unicode = 0130;
},
{
glyphname = Idotbelow;
lastChange = "2015-10-27 09:00:36 +0000";
layers = (
{
layerId = "FF1AE41B-C668-46D5-83F9-5511CE68DF10";
name = "Regular Italic";
paths = (
{
closed = 1;
nodes = (
"264 0 LINE",
"266 14 LINE",
"243 22 OFFCURVE",
"216 29 OFFCURVE",
"193 33 CURVE",
"322 666 LINE",
"349 671 OFFCURVE",
"378 677 OFFCURVE",
"403 685 CURVE",
"406 700 LINE",
"141 700 LINE",
"138 686 LINE",
"162 678 OFFCURVE",
"189 670 OFFCURVE",
"212 666 CURVE",
"84 34 LINE",
"56 29 OFFCURVE",
"26 22 OFFCURVE",
"2 15 CURVE",
"-1 0 LINE"
);
},
{
closed = 1;
nodes = (
"128 -160 OFFCURVE",
"152 -138 OFFCURVE",
"157 -109 CURVE SMOOTH",
"164 -79 OFFCURVE",
"149 -57 OFFCURVE",
"119 -57 CURVE SMOOTH",
"90 -57 OFFCURVE",
"67 -79 OFFCURVE",
"60 -109 CURVE SMOOTH",
"55 -138 OFFCURVE",
"69 -160 OFFCURVE",
"98 -160 CURVE SMOOTH"
);
}
);
width = 340;
}
);
note = Idotbelow;
unicode = 1ECA;
},
{
glyphname = Igrave;
lastChange = "2015-10-27 09:00:37 +0000";
layers = (
{
layerId = "FF1AE41B-C668-46D5-83F9-5511CE68DF10";
name = "Regular Italic";
paths = (
{
closed = 1;
nodes = (
"264 0 LINE",
"266 14 LINE",
"243 22 OFFCURVE",
"216 29 OFFCURVE",
"193 33 CURVE",
"322 666 LINE",
"349 671 OFFCURVE",
"378 677 OFFCURVE",
"403 685 CURVE",
"406 700 LINE",
"141 700 LINE",
"138 686 LINE",
"162 678 OFFCURVE",
"189 670 OFFCURVE",
"212 666 CURVE",
"84 34 LINE",
"56 29 OFFCURVE",
"26 22 OFFCURVE",
"2 15 CURVE",
"-1 0 LINE"
);
},
{
closed = 1;
nodes = (
"395 813 LINE",
"305 927 LINE SMOOTH",
"299 935 OFFCURVE",
"285 953 OFFCURVE",
"262 953 CURVE SMOOTH",
"237 953 OFFCURVE",
"223 936 OFFCURVE",
"219 921 CURVE",
"215 902 OFFCURVE",
"226 887 OFFCURVE",
"247 872 CURVE SMOOTH",
"372 786 LINE"
);
}
);
width = 340;
}
);
note = Igrave;
unicode = 00CC;
},
{
glyphname = Ihookabove;
lastChange = "2015-10-27 09:00:37 +0000";
layers = (
{
layerId = "FF1AE41B-C668-46D5-83F9-5511CE68DF10";
name = "Regular Italic";
paths = (
{
closed = 1;
nodes = (
"264 0 LINE",
"266 14 LINE",
"243 22 OFFCURVE",
"216 29 OFFCURVE",
"193 33 CURVE",
"322 666 LINE",
"349 671 OFFCURVE",
"378 677 OFFCURVE",
"403 685 CURVE",
"406 700 LINE",
"141 700 LINE",
"138 686 LINE",
"162 678 OFFCURVE",
"189 670 OFFCURVE",
"212 666 CURVE",
"84 34 LINE",
"56 29 OFFCURVE",
"26 22 OFFCURVE",
"2 15 CURVE",
"-1 0 LINE"
);
},
{
closed = 1;
nodes = (
"318 781 LINE",
"341 847 LINE",
"393 852 OFFCURVE",
"431 875 OFFCURVE",
"441 926 CURVE SMOOTH",
"453 985 OFFCURVE",
"408 1009 OFFCURVE",
"357 1009 CURVE SMOOTH",
"327 1009 OFFCURVE",
"297 1001 OFFCURVE",
"276 992 CURVE",
"276 959 LINE",
"298 970 OFFCURVE",
"320 975 OFFCURVE",
"336 975 CURVE SMOOTH",
"374 975 OFFCURVE",
"390 953 OFFCURVE",
"384 928 CURVE SMOOTH",
"377 894 OFFCURVE",
"349 876 OFFCURVE",
"315 876 CURVE SMOOTH",
"287 876 LINE",
"273 781 LINE"
);
}
);
width = 340;
}
);
note = Ihookabove;
unicode = 1EC8;
},
{
glyphname = Imacron;
lastChange = "2015-10-27 09:00:37 +0000";
layers = (
{
layerId = "FF1AE41B-C668-46D5-83F9-5511CE68DF10";
name = "Regular Italic";
paths = (
{
closed = 1;
nodes = (
"264 0 LINE",
"266 14 LINE",
"243 22 OFFCURVE",
"216 29 OFFCURVE",
"193 33 CURVE",
"322 666 LINE",
"349 671 OFFCURVE",
"378 677 OFFCURVE",
"403 685 CURVE",
"406 700 LINE",
"141 700 LINE",
"138 686 LINE",
"162 678 OFFCURVE",
"189 670 OFFCURVE",
"212 666 CURVE",
"84 34 LINE",
"56 29 OFFCURVE",
"26 22 OFFCURVE",
"2 15 CURVE",
"-1 0 LINE"
);
},
{
closed = 1;
nodes = (
"472 785 LINE",
"481 825 LINE",
"118 825 LINE",
"109 785 LINE"
);
}
);
width = 340;
}
);
note = Imacron;
unicode = 012A;
},
{
glyphname = Iogonek;
lastChange = "2015-10-27 09:00:37 +0000";
layers = (
{
layerId = "FF1AE41B-C668-46D5-83F9-5511CE68DF10";
name = "Regular Italic";
paths = (
{
closed = 1;
nodes = (
"264 0 LINE",
"266 14 LINE",
"243 22 OFFCURVE",
"216 29 OFFCURVE",
"193 33 CURVE",
"322 666 LINE",
"349 671 OFFCURVE",
"378 677 OFFCURVE",
"403 685 CURVE",
"406 700 LINE",
"141 700 LINE",
"138 686 LINE",
"162 678 OFFCURVE",
"189 670 OFFCURVE",
"212 666 CURVE",
"84 34 LINE",
"56 29 OFFCURVE",
"26 22 OFFCURVE",
"2 15 CURVE",
"-1 0 LINE"
);
},
{
closed = 1;
nodes = (
"208 -193 OFFCURVE",
"241 -186 OFFCURVE",
"267 -173 CURVE",
"276 -125 LINE",
"254 -136 OFFCURVE",
"234 -141 OFFCURVE",
"218 -141 CURVE SMOOTH",
"184 -141 OFFCURVE",
"162 -123 OFFCURVE",
"169 -90 CURVE SMOOTH",
"177 -55 OFFCURVE",
"210 -19 OFFCURVE",
"244 0 CURVE",
"189 0 LINE",
"132 -19 OFFCURVE",
"93 -65 OFFCURVE",
"84 -110 CURVE SMOOTH",
"74 -156 OFFCURVE",
"104 -193 OFFCURVE",
"174 -193 CURVE SMOOTH"
);
}
);
width = 340;
}
);
note = Iogonek;
unicode = 012E;
},
{
glyphname = Itilde;
lastChange = "2015-10-27 09:00:36 +0000";
layers = (
{
layerId = "FF1AE41B-C668-46D5-83F9-5511CE68DF10";
name = "Regular Italic";
paths = (
{
closed = 1;
nodes = (
"264 0 LINE",
"266 14 LINE",
"243 22 OFFCURVE",
"216 29 OFFCURVE",
"193 33 CURVE",
"322 666 LINE",
"349 671 OFFCURVE",
"378 677 OFFCURVE",
"403 685 CURVE",
"406 700 LINE",
"141 700 LINE",
"138 686 LINE",
"162 678 OFFCURVE",
"189 670 OFFCURVE",
"212 666 CURVE",
"84 34 LINE",
"56 29 OFFCURVE",
"26 22 OFFCURVE",
"2 15 CURVE",
"-1 0 LINE"
);
},
{
closed = 1;
nodes = (
"156 786 LINE",
"170 820 OFFCURVE",
"200 842 OFFCURVE",
"228 842 CURVE SMOOTH",
"266 842 OFFCURVE",
"312 787 OFFCURVE",
"363 787 CURVE SMOOTH",
"425 787 OFFCURVE",
"465 830 OFFCURVE",
"486 896 CURVE",
"450 896 LINE",
"432 852 OFFCURVE",
"401 838 OFFCURVE",
"374 838 CURVE SMOOTH",
"335 838 OFFCURVE",
"300 892 OFFCURVE",
"241 892 CURVE SMOOTH",
"185 892 OFFCURVE",
"142 858 OFFCURVE",
"118 786 CURVE"
);
}
);
width = 340;
}
);
note = Itilde;
unicode = 0128;
},
{
glyphname = J;
lastChange = "2015-10-27 09:00:36 +0000";
layers = (
{
layerId = "FF1AE41B-C668-46D5-83F9-5511CE68DF10";
name = "Regular Italic";
paths = (
{
closed = 1;
nodes = (
"238 -10 OFFCURVE",
"327 41 OFFCURVE",
"349 150 CURVE SMOOTH",
"455 665 LINE",
"481 668 OFFCURVE",
"510 677 OFFCURVE",
"535 685 CURVE",
"538 700 LINE",
"276 700 LINE",
"274 684 LINE",
"293 676 OFFCURVE",
"312 670 OFFCURVE",
"346 665 CURVE",
"240 148 LINE SMOOTH",
"224 67 OFFCURVE",
"172 39 OFFCURVE",
"114 39 CURVE SMOOTH",
"72 39 OFFCURVE",
"36 53 OFFCURVE",
"12 71 CURVE",
"-12 42 LINE",
"20 9 OFFCURVE",
"73 -10 OFFCURVE",
"135 -10 CURVE SMOOTH"
);
}
);
width = 469;
}
);
leftKerningGroup = J;
note = J;
rightKerningGroup = J;
unicode = 004A;
},
{
glyphname = Jcircumflex;
lastChange = "2015-10-27 09:00:37 +0000";
layers = (
{
layerId = "FF1AE41B-C668-46D5-83F9-5511CE68DF10";
name = "Regular Italic";
paths = (
{
closed = 1;
nodes = (
"238 -10 OFFCURVE",
"327 41 OFFCURVE",
"349 150 CURVE SMOOTH",
"455 665 LINE",
"481 668 OFFCURVE",
"510 677 OFFCURVE",
"535 685 CURVE",
"538 700 LINE",
"276 700 LINE",
"274 684 LINE",
"293 676 OFFCURVE",
"312 670 OFFCURVE",
"346 665 CURVE",
"240 148 LINE SMOOTH",
"224 67 OFFCURVE",
"172 39 OFFCURVE",
"114 39 CURVE SMOOTH",
"72 39 OFFCURVE",
"36 53 OFFCURVE",
"12 71 CURVE",
"-12 42 LINE",
"20 9 OFFCURVE",
"73 -10 OFFCURVE",
"135 -10 CURVE SMOOTH"
);
},
{
closed = 1;
nodes = (
"351 811 OFFCURVE",
"413 861 OFFCURVE",
"444 897 CURVE",
"448 897 LINE",
"466 861 OFFCURVE",
"506 811 OFFCURVE",
"538 781 CURVE",
"588 818 LINE",
"554 845 OFFCURVE",
"500 908 OFFCURVE",
"482 947 CURVE",
"431 947 LINE",
"397 908 OFFCURVE",
"317 845 OFFCURVE",
"272 818 CURVE",
"308 781 LINE"
);
}
);
width = 469;
}
);
leftKerningGroup = J;
note = Jcircumflex;
rightKerningGroup = J;
unicode = 0134;
},
{
glyphname = K;
lastChange = "2015-10-27 09:00:35 +0000";
layers = (
{
layerId = "FF1AE41B-C668-46D5-83F9-5511CE68DF10";
name = "Regular Italic";
paths = (
{
closed = 1;
nodes = (
"261 0 LINE",
"263 14 LINE",
"240 22 OFFCURVE",
"214 29 OFFCURVE",
"190 33 CURVE",
"319 666 LINE",
"347 671 OFFCURVE",
"374 677 OFFCURVE",
"400 685 CURVE",
"403 700 LINE",
"139 700 LINE",
"136 686 LINE",
"159 677 OFFCURVE",
"186 671 OFFCURVE",
"209 666 CURVE",
"81 34 LINE",
"66 32 OFFCURVE",
"26 23 OFFCURVE",
"0 15 CURVE",
"-3 0 LINE"
);
},
{
closed = 1;
nodes = (
"683 0 LINE",
"684 14 LINE",
"656 23 OFFCURVE",
"629 29 OFFCURVE",
"608 33 CURVE",
"396 426 LINE",
"318 356 LINE",
"509 0 LINE"
);
},
{
closed = 1;
nodes = (
"678 661 LINE",
"702 675 OFFCURVE",
"726 676 OFFCURVE",
"748 681 CURVE",
"752 700 LINE",
"548 700 LINE",
"544 681 LINE",
"566 675 OFFCURVE",
"604 673 OFFCURVE",
"614 661 CURVE",
"208 292 LINE",
"194 223 LINE"
);
}
);
width = 729;
}
);
note = K;
rightKerningGroup = K;
unicode = 004B;
},
{
glyphname = Kcommaaccent;
lastChange = "2015-10-27 09:00:37 +0000";
layers = (
{
layerId = "FF1AE41B-C668-46D5-83F9-5511CE68DF10";
name = "Regular Italic";
paths = (
{
closed = 1;
nodes = (
"261 0 LINE",
"263 14 LINE",
"240 22 OFFCURVE",
"214 29 OFFCURVE",
"190 33 CURVE",
"319 666 LINE",
"347 671 OFFCURVE",
"374 677 OFFCURVE",
"400 685 CURVE",
"403 700 LINE",
"139 700 LINE",
"136 686 LINE",
"159 677 OFFCURVE",
"186 671 OFFCURVE",
"209 666 CURVE",
"81 34 LINE",
"66 32 OFFCURVE",
"26 23 OFFCURVE",
"0 15 CURVE",
"-3 0 LINE"
);
},
{
closed = 1;
nodes = (
"317 -281 OFFCURVE",
"365 -205 OFFCURVE",
"377 -143 CURVE SMOOTH",
"385 -104 OFFCURVE",
"374 -73 OFFCURVE",
"329 -73 CURVE SMOOTH",
"300 -73 OFFCURVE",
"267 -92 OFFCURVE",
"259 -128 CURVE SMOOTH",
"252 -166 OFFCURVE",
"272 -183 OFFCURVE",
"309 -183 CURVE",
"296 -225 OFFCURVE",
"263 -268 OFFCURVE",
"233 -295 CURVE",
"263 -324 LINE"
);
},
{
closed = 1;
nodes = (
"683 0 LINE",
"684 14 LINE",
"656 23 OFFCURVE",
"629 29 OFFCURVE",
"608 33 CURVE",
"396 426 LINE",
"318 356 LINE",
"509 0 LINE"
);
},
{
closed = 1;
nodes = (
"678 661 LINE",
"702 675 OFFCURVE",
"726 676 OFFCURVE",
"748 681 CURVE",
"752 700 LINE",
"548 700 LINE",
"544 681 LINE",
"566 675 OFFCURVE",
"604 673 OFFCURVE",
"614 661 CURVE",
"208 292 LINE",
"194 223 LINE"
);
}
);
width = 729;
}
);
note = Kcommaaccent;
rightKerningGroup = K;
unicode = 0136;
},
{
glyphname = L;
lastChange = "2015-10-27 09:00:36 +0000";
layers = (
{
layerId = "FF1AE41B-C668-46D5-83F9-5511CE68DF10";
name = "Regular Italic";
paths = (
{
closed = 1;
nodes = (
"501 0 LINE",
"546 155 LINE",
"522 155 LINE",
"505 135 OFFCURVE",
"468 72 OFFCURVE",
"459 40 CURVE",
"196 40 LINE",
"324 666 LINE",
"350 671 OFFCURVE",
"378 677 OFFCURVE",
"404 685 CURVE",
"407 700 LINE",
"143 700 LINE",
"140 686 LINE",
"164 677 OFFCURVE",
"190 671 OFFCURVE",
"214 666 CURVE",
"85 33 LINE",
"53 29 OFFCURVE",
"24 22 OFFCURVE",
"-1 14 CURVE",
"-3 0 LINE"
);
}
);
width = 593;
}
);
note = L;
rightKerningGroup = L;
unicode = 004C;
},
{
glyphname = Lacute;
lastChange = "2015-10-27 09:00:36 +0000";
layers = (
{
layerId = "FF1AE41B-C668-46D5-83F9-5511CE68DF10";
name = "Regular Italic";
paths = (
{
closed = 1;
nodes = (
"501 0 LINE",
"546 155 LINE",
"522 155 LINE",
"505 135 OFFCURVE",
"468 72 OFFCURVE",
"459 40 CURVE",
"196 40 LINE",
"324 666 LINE",
"350 671 OFFCURVE",
"378 677 OFFCURVE",
"404 685 CURVE",
"407 700 LINE",
"143 700 LINE",
"140 686 LINE",
"164 677 OFFCURVE",
"190 671 OFFCURVE",
"214 666 CURVE",
"85 33 LINE",
"53 29 OFFCURVE",
"24 22 OFFCURVE",
"-1 14 CURVE",
"-3 0 LINE"
);
},
{
closed = 1;
nodes = (
"411 872 LINE SMOOTH",
"438 887 OFFCURVE",
"453 902 OFFCURVE",
"457 921 CURVE",
"461 936 OFFCURVE",
"452 953 OFFCURVE",
"428 953 CURVE SMOOTH",
"403 953 OFFCURVE",
"381 933 OFFCURVE",
"373 926 CURVE",
"238 813 LINE",
"252 786 LINE"
);
}
);
width = 593;
}
);
note = Lacute;
rightKerningGroup = L;
unicode = 0139;
},
{
glyphname = Lcaron;
lastChange = "2015-10-27 09:00:37 +0000";
layers = (
{
layerId = "FF1AE41B-C668-46D5-83F9-5511CE68DF10";
name = "Regular Italic";
paths = (
{
closed = 1;
nodes = (
"501 0 LINE",
"546 155 LINE",
"522 155 LINE",
"505 135 OFFCURVE",
"468 72 OFFCURVE",
"459 40 CURVE",
"196 40 LINE",
"324 666 LINE",
"350 671 OFFCURVE",
"378 677 OFFCURVE",
"404 685 CURVE",
"407 700 LINE",
"143 700 LINE",
"140 686 LINE",
"164 677 OFFCURVE",
"190 671 OFFCURVE",
"214 666 CURVE",
"85 33 LINE",
"53 29 OFFCURVE",
"24 22 OFFCURVE",
"-1 14 CURVE",
"-3 0 LINE"
);
},
{
closed = 1;
nodes = (
"544 495 OFFCURVE",
"595 572 OFFCURVE",
"608 634 CURVE SMOOTH",
"615 672 OFFCURVE",
"607 710 OFFCURVE",
"557 710 CURVE SMOOTH",
"516 710 OFFCURVE",
"492 681 OFFCURVE",
"485 649 CURVE SMOOTH",
"476 606 OFFCURVE",
"507 593 OFFCURVE",
"531 593 CURVE SMOOTH",
"537 593 LINE",
"523 551 OFFCURVE",
"489 508 OFFCURVE",
"461 481 CURVE",
"491 452 LINE"
);
}
);
width = 593;
}
);
note = Lcaron;
rightKerningGroup = L;
unicode = 013D;
},
{
glyphname = Lcommaaccent;
lastChange = "2015-10-27 09:00:36 +0000";
layers = (
{
layerId = "FF1AE41B-C668-46D5-83F9-5511CE68DF10";
name = "Regular Italic";
paths = (
{
closed = 1;
nodes = (
"501 0 LINE",
"546 155 LINE",
"522 155 LINE",
"505 135 OFFCURVE",
"468 72 OFFCURVE",
"459 40 CURVE",
"196 40 LINE",
"324 666 LINE",
"350 671 OFFCURVE",
"378 677 OFFCURVE",
"404 685 CURVE",
"407 700 LINE",
"143 700 LINE",
"140 686 LINE",
"164 677 OFFCURVE",
"190 671 OFFCURVE",
"214 666 CURVE",
"85 33 LINE",
"53 29 OFFCURVE",
"24 22 OFFCURVE",
"-1 14 CURVE",
"-3 0 LINE"
);
},
{
closed = 1;
nodes = (
"246 -281 OFFCURVE",
"294 -205 OFFCURVE",
"306 -143 CURVE SMOOTH",
"314 -104 OFFCURVE",
"303 -73 OFFCURVE",
"258 -73 CURVE SMOOTH",
"228 -73 OFFCURVE",
"196 -92 OFFCURVE",
"188 -128 CURVE SMOOTH",
"180 -166 OFFCURVE",
"201 -183 OFFCURVE",
"238 -183 CURVE",
"225 -225 OFFCURVE",
"192 -268 OFFCURVE",
"162 -295 CURVE",
"192 -324 LINE"
);
}
);
width = 593;
}
);
note = Lcommaaccent;
rightKerningGroup = L;
unicode = 013B;
},
{
glyphname = Ldot;
lastChange = "2015-10-27 09:00:35 +0000";
layers = (
{
layerId = "FF1AE41B-C668-46D5-83F9-5511CE68DF10";
name = "Regular Italic";
paths = (
{
closed = 1;
nodes = (
"501 0 LINE",
"546 155 LINE",
"522 155 LINE",
"505 135 OFFCURVE",
"468 72 OFFCURVE",
"459 40 CURVE",
"196 40 LINE",
"324 666 LINE",
"350 671 OFFCURVE",
"378 677 OFFCURVE",
"404 685 CURVE",
"407 700 LINE",
"143 700 LINE",
"140 686 LINE",
"164 677 OFFCURVE",
"190 671 OFFCURVE",
"214 666 CURVE",
"85 33 LINE",
"53 29 OFFCURVE",
"24 22 OFFCURVE",
"-1 14 CURVE",
"-3 0 LINE"
);
},
{
closed = 1;
nodes = (
"461 330 OFFCURVE",
"484 351 OFFCURVE",
"490 381 CURVE",
"496 410 OFFCURVE",
"481 432 OFFCURVE",
"451 432 CURVE SMOOTH",
"422 432 OFFCURVE",
"399 410 OFFCURVE",
"393 381 CURVE",
"387 351 OFFCURVE",
"402 330 OFFCURVE",
"431 330 CURVE SMOOTH"
);
}
);
width = 593;
}
);
note = Ldot;
rightKerningGroup = L;
unicode = 013F;
},
{
glyphname = Ldotbelow;
lastChange = "2015-10-27 09:00:35 +0000";
layers = (
{
layerId = "FF1AE41B-C668-46D5-83F9-5511CE68DF10";
name = "Regular Italic";
paths = (
{
closed = 1;
nodes = (
"501 0 LINE",
"546 155 LINE",
"522 155 LINE",
"505 135 OFFCURVE",
"468 72 OFFCURVE",
"459 40 CURVE",
"196 40 LINE",
"324 666 LINE",
"350 671 OFFCURVE",
"378 677 OFFCURVE",
"404 685 CURVE",
"407 700 LINE",
"143 700 LINE",
"140 686 LINE",
"164 677 OFFCURVE",
"190 671 OFFCURVE",
"214 666 CURVE",
"85 33 LINE",
"53 29 OFFCURVE",
"24 22 OFFCURVE",
"-1 14 CURVE",
"-3 0 LINE"
);
},
{
closed = 1;
nodes = (
"275 -154 OFFCURVE",
"298 -133 OFFCURVE",
"304 -103 CURVE SMOOTH",
"310 -74 OFFCURVE",
"295 -52 OFFCURVE",
"266 -52 CURVE SMOOTH",
"236 -52 OFFCURVE",
"214 -74 OFFCURVE",
"208 -103 CURVE SMOOTH",
"202 -133 OFFCURVE",
"216 -154 OFFCURVE",
"246 -154 CURVE SMOOTH"
);
}
);
width = 593;
}
);
note = Ldotbelow;
rightKerningGroup = L;
unicode = 1E36;
},
{
glyphname = Ldotbelowmacron;
lastChange = "2015-10-27 09:00:35 +0000";
layers = (
{
layerId = "FF1AE41B-C668-46D5-83F9-5511CE68DF10";
name = "Regular Italic";
paths = (
{
closed = 1;
nodes = (
"501 0 LINE",
"546 155 LINE",
"522 155 LINE",
"505 135 OFFCURVE",
"468 72 OFFCURVE",
"459 40 CURVE",
"196 40 LINE",
"324 666 LINE",
"350 671 OFFCURVE",
"378 677 OFFCURVE",
"404 685 CURVE",
"407 700 LINE",
"143 700 LINE",
"140 686 LINE",
"164 677 OFFCURVE",
"190 671 OFFCURVE",
"214 666 CURVE",
"85 33 LINE",
"53 29 OFFCURVE",
"24 22 OFFCURVE",
"-1 14 CURVE",
"-3 0 LINE"
);
},
{
closed = 1;
nodes = (
"274 -154 OFFCURVE",
"297 -133 OFFCURVE",
"303 -103 CURVE SMOOTH",
"309 -74 OFFCURVE",
"294 -52 OFFCURVE",
"264 -52 CURVE SMOOTH",
"235 -52 OFFCURVE",
"212 -74 OFFCURVE",
"206 -103 CURVE SMOOTH",
"200 -133 OFFCURVE",
"215 -154 OFFCURVE",
"244 -154 CURVE SMOOTH"
);
},
{
closed = 1;
nodes = (
"461 785 LINE",
"469 824 LINE",
"132 824 LINE",
"123 785 LINE"
);
}
);
width = 593;
}
);
note = Ldotbelowmacron;
rightKerningGroup = L;
unicode = 1E38;
},
{
glyphname = Llinebelow;
lastChange = "2015-10-27 09:00:36 +0000";
layers = (
{
layerId = "FF1AE41B-C668-46D5-83F9-5511CE68DF10";
name = "Regular Italic";
paths = (
{
closed = 1;
nodes = (
"501 0 LINE",
"546 155 LINE",
"522 155 LINE",
"505 135 OFFCURVE",
"468 72 OFFCURVE",
"459 40 CURVE",
"196 40 LINE",
"324 666 LINE",
"350 671 OFFCURVE",
"378 677 OFFCURVE",
"404 685 CURVE",
"407 700 LINE",
"143 700 LINE",
"140 686 LINE",
"164 677 OFFCURVE",
"190 671 OFFCURVE",
"214 666 CURVE",
"85 33 LINE",
"53 29 OFFCURVE",
"24 22 OFFCURVE",
"-1 14 CURVE",
"-3 0 LINE"
);
},
{
closed = 1;
nodes = (
"410 -105 LINE",
"418 -66 LINE",
"81 -66 LINE",
"73 -105 LINE"
);
}
);
width = 593;
}
);
note = Llinebelow;
rightKerningGroup = L;
unicode = 1E3A;
},
{
glyphname = Lslash;
lastChange = "2015-10-27 09:00:36 +0000";
layers = (
{
layerId = "FF1AE41B-C668-46D5-83F9-5511CE68DF10";
name = "Regular Italic";
paths = (
{
closed = 1;
nodes = (
"501 0 LINE",
"546 155 LINE",
"522 155 LINE",
"505 135 OFFCURVE",
"468 72 OFFCURVE",
"459 40 CURVE",
"196 40 LINE",
"324 666 LINE",
"350 671 OFFCURVE",
"378 677 OFFCURVE",
"404 685 CURVE",
"407 700 LINE",
"143 700 LINE",
"140 686 LINE",
"164 677 OFFCURVE",
"190 671 OFFCURVE",
"214 666 CURVE",
"85 33 LINE",
"53 29 OFFCURVE",
"24 22 OFFCURVE",
"-1 14 CURVE",
"-3 0 LINE"
);
},
{
closed = 1;
nodes = (
"462 381 LINE",
"473 435 LINE",
"57 290 LINE",
"46 236 LINE"
);
}
);
width = 593;
}
);
note = Lslash;
rightKerningGroup = L;
unicode = 0141;
},
{
glyphname = M;
lastChange = "2015-10-27 09:00:36 +0000";
layers = (
{
layerId = "FF1AE41B-C668-46D5-83F9-5511CE68DF10";
name = "Regular Italic";
paths = (
{
closed = 1;
nodes = (
"200 0 LINE",
"202 13 LINE",
"178 22 OFFCURVE",
"154 28 OFFCURVE",
"130 33 CURVE",
"250 622 LINE",
"360 77 LINE",
"423 77 LINE",
"758 614 LINE",
"640 33 LINE",
"612 28 OFFCURVE",
"587 22 OFFCURVE",
"559 13 CURVE",
"557 0 LINE",
"820 0 LINE",
"822 13 LINE",
"798 22 OFFCURVE",
"773 28 OFFCURVE",
"749 32 CURVE",
"878 665 LINE",
"906 671 OFFCURVE",
"935 678 OFFCURVE",
"959 686 CURVE",
"962 700 LINE",
"765 700 LINE",
"436 169 LINE",
"337 700 LINE",
"139 700 LINE",
"136 686 LINE",
"159 677 OFFCURVE",
"186 671 OFFCURVE",
"209 666 CURVE",
"80 32 LINE",
"54 28 OFFCURVE",
"27 22 OFFCURVE",
"-1 13 CURVE",
"-3 0 LINE"
);
}
);
width = 894;
}
);
note = M;
unicode = 004D;
},
{
glyphname = Mdotbelow;
lastChange = "2015-10-27 09:00:37 +0000";
layers = (
{
layerId = "FF1AE41B-C668-46D5-83F9-5511CE68DF10";
name = "Regular Italic";
paths = (
{
closed = 1;
nodes = (
"200 0 LINE",
"202 13 LINE",
"178 22 OFFCURVE",
"154 28 OFFCURVE",
"130 33 CURVE",
"250 622 LINE",
"360 77 LINE",
"423 77 LINE",
"758 614 LINE",
"640 33 LINE",
"612 28 OFFCURVE",
"587 22 OFFCURVE",
"559 13 CURVE",
"557 0 LINE",
"820 0 LINE",
"822 13 LINE",
"798 22 OFFCURVE",
"773 28 OFFCURVE",
"749 32 CURVE",
"878 665 LINE",
"906 671 OFFCURVE",
"935 678 OFFCURVE",
"959 686 CURVE",
"962 700 LINE",
"765 700 LINE",
"436 169 LINE",
"337 700 LINE",
"139 700 LINE",
"136 686 LINE",
"159 677 OFFCURVE",
"186 671 OFFCURVE",
"209 666 CURVE",
"80 32 LINE",
"54 28 OFFCURVE",
"27 22 OFFCURVE",
"-1 13 CURVE",
"-3 0 LINE"
);
},
{
closed = 1;
nodes = (
"404 -160 OFFCURVE",
"428 -138 OFFCURVE",
"434 -109 CURVE SMOOTH",
"441 -79 OFFCURVE",
"425 -57 OFFCURVE",
"396 -57 CURVE SMOOTH",
"367 -57 OFFCURVE",
"344 -79 OFFCURVE",
"337 -109 CURVE SMOOTH",
"331 -138 OFFCURVE",
"346 -160 OFFCURVE",
"374 -160 CURVE SMOOTH"
);
}
);
width = 894;
}
);
note = Mdotbelow;
unicode = 1E42;
},
{
glyphname = N;
lastChange = "2015-10-27 09:00:37 +0000";
layers = (
{
layerId = "FF1AE41B-C668-46D5-83F9-5511CE68DF10";
name = "Regular Italic";
paths = (
{
closed = 1;
nodes = (
"200 0 LINE",
"202 13 LINE",
"178 22 OFFCURVE",
"154 28 OFFCURVE",
"130 33 CURVE",
"253 640 LINE",
"540 0 LINE",
"599 0 LINE",
"734 667 LINE",
"761 672 OFFCURVE",
"788 678 OFFCURVE",
"815 686 CURVE",
"818 700 LINE",
"615 700 LINE",
"612 686 LINE",
"637 678 OFFCURVE",
"661 672 OFFCURVE",
"685 667 CURVE",
"578 141 LINE",
"331 700 LINE",
"139 700 LINE",
"136 686 LINE",
"159 677 OFFCURVE",
"185 671 OFFCURVE",
"209 666 CURVE",
"80 32 LINE",
"54 28 OFFCURVE",
"27 22 OFFCURVE",
"-1 13 CURVE",
"-3 0 LINE"
);
}
);
width = 750;
}
);
note = N;
unicode = 004E;
},
{
glyphname = Nacute;
lastChange = "2015-10-27 09:00:36 +0000";
layers = (
{
layerId = "FF1AE41B-C668-46D5-83F9-5511CE68DF10";
name = "Regular Italic";
paths = (
{
closed = 1;
nodes = (
"200 0 LINE",
"202 13 LINE",
"178 22 OFFCURVE",
"154 28 OFFCURVE",
"130 33 CURVE",
"253 640 LINE",
"540 0 LINE",
"599 0 LINE",
"734 667 LINE",
"761 672 OFFCURVE",
"788 678 OFFCURVE",
"815 686 CURVE",
"818 700 LINE",
"615 700 LINE",
"612 686 LINE",
"637 678 OFFCURVE",
"661 672 OFFCURVE",
"685 667 CURVE",
"578 141 LINE",
"331 700 LINE",
"139 700 LINE",
"136 686 LINE",
"159 677 OFFCURVE",
"185 671 OFFCURVE",
"209 666 CURVE",
"80 32 LINE",
"54 28 OFFCURVE",
"27 22 OFFCURVE",
"-1 13 CURVE",
"-3 0 LINE"
);
},
{
closed = 1;
nodes = (
"612 872 LINE SMOOTH",
"638 887 OFFCURVE",
"654 902 OFFCURVE",
"658 921 CURVE",
"661 936 OFFCURVE",
"653 953 OFFCURVE",
"629 953 CURVE SMOOTH",
"604 953 OFFCURVE",
"582 933 OFFCURVE",
"574 926 CURVE",
"439 813 LINE",
"452 786 LINE"
);
}
);
width = 750;
}
);
note = Nacute;
unicode = 0143;
},
{
glyphname = Ncaron;
lastChange = "2015-10-27 09:00:37 +0000";
layers = (
{
layerId = "FF1AE41B-C668-46D5-83F9-5511CE68DF10";
name = "Regular Italic";
paths = (
{
closed = 1;
nodes = (
"200 0 LINE",
"202 13 LINE",
"178 22 OFFCURVE",
"154 28 OFFCURVE",
"130 33 CURVE",
"253 640 LINE",
"540 0 LINE",
"599 0 LINE",
"734 667 LINE",
"761 672 OFFCURVE",
"788 678 OFFCURVE",
"815 686 CURVE",
"818 700 LINE",
"615 700 LINE",
"612 686 LINE",
"637 678 OFFCURVE",
"661 672 OFFCURVE",
"685 667 CURVE",
"578 141 LINE",
"331 700 LINE",
"139 700 LINE",
"136 686 LINE",
"159 677 OFFCURVE",
"185 671 OFFCURVE",
"209 666 CURVE",
"80 32 LINE",
"54 28 OFFCURVE",
"27 22 OFFCURVE",
"-1 13 CURVE",
"-3 0 LINE"
);
},
{
closed = 1;
nodes = (
"520 786 LINE",
"554 826 OFFCURVE",
"634 888 OFFCURVE",
"680 916 CURVE",
"643 952 LINE",
"600 923 OFFCURVE",
"539 873 OFFCURVE",
"507 837 CURVE",
"502 837 LINE",
"486 873 OFFCURVE",
"445 923 OFFCURVE",
"414 952 CURVE",
"363 916 LINE",
"396 888 OFFCURVE",
"451 826 OFFCURVE",
"469 786 CURVE"
);
}
);
width = 750;
}
);
note = Ncaron;
unicode = 0147;
},
{
glyphname = Ncommaaccent;
lastChange = "2015-10-27 09:00:37 +0000";
layers = (
{
layerId = "FF1AE41B-C668-46D5-83F9-5511CE68DF10";
name = "Regular Italic";
paths = (
{
closed = 1;
nodes = (
"200 0 LINE",
"202 13 LINE",
"178 22 OFFCURVE",
"154 28 OFFCURVE",
"130 33 CURVE",
"253 640 LINE",
"540 0 LINE",
"599 0 LINE",
"734 667 LINE",
"761 672 OFFCURVE",
"788 678 OFFCURVE",
"815 686 CURVE",
"818 700 LINE",
"615 700 LINE",
"612 686 LINE",
"637 678 OFFCURVE",
"661 672 OFFCURVE",
"685 667 CURVE",
"578 141 LINE",
"331 700 LINE",
"139 700 LINE",
"136 686 LINE",
"159 677 OFFCURVE",
"185 671 OFFCURVE",
"209 666 CURVE",
"80 32 LINE",
"54 28 OFFCURVE",
"27 22 OFFCURVE",
"-1 13 CURVE",
"-3 0 LINE"
);
},
{
closed = 1;
nodes = (
"311 -281 OFFCURVE",
"359 -205 OFFCURVE",
"372 -143 CURVE SMOOTH",
"379 -104 OFFCURVE",
"369 -73 OFFCURVE",
"324 -73 CURVE SMOOTH",
"294 -73 OFFCURVE",
"261 -92 OFFCURVE",
"253 -128 CURVE SMOOTH",
"246 -166 OFFCURVE",
"266 -183 OFFCURVE",
"303 -183 CURVE",
"290 -225 OFFCURVE",
"257 -268 OFFCURVE",
"228 -295 CURVE",
"257 -324 LINE"
);
}
);
width = 750;
}
);
note = Ncommaaccent;
unicode = 0145;
},
{
glyphname = Ndotaccent;
lastChange = "2015-10-27 09:00:36 +0000";
layers = (
{
layerId = "FF1AE41B-C668-46D5-83F9-5511CE68DF10";
name = "Regular Italic";
paths = (
{
closed = 1;
nodes = (
"200 0 LINE",
"202 13 LINE",
"178 22 OFFCURVE",
"154 28 OFFCURVE",
"130 33 CURVE",
"253 640 LINE",
"540 0 LINE",
"599 0 LINE",
"734 667 LINE",
"761 672 OFFCURVE",
"788 678 OFFCURVE",
"815 686 CURVE",
"818 700 LINE",
"615 700 LINE",
"612 686 LINE",
"637 678 OFFCURVE",
"661 672 OFFCURVE",
"685 667 CURVE",
"578 141 LINE",
"331 700 LINE",
"139 700 LINE",
"136 686 LINE",
"159 677 OFFCURVE",
"185 671 OFFCURVE",
"209 666 CURVE",
"80 32 LINE",
"54 28 OFFCURVE",
"27 22 OFFCURVE",
"-1 13 CURVE",
"-3 0 LINE"
);
},
{
closed = 1;
nodes = (
"526 785 OFFCURVE",
"550 807 OFFCURVE",
"556 836 CURVE SMOOTH",
"563 866 OFFCURVE",
"547 888 OFFCURVE",
"518 888 CURVE SMOOTH",
"489 888 OFFCURVE",
"467 866 OFFCURVE",
"460 836 CURVE SMOOTH",
"454 807 OFFCURVE",
"468 785 OFFCURVE",
"497 785 CURVE SMOOTH"
);
}
);
width = 750;
}
);
note = Ndotaccent;
unicode = 1E44;
},
{
glyphname = Ndotbelow;
lastChange = "2015-10-27 09:00:37 +0000";
layers = (
{
layerId = "FF1AE41B-C668-46D5-83F9-5511CE68DF10";
name = "Regular Italic";
paths = (
{
closed = 1;
nodes = (
"200 0 LINE",
"202 13 LINE",
"178 22 OFFCURVE",
"154 28 OFFCURVE",
"130 33 CURVE",
"253 640 LINE",
"540 0 LINE",
"599 0 LINE",
"734 667 LINE",
"761 672 OFFCURVE",
"788 678 OFFCURVE",
"815 686 CURVE",
"818 700 LINE",
"615 700 LINE",
"612 686 LINE",
"637 678 OFFCURVE",
"661 672 OFFCURVE",
"685 667 CURVE",
"578 141 LINE",
"331 700 LINE",
"139 700 LINE",
"136 686 LINE",
"159 677 OFFCURVE",
"185 671 OFFCURVE",
"209 666 CURVE",
"80 32 LINE",
"54 28 OFFCURVE",
"27 22 OFFCURVE",
"-1 13 CURVE",
"-3 0 LINE"
);
},
{
closed = 1;
nodes = (
"325 -160 OFFCURVE",
"349 -138 OFFCURVE",
"355 -109 CURVE SMOOTH",
"362 -79 OFFCURVE",
"347 -57 OFFCURVE",
"317 -57 CURVE SMOOTH",
"288 -57 OFFCURVE",
"265 -79 OFFCURVE",
"258 -109 CURVE SMOOTH",
"252 -138 OFFCURVE",
"267 -160 OFFCURVE",
"296 -160 CURVE SMOOTH"
);
}
);
width = 750;
}
);
note = uni1E46;
unicode = 1E46;
},
{
glyphname = Eng;
lastChange = "2015-10-27 09:00:37 +0000";
layers = (
{
layerId = "FF1AE41B-C668-46D5-83F9-5511CE68DF10";
name = "Regular Italic";
paths = (
{
closed = 1;
nodes = (
"492 -249 OFFCURVE",
"558 -202 OFFCURVE",
"577 -106 CURVE SMOOTH",
"734 667 LINE",
"761 672 OFFCURVE",
"788 678 OFFCURVE",
"815 686 CURVE",
"818 700 LINE",
"615 700 LINE",
"612 686 LINE",
"637 678 OFFCURVE",
"661 672 OFFCURVE",
"685 667 CURVE",
"578 141 LINE",
"331 700 LINE",
"139 700 LINE",
"136 686 LINE",
"159 677 OFFCURVE",
"185 671 OFFCURVE",
"209 666 CURVE",
"80 32 LINE",
"54 28 OFFCURVE",
"27 22 OFFCURVE",
"-1 13 CURVE",
"-3 0 LINE",
"200 0 LINE",
"202 13 LINE",
"178 22 OFFCURVE",
"154 28 OFFCURVE",
"130 33 CURVE",
"253 640 LINE",
"549 -7 LINE",
"529 -106 LINE SMOOTH",
"514 -179 OFFCURVE",
"456 -205 OFFCURVE",
"394 -205 CURVE SMOOTH",
"357 -205 OFFCURVE",
"326 -198 OFFCURVE",
"304 -187 CURVE",
"289 -217 LINE",
"320 -236 OFFCURVE",
"357 -249 OFFCURVE",
"404 -249 CURVE SMOOTH"
);
}
);
width = 750;
}
);
note = Eng;
unicode = 014A;
},
{
glyphname = Nlinebelow;
lastChange = "2015-10-27 09:00:36 +0000";
layers = (
{
layerId = "FF1AE41B-C668-46D5-83F9-5511CE68DF10";
name = "Regular Italic";
paths = (
{
closed = 1;
nodes = (
"200 0 LINE",
"202 13 LINE",
"178 22 OFFCURVE",
"154 28 OFFCURVE",
"130 33 CURVE",
"253 640 LINE",
"540 0 LINE",
"599 0 LINE",
"734 667 LINE",
"761 672 OFFCURVE",
"788 678 OFFCURVE",
"815 686 CURVE",
"818 700 LINE",
"615 700 LINE",
"612 686 LINE",
"637 678 OFFCURVE",
"661 672 OFFCURVE",
"685 667 CURVE",
"578 141 LINE",
"331 700 LINE",
"139 700 LINE",
"136 686 LINE",
"159 677 OFFCURVE",
"185 671 OFFCURVE",
"209 666 CURVE",
"80 32 LINE",
"54 28 OFFCURVE",
"27 22 OFFCURVE",
"-1 13 CURVE",
"-3 0 LINE"
);
},
{
closed = 1;
nodes = (
"485 -105 LINE",
"492 -66 LINE",
"156 -66 LINE",
"148 -105 LINE"
);
}
);
width = 750;
}
);
note = Nlinebelow;
unicode = 1E48;
},
{
glyphname = Ntilde;
lastChange = "2015-10-27 09:00:35 +0000";
layers = (
{
layerId = "FF1AE41B-C668-46D5-83F9-5511CE68DF10";
name = "Regular Italic";
paths = (
{
closed = 1;
nodes = (
"200 0 LINE",
"202 13 LINE",
"178 22 OFFCURVE",
"154 28 OFFCURVE",
"130 33 CURVE",
"253 640 LINE",
"540 0 LINE",
"599 0 LINE",
"734 667 LINE",
"761 672 OFFCURVE",
"788 678 OFFCURVE",
"815 686 CURVE",
"818 700 LINE",
"615 700 LINE",
"612 686 LINE",
"637 678 OFFCURVE",
"661 672 OFFCURVE",
"685 667 CURVE",
"578 141 LINE",
"331 700 LINE",
"139 700 LINE",
"136 686 LINE",
"159 677 OFFCURVE",
"185 671 OFFCURVE",
"209 666 CURVE",
"80 32 LINE",
"54 28 OFFCURVE",
"27 22 OFFCURVE",
"-1 13 CURVE",
"-3 0 LINE"
);
},
{
closed = 1;
nodes = (
"367 786 LINE",
"380 820 OFFCURVE",
"410 842 OFFCURVE",
"439 842 CURVE SMOOTH",
"476 842 OFFCURVE",
"522 787 OFFCURVE",
"573 787 CURVE SMOOTH",
"636 787 OFFCURVE",
"675 830 OFFCURVE",
"696 896 CURVE",
"660 896 LINE",
"642 852 OFFCURVE",
"612 838 OFFCURVE",
"585 838 CURVE SMOOTH",
"545 838 OFFCURVE",
"511 892 OFFCURVE",
"451 892 CURVE SMOOTH",
"396 892 OFFCURVE",
"352 858 OFFCURVE",
"328 786 CURVE"
);
}
);
width = 750;
}
);
note = Ntilde;
unicode = 00D1;
},
{
glyphname = O;
lastChange = "2015-10-27 09:00:35 +0000";
layers = (
{
layerId = "FF1AE41B-C668-46D5-83F9-5511CE68DF10";
name = "Regular Italic";
paths = (
{
closed = 1;
nodes = (
"516 -10 OFFCURVE",
"655 127 OFFCURVE",
"701 350 CURVE SMOOTH",
"746 572 OFFCURVE",
"662 710 OFFCURVE",
"457 710 CURVE SMOOTH",
"251 710 OFFCURVE",
"112 572 OFFCURVE",
"67 350 CURVE SMOOTH",
"21 127 OFFCURVE",
"104 -10 OFFCURVE",
"310 -10 CURVE SMOOTH"
);
},
{
closed = 1;
nodes = (
"178 32 OFFCURVE",
"140 166 OFFCURVE",
"178 350 CURVE SMOOTH",
"215 534 OFFCURVE",
"307 668 OFFCURVE",
"448 668 CURVE SMOOTH",
"589 668 OFFCURVE",
"628 534 OFFCURVE",
"590 350 CURVE SMOOTH",
"553 166 OFFCURVE",
"460 32 OFFCURVE",
"319 32 CURVE SMOOTH"
);
}
);
width = 703;
}
);
leftKerningGroup = O;
note = O;
rightKerningGroup = O;
unicode = 004F;
},
{
glyphname = Oacute;
lastChange = "2015-10-27 09:00:36 +0000";
layers = (
{
layerId = "FF1AE41B-C668-46D5-83F9-5511CE68DF10";
name = "Regular Italic";
paths = (
{
closed = 1;
nodes = (
"516 -10 OFFCURVE",
"655 127 OFFCURVE",
"701 350 CURVE SMOOTH",
"746 572 OFFCURVE",
"662 710 OFFCURVE",
"457 710 CURVE SMOOTH",
"251 710 OFFCURVE",
"112 572 OFFCURVE",
"67 350 CURVE SMOOTH",
"21 127 OFFCURVE",
"104 -10 OFFCURVE",
"310 -10 CURVE SMOOTH"
);
},
{
closed = 1;
nodes = (
"178 32 OFFCURVE",
"140 166 OFFCURVE",
"178 350 CURVE SMOOTH",
"215 534 OFFCURVE",
"307 668 OFFCURVE",
"448 668 CURVE SMOOTH",
"589 668 OFFCURVE",
"628 534 OFFCURVE",
"590 350 CURVE SMOOTH",
"553 166 OFFCURVE",
"460 32 OFFCURVE",
"319 32 CURVE SMOOTH"
);
},
{
closed = 1;
nodes = (
"557 872 LINE SMOOTH",
"584 887 OFFCURVE",
"599 902 OFFCURVE",
"603 921 CURVE",
"607 936 OFFCURVE",
"598 953 OFFCURVE",
"574 953 CURVE SMOOTH",
"549 953 OFFCURVE",
"527 933 OFFCURVE",
"519 926 CURVE",
"384 813 LINE",
"397 786 LINE"
);
}
);
width = 703;
}
);
leftKerningGroup = O;
note = Oacute;
rightKerningGroup = O;
unicode = 00D3;
},
{
glyphname = Obreve;
lastChange = "2015-10-27 09:00:36 +0000";
layers = (
{
layerId = "FF1AE41B-C668-46D5-83F9-5511CE68DF10";
name = "Regular Italic";
paths = (
{
closed = 1;
nodes = (
"516 -10 OFFCURVE",
"655 127 OFFCURVE",
"701 350 CURVE SMOOTH",
"746 572 OFFCURVE",
"662 710 OFFCURVE",
"457 710 CURVE SMOOTH",
"251 710 OFFCURVE",
"112 572 OFFCURVE",
"67 350 CURVE SMOOTH",
"21 127 OFFCURVE",
"104 -10 OFFCURVE",
"310 -10 CURVE SMOOTH"
);
},
{
closed = 1;
nodes = (
"178 32 OFFCURVE",
"140 166 OFFCURVE",
"178 350 CURVE SMOOTH",
"215 534 OFFCURVE",
"307 668 OFFCURVE",
"448 668 CURVE SMOOTH",
"589 668 OFFCURVE",
"628 534 OFFCURVE",
"590 350 CURVE SMOOTH",
"553 166 OFFCURVE",
"460 32 OFFCURVE",
"319 32 CURVE SMOOTH"
);
},
{
closed = 1;
nodes = (
"556 778 OFFCURVE",
"625 818 OFFCURVE",
"654 905 CURVE",
"590 905 LINE",
"567 830 OFFCURVE",
"518 820 OFFCURVE",
"479 820 CURVE SMOOTH",
"440 820 OFFCURVE",
"395 830 OFFCURVE",
"402 905 CURVE",
"340 905 LINE",
"334 818 OFFCURVE",
"385 778 OFFCURVE",
"470 778 CURVE SMOOTH"
);
}
);
width = 703;
}
);
leftKerningGroup = O;
note = Obreve;
rightKerningGroup = O;
unicode = 014E;
},
{
glyphname = Ocaron;
lastChange = "2015-10-27 09:00:36 +0000";
layers = (
{
layerId = "FF1AE41B-C668-46D5-83F9-5511CE68DF10";
name = "Regular Italic";
paths = (
{
closed = 1;
nodes = (
"516 -10 OFFCURVE",
"655 127 OFFCURVE",
"701 350 CURVE SMOOTH",
"746 572 OFFCURVE",
"662 710 OFFCURVE",
"457 710 CURVE SMOOTH",
"251 710 OFFCURVE",
"112 572 OFFCURVE",
"67 350 CURVE SMOOTH",
"21 127 OFFCURVE",
"104 -10 OFFCURVE",
"310 -10 CURVE SMOOTH"
);
},
{
closed = 1;
nodes = (
"178 32 OFFCURVE",
"140 166 OFFCURVE",
"178 350 CURVE SMOOTH",
"215 534 OFFCURVE",
"307 668 OFFCURVE",
"448 668 CURVE SMOOTH",
"589 668 OFFCURVE",
"628 534 OFFCURVE",
"590 350 CURVE SMOOTH",
"553 166 OFFCURVE",
"460 32 OFFCURVE",
"319 32 CURVE SMOOTH"
);
},
{
closed = 1;
nodes = (
"498 786 LINE",
"532 826 OFFCURVE",
"612 888 OFFCURVE",
"658 916 CURVE",
"621 952 LINE",
"578 923 OFFCURVE",
"516 873 OFFCURVE",
"485 837 CURVE",
"480 837 LINE",
"464 873 OFFCURVE",
"423 923 OFFCURVE",
"392 952 CURVE",
"341 916 LINE",
"374 888 OFFCURVE",
"429 826 OFFCURVE",
"447 786 CURVE"
);
}
);
width = 703;
}
);
leftKerningGroup = O;
note = Ocaron;
rightKerningGroup = O;
unicode = 01D1;
},
{
glyphname = Ocircumflex;
lastChange = "2015-10-27 09:00:37 +0000";
layers = (
{
layerId = "FF1AE41B-C668-46D5-83F9-5511CE68DF10";
name = "Regular Italic";
paths = (
{
closed = 1;
nodes = (
"516 -10 OFFCURVE",
"655 127 OFFCURVE",
"701 350 CURVE SMOOTH",
"746 572 OFFCURVE",
"662 710 OFFCURVE",
"457 710 CURVE SMOOTH",
"251 710 OFFCURVE",
"112 572 OFFCURVE",
"67 350 CURVE SMOOTH",
"21 127 OFFCURVE",
"104 -10 OFFCURVE",
"310 -10 CURVE SMOOTH"
);
},
{
closed = 1;
nodes = (
"178 32 OFFCURVE",
"140 166 OFFCURVE",
"178 350 CURVE SMOOTH",
"215 534 OFFCURVE",
"307 668 OFFCURVE",
"448 668 CURVE SMOOTH",
"589 668 OFFCURVE",
"628 534 OFFCURVE",
"590 350 CURVE SMOOTH",
"553 166 OFFCURVE",
"460 32 OFFCURVE",
"319 32 CURVE SMOOTH"
);
},
{
closed = 1;
nodes = (
"399 811 OFFCURVE",
"461 861 OFFCURVE",
"492 897 CURVE",
"496 897 LINE",
"514 861 OFFCURVE",
"554 811 OFFCURVE",
"586 781 CURVE",
"636 818 LINE",
"602 845 OFFCURVE",
"548 908 OFFCURVE",
"530 947 CURVE",
"479 947 LINE",
"445 908 OFFCURVE",
"365 845 OFFCURVE",
"320 818 CURVE",
"356 781 LINE"
);
}
);
width = 703;
}
);
leftKerningGroup = O;
note = Ocircumflex;
rightKerningGroup = O;
unicode = 00D4;
},
{
glyphname = Ocircumflexacute;
lastChange = "2015-10-27 09:00:37 +0000";
layers = (
{
layerId = "FF1AE41B-C668-46D5-83F9-5511CE68DF10";
name = "Regular Italic";
paths = (
{
closed = 1;
nodes = (
"516 -10 OFFCURVE",
"655 127 OFFCURVE",
"701 350 CURVE SMOOTH",
"746 572 OFFCURVE",
"662 710 OFFCURVE",
"457 710 CURVE SMOOTH",
"251 710 OFFCURVE",
"112 572 OFFCURVE",
"67 350 CURVE SMOOTH",
"21 127 OFFCURVE",
"104 -10 OFFCURVE",
"310 -10 CURVE SMOOTH"
);
},
{
closed = 1;
nodes = (
"178 32 OFFCURVE",
"140 166 OFFCURVE",
"178 350 CURVE SMOOTH",
"215 534 OFFCURVE",
"307 668 OFFCURVE",
"448 668 CURVE SMOOTH",
"589 668 OFFCURVE",
"628 534 OFFCURVE",
"590 350 CURVE SMOOTH",
"553 166 OFFCURVE",
"460 32 OFFCURVE",
"319 32 CURVE SMOOTH"
);
},
{
closed = 1;
nodes = (
"400 811 OFFCURVE",
"461 861 OFFCURVE",
"492 897 CURVE",
"496 897 LINE",
"515 861 OFFCURVE",
"554 811 OFFCURVE",
"586 781 CURVE",
"636 818 LINE",
"603 845 OFFCURVE",
"549 908 OFFCURVE",
"530 947 CURVE",
"480 947 LINE",
"445 908 OFFCURVE",
"365 845 OFFCURVE",
"320 818 CURVE",
"357 781 LINE"
);
},
{
closed = 1;
nodes = (
"722 959 LINE SMOOTH",
"764 980 OFFCURVE",
"784 1004 OFFCURVE",
"788 1022 CURVE SMOOTH",
"791 1037 OFFCURVE",
"782 1048 OFFCURVE",
"765 1048 CURVE SMOOTH",
"748 1048 OFFCURVE",
"722 1037 OFFCURVE",
"690 1008 CURVE SMOOTH",
"607 932 LINE",
"618 908 LINE"
);
}
);
width = 703;
}
);
leftKerningGroup = O;
note = Ocircumflexacute;
rightKerningGroup = O;
unicode = 1ED0;
},
{
glyphname = Ocircumflexdotbelow;
lastChange = "2015-11-28 11:44:38 +0000";
layers = (
{
layerId = "FF1AE41B-C668-46D5-83F9-5511CE68DF10";
name = "Regular Italic";
paths = (
{
closed = 1;
nodes = (
"21 127 OFFCURVE",
"104 -10 OFFCURVE",
"310 -10 CURVE SMOOTH",
"516 -10 OFFCURVE",
"655 127 OFFCURVE",
"701 350 CURVE SMOOTH",
"746 572 OFFCURVE",
"662 710 OFFCURVE",
"457 710 CURVE SMOOTH",
"251 710 OFFCURVE",
"112 572 OFFCURVE",
"67 350 CURVE SMOOTH"
);
},
{
closed = 1;
nodes = (
"215 534 OFFCURVE",
"307 668 OFFCURVE",
"448 668 CURVE SMOOTH",
"589 668 OFFCURVE",
"628 534 OFFCURVE",
"590 350 CURVE SMOOTH",
"553 166 OFFCURVE",
"460 32 OFFCURVE",
"319 32 CURVE SMOOTH",
"178 32 OFFCURVE",
"140 166 OFFCURVE",
"178 350 CURVE SMOOTH"
);
},
{
closed = 1;
nodes = (
"236 -138 OFFCURVE",
"251 -160 OFFCURVE",
"279 -160 CURVE SMOOTH",
"309 -160 OFFCURVE",
"333 -138 OFFCURVE",
"339 -109 CURVE SMOOTH",
"346 -79 OFFCURVE",
"330 -57 OFFCURVE",
"300 -57 CURVE SMOOTH",
"272 -57 OFFCURVE",
"249 -79 OFFCURVE",
"242 -109 CURVE SMOOTH"
);
},
{
closed = 1;
nodes = (
"356 781 LINE",
"399 811 OFFCURVE",
"461 861 OFFCURVE",
"492 897 CURVE",
"496 897 LINE",
"514 861 OFFCURVE",
"554 811 OFFCURVE",
"586 781 CURVE",
"636 818 LINE",
"602 845 OFFCURVE",
"548 908 OFFCURVE",
"530 947 CURVE",
"479 947 LINE",
"445 908 OFFCURVE",
"365 845 OFFCURVE",
"320 818 CURVE"
);
}
);
width = 703;
}
);
leftKerningGroup = O;
note = Ocircumflexdotbelow;
rightKerningGroup = O;
unicode = 1ED8;
},
{
glyphname = Ocircumflexgrave;
lastChange = "2015-10-27 09:00:37 +0000";
layers = (
{
layerId = "FF1AE41B-C668-46D5-83F9-5511CE68DF10";
name = "Regular Italic";
paths = (
{
closed = 1;
nodes = (
"516 -10 OFFCURVE",
"655 127 OFFCURVE",
"701 350 CURVE SMOOTH",
"746 572 OFFCURVE",
"662 710 OFFCURVE",
"457 710 CURVE SMOOTH",
"251 710 OFFCURVE",
"112 572 OFFCURVE",
"67 350 CURVE SMOOTH",
"21 127 OFFCURVE",
"104 -10 OFFCURVE",
"310 -10 CURVE SMOOTH"
);
},
{
closed = 1;
nodes = (
"178 32 OFFCURVE",
"140 166 OFFCURVE",
"178 350 CURVE SMOOTH",
"215 534 OFFCURVE",
"307 668 OFFCURVE",
"448 668 CURVE SMOOTH",
"589 668 OFFCURVE",
"628 534 OFFCURVE",
"590 350 CURVE SMOOTH",
"553 166 OFFCURVE",
"460 32 OFFCURVE",
"319 32 CURVE SMOOTH"
);
},
{
closed = 1;
nodes = (
"403 932 LINE",
"349 1008 LINE SMOOTH",
"329 1037 OFFCURVE",
"307 1048 OFFCURVE",
"290 1048 CURVE SMOOTH",
"273 1048 OFFCURVE",
"260 1037 OFFCURVE",
"257 1022 CURVE SMOOTH",
"253 1004 OFFCURVE",
"264 980 OFFCURVE",
"297 959 CURVE SMOOTH",
"381 908 LINE"
);
},
{
closed = 1;
nodes = (
"400 811 OFFCURVE",
"461 861 OFFCURVE",
"492 897 CURVE",
"496 897 LINE",
"515 861 OFFCURVE",
"554 811 OFFCURVE",
"586 781 CURVE",
"636 818 LINE",
"603 845 OFFCURVE",
"549 908 OFFCURVE",
"530 947 CURVE",
"480 947 LINE",
"445 908 OFFCURVE",
"365 845 OFFCURVE",
"320 818 CURVE",
"357 781 LINE"
);
}
);
width = 703;
}
);
leftKerningGroup = O;
note = Ocircumflexgrave;
rightKerningGroup = O;
unicode = 1ED2;
},
{
glyphname = Ocircumflexhookabove;
lastChange = "2015-10-27 09:00:37 +0000";
layers = (
{
layerId = "FF1AE41B-C668-46D5-83F9-5511CE68DF10";
name = "Regular Italic";
paths = (
{
closed = 1;
nodes = (
"516 -10 OFFCURVE",
"655 127 OFFCURVE",
"701 350 CURVE SMOOTH",
"746 572 OFFCURVE",
"662 710 OFFCURVE",
"457 710 CURVE SMOOTH",
"251 710 OFFCURVE",
"112 572 OFFCURVE",
"67 350 CURVE SMOOTH",
"21 127 OFFCURVE",
"104 -10 OFFCURVE",
"310 -10 CURVE SMOOTH"
);
},
{
closed = 1;
nodes = (
"178 32 OFFCURVE",
"140 166 OFFCURVE",
"178 350 CURVE SMOOTH",
"215 534 OFFCURVE",
"307 668 OFFCURVE",
"448 668 CURVE SMOOTH",
"589 668 OFFCURVE",
"628 534 OFFCURVE",
"590 350 CURVE SMOOTH",
"553 166 OFFCURVE",
"460 32 OFFCURVE",
"319 32 CURVE SMOOTH"
);
},
{
closed = 1;
nodes = (
"401 815 OFFCURVE",
"462 865 OFFCURVE",
"493 901 CURVE",
"497 901 LINE",
"516 865 OFFCURVE",
"555 815 OFFCURVE",
"587 785 CURVE",
"636 822 LINE",
"604 849 OFFCURVE",
"550 912 OFFCURVE",
"531 951 CURVE",
"481 951 LINE",
"446 912 OFFCURVE",
"366 849 OFFCURVE",
"321 822 CURVE",
"358 785 LINE"
);
},
{
closed = 1;
nodes = (
"638 907 LINE",
"658 962 LINE",
"703 966 OFFCURVE",
"736 985 OFFCURVE",
"745 1028 CURVE SMOOTH",
"756 1077 OFFCURVE",
"715 1097 OFFCURVE",
"670 1097 CURVE SMOOTH",
"644 1097 OFFCURVE",
"617 1090 OFFCURVE",
"601 1083 CURVE",
"601 1053 LINE",
"618 1062 OFFCURVE",
"637 1066 OFFCURVE",
"652 1066 CURVE SMOOTH",
"685 1066 OFFCURVE",
"699 1050 OFFCURVE",
"694 1029 CURVE SMOOTH",
"688 1001 OFFCURVE",
"665 986 OFFCURVE",
"635 986 CURVE SMOOTH",
"612 986 LINE",
"600 907 LINE"
);
}
);
width = 703;
}
);
leftKerningGroup = O;
note = Ocircumflexhookabove;
rightKerningGroup = O;
unicode = 1ED4;
},
{
glyphname = Ocircumflextilde;
lastChange = "2015-10-27 09:00:37 +0000";
layers = (
{
layerId = "FF1AE41B-C668-46D5-83F9-5511CE68DF10";
name = "Regular Italic";
paths = (
{
closed = 1;
nodes = (
"516 -10 OFFCURVE",
"655 127 OFFCURVE",
"701 350 CURVE SMOOTH",
"746 572 OFFCURVE",
"662 710 OFFCURVE",
"457 710 CURVE SMOOTH",
"251 710 OFFCURVE",
"112 572 OFFCURVE",
"67 350 CURVE SMOOTH",
"21 127 OFFCURVE",
"104 -10 OFFCURVE",
"310 -10 CURVE SMOOTH"
);
},
{
closed = 1;
nodes = (
"178 32 OFFCURVE",
"140 166 OFFCURVE",
"178 350 CURVE SMOOTH",
"215 534 OFFCURVE",
"307 668 OFFCURVE",
"448 668 CURVE SMOOTH",
"589 668 OFFCURVE",
"628 534 OFFCURVE",
"590 350 CURVE SMOOTH",
"553 166 OFFCURVE",
"460 32 OFFCURVE",
"319 32 CURVE SMOOTH"
);
},
{
closed = 1;
nodes = (
"400 811 OFFCURVE",
"461 861 OFFCURVE",
"492 897 CURVE",
"496 897 LINE",
"515 861 OFFCURVE",
"554 811 OFFCURVE",
"586 781 CURVE",
"636 818 LINE",
"603 845 OFFCURVE",
"549 908 OFFCURVE",
"530 947 CURVE",
"480 947 LINE",
"445 908 OFFCURVE",
"365 845 OFFCURVE",
"320 818 CURVE",
"357 781 LINE"
);
},
{
closed = 1;
nodes = (
"379 972 LINE",
"393 1006 OFFCURVE",
"422 1028 OFFCURVE",
"451 1028 CURVE SMOOTH",
"489 1028 OFFCURVE",
"535 973 OFFCURVE",
"586 973 CURVE SMOOTH",
"647 973 OFFCURVE",
"688 1016 OFFCURVE",
"709 1082 CURVE",
"673 1082 LINE",
"654 1038 OFFCURVE",
"623 1024 OFFCURVE",
"597 1024 CURVE SMOOTH",
"558 1024 OFFCURVE",
"524 1078 OFFCURVE",
"465 1078 CURVE SMOOTH",
"409 1078 OFFCURVE",
"365 1044 OFFCURVE",
"341 972 CURVE"
);
}
);
width = 703;
}
);
leftKerningGroup = O;
note = Ocircumflextilde;
rightKerningGroup = O;
unicode = 1ED6;
},
{
glyphname = Odieresis;
lastChange = "2015-10-27 09:00:35 +0000";
layers = (
{
layerId = "FF1AE41B-C668-46D5-83F9-5511CE68DF10";
name = "Regular Italic";
paths = (
{
closed = 1;
nodes = (
"516 -10 OFFCURVE",
"655 127 OFFCURVE",
"701 350 CURVE SMOOTH",
"746 572 OFFCURVE",
"662 710 OFFCURVE",
"457 710 CURVE SMOOTH",
"251 710 OFFCURVE",
"112 572 OFFCURVE",
"67 350 CURVE SMOOTH",
"21 127 OFFCURVE",
"104 -10 OFFCURVE",
"310 -10 CURVE SMOOTH"
);
},
{
closed = 1;
nodes = (
"178 32 OFFCURVE",
"140 166 OFFCURVE",
"178 350 CURVE SMOOTH",
"215 534 OFFCURVE",
"307 668 OFFCURVE",
"448 668 CURVE SMOOTH",
"589 668 OFFCURVE",
"628 534 OFFCURVE",
"590 350 CURVE SMOOTH",
"553 166 OFFCURVE",
"460 32 OFFCURVE",
"319 32 CURVE SMOOTH"
);
},
{
closed = 1;
nodes = (
"392 785 OFFCURVE",
"416 807 OFFCURVE",
"421 836 CURVE SMOOTH",
"428 866 OFFCURVE",
"413 888 OFFCURVE",
"383 888 CURVE SMOOTH",
"354 888 OFFCURVE",
"332 866 OFFCURVE",
"325 836 CURVE SMOOTH",
"320 807 OFFCURVE",
"334 785 OFFCURVE",
"362 785 CURVE SMOOTH"
);
},
{
closed = 1;
nodes = (
"609 785 OFFCURVE",
"633 807 OFFCURVE",
"638 836 CURVE SMOOTH",
"645 866 OFFCURVE",
"630 888 OFFCURVE",
"601 888 CURVE SMOOTH",
"571 888 OFFCURVE",
"549 866 OFFCURVE",
"542 836 CURVE SMOOTH",
"537 807 OFFCURVE",
"550 785 OFFCURVE",
"580 785 CURVE SMOOTH"
);
}
);
width = 703;
}
);
leftKerningGroup = O;
note = Odieresis;
rightKerningGroup = O;
unicode = 00D6;
},
{
glyphname = Odotbelow;
lastChange = "2015-11-28 11:44:43 +0000";
layers = (
{
layerId = "FF1AE41B-C668-46D5-83F9-5511CE68DF10";
name = "Regular Italic";
paths = (
{
closed = 1;
nodes = (
"21 127 OFFCURVE",
"104 -10 OFFCURVE",
"310 -10 CURVE SMOOTH",
"516 -10 OFFCURVE",
"655 127 OFFCURVE",
"701 350 CURVE SMOOTH",
"746 572 OFFCURVE",
"662 710 OFFCURVE",
"457 710 CURVE SMOOTH",
"251 710 OFFCURVE",
"112 572 OFFCURVE",
"67 350 CURVE SMOOTH"
);
},
{
closed = 1;
nodes = (
"215 534 OFFCURVE",
"307 668 OFFCURVE",
"448 668 CURVE SMOOTH",
"589 668 OFFCURVE",
"628 534 OFFCURVE",
"590 350 CURVE SMOOTH",
"553 166 OFFCURVE",
"460 32 OFFCURVE",
"319 32 CURVE SMOOTH",
"178 32 OFFCURVE",
"140 166 OFFCURVE",
"178 350 CURVE SMOOTH"
);
},
{
closed = 1;
nodes = (
"236 -138 OFFCURVE",
"251 -160 OFFCURVE",
"279 -160 CURVE SMOOTH",
"309 -160 OFFCURVE",
"333 -138 OFFCURVE",
"339 -109 CURVE SMOOTH",
"346 -79 OFFCURVE",
"330 -57 OFFCURVE",
"300 -57 CURVE SMOOTH",
"272 -57 OFFCURVE",
"249 -79 OFFCURVE",
"242 -109 CURVE SMOOTH"
);
}
);
width = 703;
}
);
leftKerningGroup = O;
note = Odotbelow;
rightKerningGroup = O;
unicode = 1ECC;
},
{
glyphname = Ograve;
lastChange = "2015-10-27 09:00:38 +0000";
layers = (
{
layerId = "FF1AE41B-C668-46D5-83F9-5511CE68DF10";
name = "Regular Italic";
paths = (
{
closed = 1;
nodes = (
"516 -10 OFFCURVE",
"655 127 OFFCURVE",
"701 350 CURVE SMOOTH",
"746 572 OFFCURVE",
"662 710 OFFCURVE",
"457 710 CURVE SMOOTH",
"251 710 OFFCURVE",
"112 572 OFFCURVE",
"67 350 CURVE SMOOTH",
"21 127 OFFCURVE",
"104 -10 OFFCURVE",
"310 -10 CURVE SMOOTH"
);
},
{
closed = 1;
nodes = (
"178 32 OFFCURVE",
"140 166 OFFCURVE",
"178 350 CURVE SMOOTH",
"215 534 OFFCURVE",
"307 668 OFFCURVE",
"448 668 CURVE SMOOTH",
"589 668 OFFCURVE",
"628 534 OFFCURVE",
"590 350 CURVE SMOOTH",
"553 166 OFFCURVE",
"460 32 OFFCURVE",
"319 32 CURVE SMOOTH"
);
},
{
closed = 1;
nodes = (
"571 813 LINE",
"482 927 LINE SMOOTH",
"475 935 OFFCURVE",
"462 953 OFFCURVE",
"439 953 CURVE SMOOTH",
"414 953 OFFCURVE",
"399 936 OFFCURVE",
"396 921 CURVE",
"392 902 OFFCURVE",
"402 887 OFFCURVE",
"423 872 CURVE SMOOTH",
"548 786 LINE"
);
}
);
width = 703;
}
);
leftKerningGroup = O;
note = Ograve;
rightKerningGroup = O;
unicode = 00D2;
},
{
glyphname = Ohookabove;
lastChange = "2015-10-27 09:00:36 +0000";
layers = (
{
layerId = "FF1AE41B-C668-46D5-83F9-5511CE68DF10";
name = "Regular Italic";
paths = (
{
closed = 1;
nodes = (
"516 -10 OFFCURVE",
"655 127 OFFCURVE",
"701 350 CURVE SMOOTH",
"746 572 OFFCURVE",
"662 710 OFFCURVE",
"457 710 CURVE SMOOTH",
"251 710 OFFCURVE",
"112 572 OFFCURVE",
"67 350 CURVE SMOOTH",
"21 127 OFFCURVE",
"104 -10 OFFCURVE",
"310 -10 CURVE SMOOTH"
);
},
{
closed = 1;
nodes = (
"178 32 OFFCURVE",
"140 166 OFFCURVE",
"178 350 CURVE SMOOTH",
"215 534 OFFCURVE",
"307 668 OFFCURVE",
"448 668 CURVE SMOOTH",
"589 668 OFFCURVE",
"628 534 OFFCURVE",
"590 350 CURVE SMOOTH",
"553 166 OFFCURVE",
"460 32 OFFCURVE",
"319 32 CURVE SMOOTH"
);
},
{
closed = 1;
nodes = (
"494 781 LINE",
"517 847 LINE",
"569 852 OFFCURVE",
"608 875 OFFCURVE",
"617 926 CURVE SMOOTH",
"630 985 OFFCURVE",
"585 1009 OFFCURVE",
"534 1009 CURVE SMOOTH",
"504 1009 OFFCURVE",
"473 1001 OFFCURVE",
"453 992 CURVE",
"453 959 LINE",
"474 970 OFFCURVE",
"496 975 OFFCURVE",
"513 975 CURVE SMOOTH",
"551 975 OFFCURVE",
"566 953 OFFCURVE",
"561 928 CURVE SMOOTH",
"554 894 OFFCURVE",
"526 876 OFFCURVE",
"492 876 CURVE SMOOTH",
"464 876 LINE",
"449 781 LINE"
);
}
);
width = 703;
}
);
leftKerningGroup = O;
note = Ohookabove;
rightKerningGroup = O;
unicode = 1ECE;
},
{
glyphname = Ohorn;
lastChange = "2015-10-27 09:00:37 +0000";
layers = (
{
layerId = "FF1AE41B-C668-46D5-83F9-5511CE68DF10";
name = "Regular Italic";
paths = (
{
closed = 1;
nodes = (
"516 -10 OFFCURVE",
"655 127 OFFCURVE",
"701 350 CURVE SMOOTH",
"746 572 OFFCURVE",
"662 710 OFFCURVE",
"457 710 CURVE SMOOTH",
"251 710 OFFCURVE",
"112 572 OFFCURVE",
"67 350 CURVE SMOOTH",
"21 127 OFFCURVE",
"104 -10 OFFCURVE",
"310 -10 CURVE SMOOTH"
);
},
{
closed = 1;
nodes = (
"178 32 OFFCURVE",
"140 166 OFFCURVE",
"178 350 CURVE SMOOTH",
"215 534 OFFCURVE",
"307 668 OFFCURVE",
"448 668 CURVE SMOOTH",
"589 668 OFFCURVE",
"628 534 OFFCURVE",
"590 350 CURVE SMOOTH",
"553 166 OFFCURVE",
"460 32 OFFCURVE",
"319 32 CURVE SMOOTH"
);
},
{
closed = 1;
nodes = (
"786 553 OFFCURVE",
"831 616 OFFCURVE",
"841 664 CURVE SMOOTH",
"847 695 OFFCURVE",
"848 738 OFFCURVE",
"791 738 CURVE SMOOTH",
"747 738 OFFCURVE",
"728 708 OFFCURVE",
"723 683 CURVE SMOOTH",
"716 650 OFFCURVE",
"732 630 OFFCURVE",
"761 630 CURVE SMOOTH",
"767 630 OFFCURVE",
"773 631 OFFCURVE",
"779 634 CURVE",
"761 587 OFFCURVE",
"705 543 OFFCURVE",
"677 525 CURVE",
"692 495 LINE"
);
}
);
width = 732;
}
);
leftKerningGroup = O;
note = Ohorn;
rightKerningGroup = O;
unicode = 01A0;
},
{
glyphname = Ohornacute;
lastChange = "2015-10-27 09:00:35 +0000";
layers = (
{
layerId = "FF1AE41B-C668-46D5-83F9-5511CE68DF10";
name = "Regular Italic";
paths = (
{
closed = 1;
nodes = (
"516 -10 OFFCURVE",
"655 127 OFFCURVE",
"701 350 CURVE SMOOTH",
"746 572 OFFCURVE",
"662 710 OFFCURVE",
"457 710 CURVE SMOOTH",
"251 710 OFFCURVE",
"112 572 OFFCURVE",
"67 350 CURVE SMOOTH",
"21 127 OFFCURVE",
"104 -10 OFFCURVE",
"310 -10 CURVE SMOOTH"
);
},
{
closed = 1;
nodes = (
"178 32 OFFCURVE",
"140 166 OFFCURVE",
"178 350 CURVE SMOOTH",
"215 534 OFFCURVE",
"307 668 OFFCURVE",
"448 668 CURVE SMOOTH",
"589 668 OFFCURVE",
"628 534 OFFCURVE",
"590 350 CURVE SMOOTH",
"553 166 OFFCURVE",
"460 32 OFFCURVE",
"319 32 CURVE SMOOTH"
);
},
{
closed = 1;
nodes = (
"558 871 LINE SMOOTH",
"585 886 OFFCURVE",
"600 901 OFFCURVE",
"604 920 CURVE",
"608 935 OFFCURVE",
"599 952 OFFCURVE",
"575 952 CURVE SMOOTH",
"550 952 OFFCURVE",
"528 932 OFFCURVE",
"520 925 CURVE",
"385 812 LINE",
"398 785 LINE"
);
},
{
closed = 1;
nodes = (
"786 553 OFFCURVE",
"831 616 OFFCURVE",
"841 664 CURVE SMOOTH",
"847 695 OFFCURVE",
"848 738 OFFCURVE",
"791 738 CURVE SMOOTH",
"747 738 OFFCURVE",
"728 708 OFFCURVE",
"723 683 CURVE SMOOTH",
"716 650 OFFCURVE",
"732 630 OFFCURVE",
"761 630 CURVE SMOOTH",
"767 630 OFFCURVE",
"773 631 OFFCURVE",
"779 634 CURVE",
"761 587 OFFCURVE",
"705 543 OFFCURVE",
"677 525 CURVE",
"692 495 LINE"
);
}
);
width = 732;
}
);
leftKerningGroup = O;
note = Ohornacute;
rightKerningGroup = O;
unicode = 1EDA;
},
{
glyphname = Ohorndotbelow;
lastChange = "2015-11-28 11:44:49 +0000";
layers = (
{
layerId = "FF1AE41B-C668-46D5-83F9-5511CE68DF10";
name = "Regular Italic";
paths = (
{
closed = 1;
nodes = (
"516 -10 OFFCURVE",
"655 127 OFFCURVE",
"701 350 CURVE SMOOTH",
"746 572 OFFCURVE",
"662 710 OFFCURVE",
"457 710 CURVE SMOOTH",
"251 710 OFFCURVE",
"112 572 OFFCURVE",
"67 350 CURVE SMOOTH",
"21 127 OFFCURVE",
"104 -10 OFFCURVE",
"310 -10 CURVE SMOOTH"
);
},
{
closed = 1;
nodes = (
"178 32 OFFCURVE",
"140 166 OFFCURVE",
"178 350 CURVE SMOOTH",
"215 534 OFFCURVE",
"307 668 OFFCURVE",
"448 668 CURVE SMOOTH",
"589 668 OFFCURVE",
"628 534 OFFCURVE",
"590 350 CURVE SMOOTH",
"553 166 OFFCURVE",
"460 32 OFFCURVE",
"319 32 CURVE SMOOTH"
);
},
{
closed = 1;
nodes = (
"786 553 OFFCURVE",
"831 616 OFFCURVE",
"841 664 CURVE SMOOTH",
"847 695 OFFCURVE",
"848 738 OFFCURVE",
"791 738 CURVE SMOOTH",
"747 738 OFFCURVE",
"728 708 OFFCURVE",
"723 683 CURVE SMOOTH",
"716 650 OFFCURVE",
"732 630 OFFCURVE",
"761 630 CURVE SMOOTH",
"767 630 OFFCURVE",
"773 631 OFFCURVE",
"779 634 CURVE",
"761 587 OFFCURVE",
"705 543 OFFCURVE",
"677 525 CURVE",
"692 495 LINE"
);
},
{
closed = 1;
nodes = (
"309 -160 OFFCURVE",
"333 -138 OFFCURVE",
"339 -109 CURVE SMOOTH",
"346 -79 OFFCURVE",
"330 -57 OFFCURVE",
"300 -57 CURVE SMOOTH",
"272 -57 OFFCURVE",
"249 -79 OFFCURVE",
"242 -109 CURVE SMOOTH",
"236 -138 OFFCURVE",
"251 -160 OFFCURVE",
"279 -160 CURVE SMOOTH"
);
}
);
width = 732;
}
);
leftKerningGroup = O;
note = Ohorndotbelow;
rightKerningGroup = O;
unicode = 1EE2;
},
{
glyphname = Ohorngrave;
lastChange = "2015-10-27 09:00:36 +0000";
layers = (
{
layerId = "FF1AE41B-C668-46D5-83F9-5511CE68DF10";
name = "Regular Italic";
paths = (
{
closed = 1;
nodes = (
"516 -10 OFFCURVE",
"655 127 OFFCURVE",
"701 350 CURVE SMOOTH",
"746 572 OFFCURVE",
"662 710 OFFCURVE",
"457 710 CURVE SMOOTH",
"251 710 OFFCURVE",
"112 572 OFFCURVE",
"67 350 CURVE SMOOTH",
"21 127 OFFCURVE",
"104 -10 OFFCURVE",
"310 -10 CURVE SMOOTH"
);
},
{
closed = 1;
nodes = (
"178 32 OFFCURVE",
"140 166 OFFCURVE",
"178 350 CURVE SMOOTH",
"215 534 OFFCURVE",
"307 668 OFFCURVE",
"448 668 CURVE SMOOTH",
"589 668 OFFCURVE",
"628 534 OFFCURVE",
"590 350 CURVE SMOOTH",
"553 166 OFFCURVE",
"460 32 OFFCURVE",
"319 32 CURVE SMOOTH"
);
},
{
closed = 1;
nodes = (
"572 812 LINE",
"483 926 LINE SMOOTH",
"476 934 OFFCURVE",
"463 952 OFFCURVE",
"440 952 CURVE SMOOTH",
"415 952 OFFCURVE",
"400 935 OFFCURVE",
"396 920 CURVE",
"393 901 OFFCURVE",
"403 886 OFFCURVE",
"424 871 CURVE SMOOTH",
"549 785 LINE"
);
},
{
closed = 1;
nodes = (
"786 553 OFFCURVE",
"831 616 OFFCURVE",
"841 664 CURVE SMOOTH",
"847 695 OFFCURVE",
"848 738 OFFCURVE",
"791 738 CURVE SMOOTH",
"747 738 OFFCURVE",
"728 708 OFFCURVE",
"723 683 CURVE SMOOTH",
"716 650 OFFCURVE",
"732 630 OFFCURVE",
"761 630 CURVE SMOOTH",
"767 630 OFFCURVE",
"773 631 OFFCURVE",
"779 634 CURVE",
"761 587 OFFCURVE",
"705 543 OFFCURVE",
"677 525 CURVE",
"692 495 LINE"
);
}
);
width = 732;
}
);
leftKerningGroup = O;
note = Ohorngrave;
rightKerningGroup = O;
unicode = 1EDC;
},
{
glyphname = Ohornhookabove;
lastChange = "2015-10-27 09:00:36 +0000";
layers = (
{
layerId = "FF1AE41B-C668-46D5-83F9-5511CE68DF10";
name = "Regular Italic";
paths = (
{
closed = 1;
nodes = (
"516 -10 OFFCURVE",
"655 127 OFFCURVE",
"701 350 CURVE SMOOTH",
"746 572 OFFCURVE",
"662 710 OFFCURVE",
"457 710 CURVE SMOOTH",
"251 710 OFFCURVE",
"112 572 OFFCURVE",
"67 350 CURVE SMOOTH",
"21 127 OFFCURVE",
"104 -10 OFFCURVE",
"310 -10 CURVE SMOOTH"
);
},
{
closed = 1;
nodes = (
"178 32 OFFCURVE",
"140 166 OFFCURVE",
"178 350 CURVE SMOOTH",
"215 534 OFFCURVE",
"307 668 OFFCURVE",
"448 668 CURVE SMOOTH",
"589 668 OFFCURVE",
"628 534 OFFCURVE",
"590 350 CURVE SMOOTH",
"553 166 OFFCURVE",
"460 32 OFFCURVE",
"319 32 CURVE SMOOTH"
);
},
{
closed = 1;
nodes = (
"786 553 OFFCURVE",
"831 616 OFFCURVE",
"841 664 CURVE SMOOTH",
"847 695 OFFCURVE",
"848 738 OFFCURVE",
"791 738 CURVE SMOOTH",
"747 738 OFFCURVE",
"728 708 OFFCURVE",
"723 683 CURVE SMOOTH",
"716 650 OFFCURVE",
"732 630 OFFCURVE",
"761 630 CURVE SMOOTH",
"767 630 OFFCURVE",
"773 631 OFFCURVE",
"779 634 CURVE",
"761 587 OFFCURVE",
"705 543 OFFCURVE",
"677 525 CURVE",
"692 495 LINE"
);
},
{
closed = 1;
nodes = (
"491 779 LINE",
"514 845 LINE",
"565 850 OFFCURVE",
"604 873 OFFCURVE",
"613 924 CURVE SMOOTH",
"626 983 OFFCURVE",
"581 1007 OFFCURVE",
"530 1007 CURVE SMOOTH",
"500 1007 OFFCURVE",
"469 999 OFFCURVE",
"449 990 CURVE",
"449 957 LINE",
"470 968 OFFCURVE",
"492 973 OFFCURVE",
"509 973 CURVE SMOOTH",
"547 973 OFFCURVE",
"563 951 OFFCURVE",
"557 926 CURVE SMOOTH",
"550 892 OFFCURVE",
"522 874 OFFCURVE",
"488 874 CURVE SMOOTH",
"460 874 LINE",
"445 779 LINE"
);
}
);
width = 732;
}
);
leftKerningGroup = O;
note = Ohornhookabove;
rightKerningGroup = O;
unicode = 1EDE;
},
{
glyphname = Ohorntilde;
lastChange = "2015-10-27 09:00:35 +0000";
layers = (
{
layerId = "FF1AE41B-C668-46D5-83F9-5511CE68DF10";
name = "Regular Italic";
paths = (
{
closed = 1;
nodes = (
"516 -10 OFFCURVE",
"655 127 OFFCURVE",
"701 350 CURVE SMOOTH",
"746 572 OFFCURVE",
"662 710 OFFCURVE",
"457 710 CURVE SMOOTH",
"251 710 OFFCURVE",
"112 572 OFFCURVE",
"67 350 CURVE SMOOTH",
"21 127 OFFCURVE",
"104 -10 OFFCURVE",
"310 -10 CURVE SMOOTH"
);
},
{
closed = 1;
nodes = (
"178 32 OFFCURVE",
"140 166 OFFCURVE",
"178 350 CURVE SMOOTH",
"215 534 OFFCURVE",
"307 668 OFFCURVE",
"448 668 CURVE SMOOTH",
"589 668 OFFCURVE",
"628 534 OFFCURVE",
"590 350 CURVE SMOOTH",
"553 166 OFFCURVE",
"460 32 OFFCURVE",
"319 32 CURVE SMOOTH"
);
},
{
closed = 1;
nodes = (
"339 786 LINE",
"352 820 OFFCURVE",
"382 842 OFFCURVE",
"411 842 CURVE SMOOTH",
"448 842 OFFCURVE",
"494 787 OFFCURVE",
"545 787 CURVE SMOOTH",
"608 787 OFFCURVE",
"647 830 OFFCURVE",
"668 896 CURVE",
"633 896 LINE",
"614 852 OFFCURVE",
"584 838 OFFCURVE",
"557 838 CURVE SMOOTH",
"517 838 OFFCURVE",
"483 892 OFFCURVE",
"423 892 CURVE SMOOTH",
"368 892 OFFCURVE",
"324 858 OFFCURVE",
"300 786 CURVE"
);
},
{
closed = 1;
nodes = (
"786 553 OFFCURVE",
"831 616 OFFCURVE",
"841 664 CURVE SMOOTH",
"847 695 OFFCURVE",
"848 738 OFFCURVE",
"791 738 CURVE SMOOTH",
"747 738 OFFCURVE",
"728 708 OFFCURVE",
"723 683 CURVE SMOOTH",
"716 650 OFFCURVE",
"732 630 OFFCURVE",
"761 630 CURVE SMOOTH",
"767 630 OFFCURVE",
"773 631 OFFCURVE",
"779 634 CURVE",
"761 587 OFFCURVE",
"705 543 OFFCURVE",
"677 525 CURVE",
"692 495 LINE"
);
}
);
width = 732;
}
);
leftKerningGroup = O;
note = Ohorntilde;
rightKerningGroup = O;
unicode = 1EE0;
},
{
glyphname = Ohungarumlaut;
lastChange = "2015-10-27 09:00:35 +0000";
layers = (
{
layerId = "FF1AE41B-C668-46D5-83F9-5511CE68DF10";
name = "Regular Italic";
paths = (
{
closed = 1;
nodes = (
"516 -10 OFFCURVE",
"655 127 OFFCURVE",
"701 350 CURVE SMOOTH",
"746 572 OFFCURVE",
"662 710 OFFCURVE",
"457 710 CURVE SMOOTH",
"251 710 OFFCURVE",
"112 572 OFFCURVE",
"67 350 CURVE SMOOTH",
"21 127 OFFCURVE",
"104 -10 OFFCURVE",
"310 -10 CURVE SMOOTH"
);
},
{
closed = 1;
nodes = (
"178 32 OFFCURVE",
"140 166 OFFCURVE",
"178 350 CURVE SMOOTH",
"215 534 OFFCURVE",
"307 668 OFFCURVE",
"448 668 CURVE SMOOTH",
"589 668 OFFCURVE",
"628 534 OFFCURVE",
"590 350 CURVE SMOOTH",
"553 166 OFFCURVE",
"460 32 OFFCURVE",
"319 32 CURVE SMOOTH"
);
},
{
closed = 1;
nodes = (
"498 871 LINE SMOOTH",
"525 886 OFFCURVE",
"541 901 OFFCURVE",
"545 920 CURVE SMOOTH",
"548 935 OFFCURVE",
"540 952 OFFCURVE",
"516 952 CURVE SMOOTH",
"492 952 OFFCURVE",
"468 932 OFFCURVE",
"461 925 CURVE",
"326 812 LINE",
"339 785 LINE"
);
},
{
closed = 1;
nodes = (
"695 871 LINE SMOOTH",
"722 886 OFFCURVE",
"738 901 OFFCURVE",
"742 920 CURVE SMOOTH",
"745 935 OFFCURVE",
"737 952 OFFCURVE",
"712 952 CURVE SMOOTH",
"688 952 OFFCURVE",
"665 932 OFFCURVE",
"658 925 CURVE",
"522 812 LINE",
"535 785 LINE"
);
}
);
width = 703;
}
);
leftKerningGroup = O;
note = Ohungarumlaut;
rightKerningGroup = O;
unicode = 0150;
},
{
glyphname = Omacron;
lastChange = "2015-10-27 09:00:36 +0000";
layers = (
{
layerId = "FF1AE41B-C668-46D5-83F9-5511CE68DF10";
name = "Regular Italic";
paths = (
{
closed = 1;
nodes = (
"516 -10 OFFCURVE",
"655 127 OFFCURVE",
"701 350 CURVE SMOOTH",
"746 572 OFFCURVE",
"662 710 OFFCURVE",
"457 710 CURVE SMOOTH",
"251 710 OFFCURVE",
"112 572 OFFCURVE",
"67 350 CURVE SMOOTH",
"21 127 OFFCURVE",
"104 -10 OFFCURVE",
"310 -10 CURVE SMOOTH"
);
},
{
closed = 1;
nodes = (
"178 32 OFFCURVE",
"140 166 OFFCURVE",
"178 350 CURVE SMOOTH",
"215 534 OFFCURVE",
"307 668 OFFCURVE",
"448 668 CURVE SMOOTH",
"589 668 OFFCURVE",
"628 534 OFFCURVE",
"590 350 CURVE SMOOTH",
"553 166 OFFCURVE",
"460 32 OFFCURVE",
"319 32 CURVE SMOOTH"
);
},
{
closed = 1;
nodes = (
"642 795 LINE",
"650 835 LINE",
"313 835 LINE",
"305 795 LINE"
);
}
);
width = 703;
}
);
leftKerningGroup = O;
note = Omacron;
rightKerningGroup = O;
unicode = 014C;
},
{
glyphname = Oslash;
lastChange = "2015-11-28 11:44:55 +0000";
layers = (
{
layerId = "FF1AE41B-C668-46D5-83F9-5511CE68DF10";
name = "Regular Italic";
paths = (
{
closed = 1;
nodes = (
"516 -10 OFFCURVE",
"655 127 OFFCURVE",
"701 350 CURVE SMOOTH",
"746 572 OFFCURVE",
"662 710 OFFCURVE",
"457 710 CURVE SMOOTH",
"251 710 OFFCURVE",
"112 572 OFFCURVE",
"67 350 CURVE SMOOTH",
"21 127 OFFCURVE",
"104 -10 OFFCURVE",
"310 -10 CURVE SMOOTH"
);
},
{
closed = 1;
nodes = (
"178 32 OFFCURVE",
"140 166 OFFCURVE",
"178 350 CURVE SMOOTH",
"215 534 OFFCURVE",
"307 668 OFFCURVE",
"448 668 CURVE SMOOTH",
"589 668 OFFCURVE",
"628 534 OFFCURVE",
"590 350 CURVE SMOOTH",
"553 166 OFFCURVE",
"460 32 OFFCURVE",
"319 32 CURVE SMOOTH"
);
},
{
closed = 1;
nodes = (
"719 696 LINE",
"690 722 LINE",
"29 -6 LINE",
"57 -32 LINE"
);
}
);
width = 703;
}
);
leftKerningGroup = O;
note = Oslash;
rightKerningGroup = O;
unicode = 00D8;
},
{
glyphname = Oslashacute;
lastChange = "2015-11-28 11:45:01 +0000";
layers = (
{
layerId = "FF1AE41B-C668-46D5-83F9-5511CE68DF10";
name = "Regular Italic";
paths = (
{
closed = 1;
nodes = (
"516 -10 OFFCURVE",
"655 127 OFFCURVE",
"701 350 CURVE SMOOTH",
"746 572 OFFCURVE",
"662 710 OFFCURVE",
"457 710 CURVE SMOOTH",
"251 710 OFFCURVE",
"112 572 OFFCURVE",
"67 350 CURVE SMOOTH",
"21 127 OFFCURVE",
"104 -10 OFFCURVE",
"310 -10 CURVE SMOOTH"
);
},
{
closed = 1;
nodes = (
"178 32 OFFCURVE",
"140 166 OFFCURVE",
"178 350 CURVE SMOOTH",
"215 534 OFFCURVE",
"307 668 OFFCURVE",
"448 668 CURVE SMOOTH",
"589 668 OFFCURVE",
"628 534 OFFCURVE",
"590 350 CURVE SMOOTH",
"553 166 OFFCURVE",
"460 32 OFFCURVE",
"319 32 CURVE SMOOTH"
);
},
{
closed = 1;
nodes = (
"565 872 LINE SMOOTH",
"592 887 OFFCURVE",
"608 902 OFFCURVE",
"612 921 CURVE",
"615 936 OFFCURVE",
"607 953 OFFCURVE",
"583 953 CURVE SMOOTH",
"558 953 OFFCURVE",
"536 933 OFFCURVE",
"528 926 CURVE",
"393 813 LINE",
"406 786 LINE"
);
},
{
closed = 1;
nodes = (
"719 696 LINE",
"690 722 LINE",
"29 -6 LINE",
"57 -32 LINE"
);
}
);
width = 703;
}
);
leftKerningGroup = O;
note = Oslashacute;
rightKerningGroup = O;
unicode = 01FE;
},
{
glyphname = Otilde;
lastChange = "2015-10-27 09:00:36 +0000";
layers = (
{
layerId = "FF1AE41B-C668-46D5-83F9-5511CE68DF10";
name = "Regular Italic";
paths = (
{
closed = 1;
nodes = (
"516 -10 OFFCURVE",
"655 127 OFFCURVE",
"701 350 CURVE SMOOTH",
"746 572 OFFCURVE",
"662 710 OFFCURVE",
"457 710 CURVE SMOOTH",
"251 710 OFFCURVE",
"112 572 OFFCURVE",
"67 350 CURVE SMOOTH",
"21 127 OFFCURVE",
"104 -10 OFFCURVE",
"310 -10 CURVE SMOOTH"
);
},
{
closed = 1;
nodes = (
"178 32 OFFCURVE",
"140 166 OFFCURVE",
"178 350 CURVE SMOOTH",
"215 534 OFFCURVE",
"307 668 OFFCURVE",
"448 668 CURVE SMOOTH",
"589 668 OFFCURVE",
"628 534 OFFCURVE",
"590 350 CURVE SMOOTH",
"553 166 OFFCURVE",
"460 32 OFFCURVE",
"319 32 CURVE SMOOTH"
);
},
{
closed = 1;
nodes = (
"338 786 LINE",
"351 820 OFFCURVE",
"381 842 OFFCURVE",
"410 842 CURVE SMOOTH",
"447 842 OFFCURVE",
"493 787 OFFCURVE",
"544 787 CURVE SMOOTH",
"607 787 OFFCURVE",
"646 830 OFFCURVE",
"667 896 CURVE",
"632 896 LINE",
"613 852 OFFCURVE",
"583 838 OFFCURVE",
"556 838 CURVE SMOOTH",
"516 838 OFFCURVE",
"482 892 OFFCURVE",
"422 892 CURVE SMOOTH",
"367 892 OFFCURVE",
"324 858 OFFCURVE",
"300 786 CURVE"
);
}
);
width = 703;
}
);
leftKerningGroup = O;
note = Otilde;
rightKerningGroup = O;
unicode = 00D5;
},
{
glyphname = OE;
lastChange = "2015-10-27 09:00:36 +0000";
layers = (
{
layerId = "FF1AE41B-C668-46D5-83F9-5511CE68DF10";
name = "Regular Italic";
paths = (
{
closed = 1;
nodes = (
"363 -10 OFFCURVE",
"417 7 OFFCURVE",
"468 47 CURVE",
"459 0 LINE",
"888 0 LINE",
"934 155 LINE",
"909 155 LINE",
"892 135 OFFCURVE",
"855 72 OFFCURVE",
"846 40 CURVE",
"576 40 LINE",
"637 339 LINE",
"827 339 LINE",
"825 322 OFFCURVE",
"823 282 OFFCURVE",
"828 255 CURVE",
"846 255 LINE",
"888 464 LINE",
"870 464 LINE",
"855 438 OFFCURVE",
"840 398 OFFCURVE",
"834 380 CURVE",
"645 380 LINE",
"703 659 LINE",
"969 659 LINE",
"965 631 OFFCURVE",
"968 565 OFFCURVE",
"974 544 CURVE",
"999 544 LINE",
"1031 700 LINE",
"601 700 LINE",
"591 650 LINE",
"561 688 OFFCURVE",
"510 710 OFFCURVE",
"440 710 CURVE SMOOTH",
"233 710 OFFCURVE",
"108 546 OFFCURVE",
"67 350 CURVE SMOOTH",
"27 153 OFFCURVE",
"86 -10 OFFCURVE",
"293 -10 CURVE SMOOTH"
);
},
{
closed = 1;
nodes = (
"179 32 OFFCURVE",
"141 166 OFFCURVE",
"179 350 CURVE SMOOTH",
"216 534 OFFCURVE",
"308 668 OFFCURVE",
"448 668 CURVE SMOOTH",
"513 668 OFFCURVE",
"558 633 OFFCURVE",
"578 588 CURVE",
"481 111 LINE",
"439 63 OFFCURVE",
"383 32 OFFCURVE",
"319 32 CURVE SMOOTH"
);
}
);
width = 985;
}
);
note = OE;
unicode = 0152;
},
{
glyphname = P;
lastChange = "2015-10-27 09:00:35 +0000";
layers = (
{
layerId = "FF1AE41B-C668-46D5-83F9-5511CE68DF10";
name = "Regular Italic";
paths = (
{
closed = 1;
nodes = (
"257 0 LINE",
"259 14 LINE",
"236 22 OFFCURVE",
"209 29 OFFCURVE",
"186 33 CURVE",
"235 275 LINE",
"374 275 LINE SMOOTH",
"521 275 OFFCURVE",
"608 372 OFFCURVE",
"632 493 CURVE SMOOTH",
"659 622 OFFCURVE",
"612 700 OFFCURVE",
"428 700 CURVE SMOOTH",
"136 700 LINE",
"133 686 LINE",
"157 677 OFFCURVE",
"181 671 OFFCURVE",
"205 666 CURVE",
"77 34 LINE",
"61 32 OFFCURVE",
"21 23 OFFCURVE",
"-5 15 CURVE",
"-8 0 LINE"
);
},
{
closed = 1;
nodes = (
"314 659 LINE",
"427 659 LINE SMOOTH",
"518 659 OFFCURVE",
"544 594 OFFCURVE",
"524 494 CURVE SMOOTH",
"504 396 OFFCURVE",
"450 315 OFFCURVE",
"356 315 CURVE SMOOTH",
"243 315 LINE"
);
}
);
width = 596;
}
);
note = P;
unicode = 0050;
},
{
glyphname = Thorn;
lastChange = "2015-10-27 09:00:37 +0000";
layers = (
{
layerId = "FF1AE41B-C668-46D5-83F9-5511CE68DF10";
name = "Regular Italic";
paths = (
{
closed = 1;
nodes = (
"257 0 LINE",
"259 14 LINE",
"236 22 OFFCURVE",
"210 29 OFFCURVE",
"186 33 CURVE",
"208 143 LINE",
"348 143 LINE SMOOTH",
"494 143 OFFCURVE",
"581 240 OFFCURVE",
"605 361 CURVE SMOOTH",
"629 477 OFFCURVE",
"592 567 OFFCURVE",
"433 567 CURVE SMOOTH",
"295 567 LINE",
"322 700 LINE",
"136 700 LINE",
"133 686 LINE",
"157 677 OFFCURVE",
"181 671 OFFCURVE",
"205 666 CURVE",
"77 34 LINE",
"62 32 OFFCURVE",
"22 23 OFFCURVE",
"-5 15 CURVE",
"-8 0 LINE"
);
},
{
closed = 1;
nodes = (
"287 527 LINE",
"400 527 LINE SMOOTH",
"492 527 OFFCURVE",
"516 461 OFFCURVE",
"496 362 CURVE SMOOTH",
"477 264 OFFCURVE",
"423 183 OFFCURVE",
"329 183 CURVE SMOOTH",
"216 183 LINE"
);
}
);
width = 595;
}
);
note = Thorn;
unicode = 00DE;
},
{
glyphname = Q;
lastChange = "2015-11-28 11:45:14 +0000";
layers = (
{
layerId = "FF1AE41B-C668-46D5-83F9-5511CE68DF10";
name = "Regular Italic";
paths = (
{
closed = 1;
nodes = (
"516 -10 OFFCURVE",
"655 127 OFFCURVE",
"701 350 CURVE SMOOTH",
"746 572 OFFCURVE",
"662 710 OFFCURVE",
"457 710 CURVE SMOOTH",
"251 710 OFFCURVE",
"112 572 OFFCURVE",
"67 350 CURVE SMOOTH",
"21 127 OFFCURVE",
"104 -10 OFFCURVE",
"310 -10 CURVE SMOOTH"
);
},
{
closed = 1;
nodes = (
"179 32 OFFCURVE",
"140 166 OFFCURVE",
"178 350 CURVE SMOOTH",
"215 534 OFFCURVE",
"308 668 OFFCURVE",
"448 668 CURVE SMOOTH",
"588 668 OFFCURVE",
"628 534 OFFCURVE",
"590 350 CURVE SMOOTH",
"553 166 OFFCURVE",
"459 32 OFFCURVE",
"319 32 CURVE SMOOTH"
);
},
{
closed = 1;
nodes = (
"519 -122 LINE",
"422 -113 OFFCURVE",
"373 -61 OFFCURVE",
"381 15 CURVE",
"275 15 LINE",
"267 -80 OFFCURVE",
"344 -144 OFFCURVE",
"512 -159 CURVE"
);
}
);
width = 703;
}
);
leftKerningGroup = O;
note = Q;
rightKerningGroup = O;
unicode = 0051;
},
{
glyphname = R;
lastChange = "2015-11-28 11:45:17 +0000";
layers = (
{
layerId = "FF1AE41B-C668-46D5-83F9-5511CE68DF10";
name = "Regular Italic";
paths = (
{
closed = 1;
nodes = (
"262 0 LINE",
"264 14 LINE",
"241 22 OFFCURVE",
"214 29 OFFCURVE",
"191 33 CURVE",
"245 300 LINE",
"392 300 LINE SMOOTH",
"527 300 OFFCURVE",
"618 378 OFFCURVE",
"643 503 CURVE SMOOTH",
"667 619 OFFCURVE",
"633 700 OFFCURVE",
"473 700 CURVE SMOOTH",
"141 700 LINE",
"138 686 LINE",
"162 677 OFFCURVE",
"186 671 OFFCURVE",
"210 666 CURVE",
"82 34 LINE",
"66 32 OFFCURVE",
"26 23 OFFCURVE",
"0 15 CURVE",
"-3 0 LINE"
);
},
{
closed = 1;
nodes = (
"319 659 LINE",
"432 659 LINE SMOOTH",
"527 659 OFFCURVE",
"556 604 OFFCURVE",
"536 504 CURVE SMOOTH",
"516 406 OFFCURVE",
"464 340 OFFCURVE",
"367 340 CURVE SMOOTH",
"253 340 LINE"
);
},
{
closed = 1;
nodes = (
"598 0 LINE",
"600 14 LINE",
"581 23 OFFCURVE",
"554 29 OFFCURVE",
"534 33 CURVE",
"441 312 LINE",
"344 312 LINE",
"440 0 LINE"
);
}
);
width = 659;
}
);
note = R;
rightKerningGroup = R;
unicode = 0052;
},
{
glyphname = Racute;
lastChange = "2015-11-28 11:45:20 +0000";
layers = (
{
layerId = "FF1AE41B-C668-46D5-83F9-5511CE68DF10";
name = "Regular Italic";
paths = (
{
closed = 1;
nodes = (
"262 0 LINE",
"264 14 LINE",
"241 22 OFFCURVE",
"214 29 OFFCURVE",
"191 33 CURVE",
"245 300 LINE",
"392 300 LINE SMOOTH",
"527 300 OFFCURVE",
"618 378 OFFCURVE",
"643 503 CURVE SMOOTH",
"667 619 OFFCURVE",
"633 700 OFFCURVE",
"473 700 CURVE SMOOTH",
"141 700 LINE",
"138 686 LINE",
"162 677 OFFCURVE",
"186 671 OFFCURVE",
"210 666 CURVE",
"82 34 LINE",
"66 32 OFFCURVE",
"26 23 OFFCURVE",
"0 15 CURVE",
"-3 0 LINE"
);
},
{
closed = 1;
nodes = (
"319 659 LINE",
"432 659 LINE SMOOTH",
"527 659 OFFCURVE",
"556 604 OFFCURVE",
"536 504 CURVE SMOOTH",
"516 406 OFFCURVE",
"464 340 OFFCURVE",
"367 340 CURVE SMOOTH",
"253 340 LINE"
);
},
{
closed = 1;
nodes = (
"598 0 LINE",
"600 14 LINE",
"581 23 OFFCURVE",
"554 29 OFFCURVE",
"534 33 CURVE",
"441 312 LINE",
"344 312 LINE",
"440 0 LINE"
);
},
{
closed = 1;
nodes = (
"532 872 LINE SMOOTH",
"559 887 OFFCURVE",
"574 902 OFFCURVE",
"578 921 CURVE",
"582 936 OFFCURVE",
"573 953 OFFCURVE",
"549 953 CURVE SMOOTH",
"524 953 OFFCURVE",
"502 933 OFFCURVE",
"494 926 CURVE",
"359 813 LINE",
"372 786 LINE"
);
}
);
width = 659;
}
);
note = Racute;
rightKerningGroup = R;
unicode = 0154;
},
{
glyphname = Rcaron;
lastChange = "2015-11-28 11:45:23 +0000";
layers = (
{
layerId = "FF1AE41B-C668-46D5-83F9-5511CE68DF10";
name = "Regular Italic";
paths = (
{
closed = 1;
nodes = (
"262 0 LINE",
"264 14 LINE",
"241 22 OFFCURVE",
"214 29 OFFCURVE",
"191 33 CURVE",
"245 300 LINE",
"392 300 LINE SMOOTH",
"527 300 OFFCURVE",
"618 378 OFFCURVE",
"643 503 CURVE SMOOTH",
"667 619 OFFCURVE",
"633 700 OFFCURVE",
"473 700 CURVE SMOOTH",
"141 700 LINE",
"138 686 LINE",
"162 677 OFFCURVE",
"186 671 OFFCURVE",
"210 666 CURVE",
"82 34 LINE",
"66 32 OFFCURVE",
"26 23 OFFCURVE",
"0 15 CURVE",
"-3 0 LINE"
);
},
{
closed = 1;
nodes = (
"319 659 LINE",
"432 659 LINE SMOOTH",
"527 659 OFFCURVE",
"556 604 OFFCURVE",
"536 504 CURVE SMOOTH",
"516 406 OFFCURVE",
"464 340 OFFCURVE",
"367 340 CURVE SMOOTH",
"253 340 LINE"
);
},
{
closed = 1;
nodes = (
"598 0 LINE",
"600 14 LINE",
"581 23 OFFCURVE",
"554 29 OFFCURVE",
"534 33 CURVE",
"441 312 LINE",
"344 312 LINE",
"440 0 LINE"
);
},
{
closed = 1;
nodes = (
"468 786 LINE",
"502 826 OFFCURVE",
"582 888 OFFCURVE",
"628 916 CURVE",
"591 952 LINE",
"548 923 OFFCURVE",
"487 873 OFFCURVE",
"455 837 CURVE",
"450 837 LINE",
"434 873 OFFCURVE",
"394 923 OFFCURVE",
"362 952 CURVE",
"311 916 LINE",
"345 888 OFFCURVE",
"399 826 OFFCURVE",
"418 786 CURVE"
);
}
);
width = 659;
}
);
note = Rcaron;
rightKerningGroup = R;
unicode = 0158;
},
{
glyphname = Rcommaaccent;
lastChange = "2015-11-28 11:45:26 +0000";
layers = (
{
layerId = "FF1AE41B-C668-46D5-83F9-5511CE68DF10";
name = "Regular Italic";
paths = (
{
closed = 1;
nodes = (
"262 0 LINE",
"264 14 LINE",
"241 22 OFFCURVE",
"214 29 OFFCURVE",
"191 33 CURVE",
"245 300 LINE",
"392 300 LINE SMOOTH",
"527 300 OFFCURVE",
"618 378 OFFCURVE",
"643 503 CURVE SMOOTH",
"667 619 OFFCURVE",
"633 700 OFFCURVE",
"473 700 CURVE SMOOTH",
"141 700 LINE",
"138 686 LINE",
"162 677 OFFCURVE",
"186 671 OFFCURVE",
"210 666 CURVE",
"82 34 LINE",
"66 32 OFFCURVE",
"26 23 OFFCURVE",
"0 15 CURVE",
"-3 0 LINE"
);
},
{
closed = 1;
nodes = (
"319 659 LINE",
"432 659 LINE SMOOTH",
"527 659 OFFCURVE",
"556 604 OFFCURVE",
"536 504 CURVE SMOOTH",
"516 406 OFFCURVE",
"464 340 OFFCURVE",
"367 340 CURVE SMOOTH",
"253 340 LINE"
);
},
{
closed = 1;
nodes = (
"280 -281 OFFCURVE",
"328 -205 OFFCURVE",
"341 -143 CURVE SMOOTH",
"348 -104 OFFCURVE",
"338 -73 OFFCURVE",
"293 -73 CURVE SMOOTH",
"263 -73 OFFCURVE",
"230 -92 OFFCURVE",
"223 -128 CURVE SMOOTH",
"215 -166 OFFCURVE",
"235 -183 OFFCURVE",
"273 -183 CURVE",
"259 -225 OFFCURVE",
"227 -268 OFFCURVE",
"197 -295 CURVE",
"227 -324 LINE"
);
},
{
closed = 1;
nodes = (
"598 0 LINE",
"600 14 LINE",
"581 23 OFFCURVE",
"554 29 OFFCURVE",
"534 33 CURVE",
"441 312 LINE",
"344 312 LINE",
"440 0 LINE"
);
}
);
width = 659;
}
);
note = Rcommaaccent;
rightKerningGroup = R;
unicode = 0156;
},
{
glyphname = Rdotbelow;
lastChange = "2015-11-28 11:45:30 +0000";
layers = (
{
layerId = "FF1AE41B-C668-46D5-83F9-5511CE68DF10";
name = "Regular Italic";
paths = (
{
closed = 1;
nodes = (
"262 0 LINE",
"264 14 LINE",
"241 22 OFFCURVE",
"214 29 OFFCURVE",
"191 33 CURVE",
"245 300 LINE",
"392 300 LINE SMOOTH",
"527 300 OFFCURVE",
"618 378 OFFCURVE",
"643 503 CURVE SMOOTH",
"667 619 OFFCURVE",
"633 700 OFFCURVE",
"473 700 CURVE SMOOTH",
"141 700 LINE",
"138 686 LINE",
"162 677 OFFCURVE",
"186 671 OFFCURVE",
"210 666 CURVE",
"82 34 LINE",
"66 32 OFFCURVE",
"26 23 OFFCURVE",
"0 15 CURVE",
"-3 0 LINE"
);
},
{
closed = 1;
nodes = (
"319 659 LINE",
"432 659 LINE SMOOTH",
"527 659 OFFCURVE",
"556 604 OFFCURVE",
"536 504 CURVE SMOOTH",
"516 406 OFFCURVE",
"464 340 OFFCURVE",
"367 340 CURVE SMOOTH",
"253 340 LINE"
);
},
{
closed = 1;
nodes = (
"297 -160 OFFCURVE",
"321 -138 OFFCURVE",
"326 -109 CURVE SMOOTH",
"333 -79 OFFCURVE",
"318 -57 OFFCURVE",
"288 -57 CURVE SMOOTH",
"259 -57 OFFCURVE",
"236 -79 OFFCURVE",
"229 -109 CURVE SMOOTH",
"224 -138 OFFCURVE",
"238 -160 OFFCURVE",
"267 -160 CURVE SMOOTH"
);
},
{
closed = 1;
nodes = (
"598 0 LINE",
"600 14 LINE",
"581 23 OFFCURVE",
"554 29 OFFCURVE",
"534 33 CURVE",
"441 312 LINE",
"344 312 LINE",
"440 0 LINE"
);
}
);
width = 659;
}
);
note = Rdotbelow;
rightKerningGroup = R;
unicode = 1E5A;
},
{
glyphname = Rdotbelowmacron;
lastChange = "2015-11-28 11:45:36 +0000";
layers = (
{
layerId = "FF1AE41B-C668-46D5-83F9-5511CE68DF10";
name = "Regular Italic";
paths = (
{
closed = 1;
nodes = (
"262 0 LINE",
"264 14 LINE",
"241 22 OFFCURVE",
"214 29 OFFCURVE",
"191 33 CURVE",
"245 300 LINE",
"392 300 LINE SMOOTH",
"527 300 OFFCURVE",
"618 378 OFFCURVE",
"643 503 CURVE SMOOTH",
"667 619 OFFCURVE",
"633 700 OFFCURVE",
"473 700 CURVE SMOOTH",
"141 700 LINE",
"138 686 LINE",
"162 677 OFFCURVE",
"186 671 OFFCURVE",
"210 666 CURVE",
"82 34 LINE",
"66 32 OFFCURVE",
"26 23 OFFCURVE",
"0 15 CURVE",
"-3 0 LINE"
);
},
{
closed = 1;
nodes = (
"319 659 LINE",
"432 659 LINE SMOOTH",
"527 659 OFFCURVE",
"556 604 OFFCURVE",
"536 504 CURVE SMOOTH",
"516 406 OFFCURVE",
"464 340 OFFCURVE",
"367 340 CURVE SMOOTH",
"253 340 LINE"
);
},
{
closed = 1;
nodes = (
"296 -160 OFFCURVE",
"320 -138 OFFCURVE",
"325 -109 CURVE SMOOTH",
"332 -79 OFFCURVE",
"317 -57 OFFCURVE",
"287 -57 CURVE SMOOTH",
"258 -57 OFFCURVE",
"235 -79 OFFCURVE",
"228 -109 CURVE SMOOTH",
"223 -138 OFFCURVE",
"237 -160 OFFCURVE",
"266 -160 CURVE SMOOTH"
);
},
{
closed = 1;
nodes = (
"598 0 LINE",
"600 14 LINE",
"581 23 OFFCURVE",
"554 29 OFFCURVE",
"534 33 CURVE",
"441 312 LINE",
"344 312 LINE",
"440 0 LINE"
);
},
{
closed = 1;
nodes = (
"595 785 LINE",
"604 825 LINE",
"239 825 LINE",
"230 785 LINE"
);
}
);
width = 659;
}
);
note = Rdotbelowmacron;
rightKerningGroup = R;
unicode = 1E5C;
},
{
glyphname = Rlinebelow;
lastChange = "2015-11-28 11:45:46 +0000";
layers = (
{
layerId = "FF1AE41B-C668-46D5-83F9-5511CE68DF10";
name = "Regular Italic";
paths = (
{
closed = 1;
nodes = (
"262 0 LINE",
"264 14 LINE",
"241 22 OFFCURVE",
"214 29 OFFCURVE",
"191 33 CURVE",
"245 300 LINE",
"392 300 LINE SMOOTH",
"527 300 OFFCURVE",
"618 378 OFFCURVE",
"643 503 CURVE SMOOTH",
"667 619 OFFCURVE",
"633 700 OFFCURVE",
"473 700 CURVE SMOOTH",
"141 700 LINE",
"138 686 LINE",
"162 677 OFFCURVE",
"186 671 OFFCURVE",
"210 666 CURVE",
"82 34 LINE",
"66 32 OFFCURVE",
"26 23 OFFCURVE",
"0 15 CURVE",
"-3 0 LINE"
);
},
{
closed = 1;
nodes = (
"319 659 LINE",
"432 659 LINE SMOOTH",
"527 659 OFFCURVE",
"556 604 OFFCURVE",
"536 504 CURVE SMOOTH",
"516 406 OFFCURVE",
"464 340 OFFCURVE",
"367 340 CURVE SMOOTH",
"253 340 LINE"
);
},
{
closed = 1;
nodes = (
"429 -105 LINE",
"437 -66 LINE",
"100 -66 LINE",
"92 -105 LINE"
);
},
{
closed = 1;
nodes = (
"598 0 LINE",
"600 14 LINE",
"581 23 OFFCURVE",
"554 29 OFFCURVE",
"534 33 CURVE",
"441 312 LINE",
"344 312 LINE",
"440 0 LINE"
);
}
);
width = 659;
}
);
note = Rlinebelow;
rightKerningGroup = R;
unicode = 1E5E;
},
{
glyphname = S;
lastChange = "2015-10-27 09:00:35 +0000";
layers = (
{
layerId = "FF1AE41B-C668-46D5-83F9-5511CE68DF10";
name = "Regular Italic";
paths = (
{
closed = 1;
nodes = (
"361 -10 OFFCURVE",
"482 63 OFFCURVE",
"507 188 CURVE SMOOTH",
"559 442 OFFCURVE",
"198 401 OFFCURVE",
"229 556 CURVE SMOOTH",
"244 630 OFFCURVE",
"305 668 OFFCURVE",
"399 668 CURVE SMOOTH",
"451 668 OFFCURVE",
"492 653 OFFCURVE",
"516 627 CURVE",
"511 588 OFFCURVE",
"509 543 OFFCURVE",
"513 514 CURVE",
"540 514 LINE",
"575 638 LINE",
"539 687 OFFCURVE",
"477 710 OFFCURVE",
"383 710 CURVE SMOOTH",
"244 710 OFFCURVE",
"138 654 OFFCURVE",
"114 539 CURVE SMOOTH",
"67 306 OFFCURVE",
"432 366 OFFCURVE",
"393 172 CURVE SMOOTH",
"373 78 OFFCURVE",
"286 32 OFFCURVE",
"204 32 CURVE SMOOTH",
"139 32 OFFCURVE",
"93 59 OFFCURVE",
"69 96 CURVE",
"74 134 OFFCURVE",
"82 193 OFFCURVE",
"77 223 CURVE",
"51 223 LINE",
"11 83 LINE",
"41 30 OFFCURVE",
"118 -10 OFFCURVE",
"224 -10 CURVE SMOOTH"
);
}
);
width = 541;
}
);
leftKerningGroup = S;
note = S;
rightKerningGroup = S;
unicode = 0053;
},
{
glyphname = Sacute;
lastChange = "2015-10-27 09:00:36 +0000";
layers = (
{
layerId = "FF1AE41B-C668-46D5-83F9-5511CE68DF10";
name = "Regular Italic";
paths = (
{
closed = 1;
nodes = (
"361 -10 OFFCURVE",
"482 63 OFFCURVE",
"507 188 CURVE SMOOTH",
"559 442 OFFCURVE",
"198 401 OFFCURVE",
"229 556 CURVE SMOOTH",
"244 630 OFFCURVE",
"305 668 OFFCURVE",
"399 668 CURVE SMOOTH",
"451 668 OFFCURVE",
"492 653 OFFCURVE",
"516 627 CURVE",
"511 588 OFFCURVE",
"509 543 OFFCURVE",
"513 514 CURVE",
"540 514 LINE",
"575 638 LINE",
"539 687 OFFCURVE",
"477 710 OFFCURVE",
"383 710 CURVE SMOOTH",
"244 710 OFFCURVE",
"138 654 OFFCURVE",
"114 539 CURVE SMOOTH",
"67 306 OFFCURVE",
"432 366 OFFCURVE",
"393 172 CURVE SMOOTH",
"373 78 OFFCURVE",
"286 32 OFFCURVE",
"204 32 CURVE SMOOTH",
"139 32 OFFCURVE",
"93 59 OFFCURVE",
"69 96 CURVE",
"74 134 OFFCURVE",
"82 193 OFFCURVE",
"77 223 CURVE",
"51 223 LINE",
"11 83 LINE",
"41 30 OFFCURVE",
"118 -10 OFFCURVE",
"224 -10 CURVE SMOOTH"
);
},
{
closed = 1;
nodes = (
"488 872 LINE SMOOTH",
"515 887 OFFCURVE",
"530 902 OFFCURVE",
"534 921 CURVE",
"538 936 OFFCURVE",
"529 953 OFFCURVE",
"505 953 CURVE SMOOTH",
"480 953 OFFCURVE",
"458 933 OFFCURVE",
"450 926 CURVE",
"315 813 LINE",
"328 786 LINE"
);
}
);
width = 541;
}
);
leftKerningGroup = S;
note = Sacute;
rightKerningGroup = S;
unicode = 015A;
},
{
glyphname = Scaron;
lastChange = "2015-10-27 09:00:36 +0000";
layers = (
{
layerId = "FF1AE41B-C668-46D5-83F9-5511CE68DF10";
name = "Regular Italic";
paths = (
{
closed = 1;
nodes = (
"361 -10 OFFCURVE",
"482 63 OFFCURVE",
"507 188 CURVE SMOOTH",
"559 442 OFFCURVE",
"198 401 OFFCURVE",
"229 556 CURVE SMOOTH",
"244 630 OFFCURVE",
"305 668 OFFCURVE",
"399 668 CURVE SMOOTH",
"451 668 OFFCURVE",
"492 653 OFFCURVE",
"516 627 CURVE",
"511 588 OFFCURVE",
"509 543 OFFCURVE",
"513 514 CURVE",
"540 514 LINE",
"575 638 LINE",
"539 687 OFFCURVE",
"477 710 OFFCURVE",
"383 710 CURVE SMOOTH",
"244 710 OFFCURVE",
"138 654 OFFCURVE",
"114 539 CURVE SMOOTH",
"67 306 OFFCURVE",
"432 366 OFFCURVE",
"393 172 CURVE SMOOTH",
"373 78 OFFCURVE",
"286 32 OFFCURVE",
"204 32 CURVE SMOOTH",
"139 32 OFFCURVE",
"93 59 OFFCURVE",
"69 96 CURVE",
"74 134 OFFCURVE",
"82 193 OFFCURVE",
"77 223 CURVE",
"51 223 LINE",
"11 83 LINE",
"41 30 OFFCURVE",
"118 -10 OFFCURVE",
"224 -10 CURVE SMOOTH"
);
},
{
closed = 1;
nodes = (
"417 786 LINE",
"450 826 OFFCURVE",
"530 888 OFFCURVE",
"576 916 CURVE",
"540 952 LINE",
"496 923 OFFCURVE",
"435 873 OFFCURVE",
"403 837 CURVE",
"398 837 LINE",
"382 873 OFFCURVE",
"342 923 OFFCURVE",
"310 952 CURVE",
"259 916 LINE",
"293 888 OFFCURVE",
"348 826 OFFCURVE",
"366 786 CURVE"
);
}
);
width = 541;
}
);
leftKerningGroup = S;
note = Scaron;
rightKerningGroup = S;
unicode = 0160;
},
{
glyphname = Scedilla;
lastChange = "2015-10-27 09:00:36 +0000";
layers = (
{
layerId = "FF1AE41B-C668-46D5-83F9-5511CE68DF10";
name = "Regular Italic";
paths = (
{
closed = 1;
nodes = (
"361 -10 OFFCURVE",
"482 63 OFFCURVE",
"507 188 CURVE SMOOTH",
"559 442 OFFCURVE",
"198 401 OFFCURVE",
"229 556 CURVE SMOOTH",
"244 630 OFFCURVE",
"305 668 OFFCURVE",
"399 668 CURVE SMOOTH",
"451 668 OFFCURVE",
"492 653 OFFCURVE",
"516 627 CURVE",
"511 588 OFFCURVE",
"509 543 OFFCURVE",
"513 514 CURVE",
"540 514 LINE",
"575 638 LINE",
"539 687 OFFCURVE",
"477 710 OFFCURVE",
"383 710 CURVE SMOOTH",
"244 710 OFFCURVE",
"138 654 OFFCURVE",
"114 539 CURVE SMOOTH",
"67 306 OFFCURVE",
"432 366 OFFCURVE",
"393 172 CURVE SMOOTH",
"373 78 OFFCURVE",
"286 32 OFFCURVE",
"204 32 CURVE SMOOTH",
"139 32 OFFCURVE",
"93 59 OFFCURVE",
"69 96 CURVE",
"74 134 OFFCURVE",
"82 193 OFFCURVE",
"77 223 CURVE",
"51 223 LINE",
"11 83 LINE",
"41 30 OFFCURVE",
"118 -10 OFFCURVE",
"224 -10 CURVE SMOOTH"
);
},
{
closed = 1;
nodes = (
"237 -230 OFFCURVE",
"298 -199 OFFCURVE",
"311 -136 CURVE SMOOTH",
"320 -91 OFFCURVE",
"288 -63 OFFCURVE",
"220 -63 CURVE",
"272 16 LINE",
"222 16 LINE",
"164 -69 LINE",
"180 -99 LINE",
"187 -98 OFFCURVE",
"196 -97 OFFCURVE",
"204 -97 CURVE SMOOTH",
"230 -97 OFFCURVE",
"260 -106 OFFCURVE",
"254 -136 CURVE SMOOTH",
"246 -175 OFFCURVE",
"211 -189 OFFCURVE",
"170 -189 CURVE SMOOTH",
"148 -189 OFFCURVE",
"124 -184 OFFCURVE",
"108 -175 CURVE",
"84 -207 LINE",
"105 -222 OFFCURVE",
"139 -230 OFFCURVE",
"169 -230 CURVE SMOOTH"
);
}
);
width = 541;
}
);
leftKerningGroup = S;
note = Scedilla;
rightKerningGroup = S;
unicode = 015E;
},
{
glyphname = Scircumflex;
lastChange = "2015-10-27 09:00:37 +0000";
layers = (
{
layerId = "FF1AE41B-C668-46D5-83F9-5511CE68DF10";
name = "Regular Italic";
paths = (
{
closed = 1;
nodes = (
"361 -10 OFFCURVE",
"482 63 OFFCURVE",
"507 188 CURVE SMOOTH",
"559 442 OFFCURVE",
"198 401 OFFCURVE",
"229 556 CURVE SMOOTH",
"244 630 OFFCURVE",
"305 668 OFFCURVE",
"399 668 CURVE SMOOTH",
"451 668 OFFCURVE",
"492 653 OFFCURVE",
"516 627 CURVE",
"511 588 OFFCURVE",
"509 543 OFFCURVE",
"513 514 CURVE",
"540 514 LINE",
"575 638 LINE",
"539 687 OFFCURVE",
"477 710 OFFCURVE",
"383 710 CURVE SMOOTH",
"244 710 OFFCURVE",
"138 654 OFFCURVE",
"114 539 CURVE SMOOTH",
"67 306 OFFCURVE",
"432 366 OFFCURVE",
"393 172 CURVE SMOOTH",
"373 78 OFFCURVE",
"286 32 OFFCURVE",
"204 32 CURVE SMOOTH",
"139 32 OFFCURVE",
"93 59 OFFCURVE",
"69 96 CURVE",
"74 134 OFFCURVE",
"82 193 OFFCURVE",
"77 223 CURVE",
"51 223 LINE",
"11 83 LINE",
"41 30 OFFCURVE",
"118 -10 OFFCURVE",
"224 -10 CURVE SMOOTH"
);
},
{
closed = 1;
nodes = (
"319 811 OFFCURVE",
"380 861 OFFCURVE",
"411 897 CURVE",
"416 897 LINE",
"433 861 OFFCURVE",
"473 811 OFFCURVE",
"505 781 CURVE",
"556 818 LINE",
"521 845 OFFCURVE",
"468 908 OFFCURVE",
"449 947 CURVE",
"398 947 LINE",
"365 908 OFFCURVE",
"284 845 OFFCURVE",
"239 818 CURVE",
"276 781 LINE"
);
}
);
width = 541;
}
);
leftKerningGroup = S;
note = Scircumflex;
rightKerningGroup = S;
unicode = 015C;
},
{
glyphname = Scommaaccent;
lastChange = "2015-10-27 09:00:36 +0000";
layers = (
{
layerId = "FF1AE41B-C668-46D5-83F9-5511CE68DF10";
name = "Regular Italic";
paths = (
{
closed = 1;
nodes = (
"361 -10 OFFCURVE",
"482 63 OFFCURVE",
"507 188 CURVE SMOOTH",
"559 442 OFFCURVE",
"198 401 OFFCURVE",
"229 556 CURVE SMOOTH",
"244 630 OFFCURVE",
"305 668 OFFCURVE",
"399 668 CURVE SMOOTH",
"451 668 OFFCURVE",
"492 653 OFFCURVE",
"516 627 CURVE",
"511 588 OFFCURVE",
"509 543 OFFCURVE",
"513 514 CURVE",
"540 514 LINE",
"575 638 LINE",
"539 687 OFFCURVE",
"477 710 OFFCURVE",
"383 710 CURVE SMOOTH",
"244 710 OFFCURVE",
"138 654 OFFCURVE",
"114 539 CURVE SMOOTH",
"67 306 OFFCURVE",
"432 366 OFFCURVE",
"393 172 CURVE SMOOTH",
"373 78 OFFCURVE",
"286 32 OFFCURVE",
"204 32 CURVE SMOOTH",
"139 32 OFFCURVE",
"93 59 OFFCURVE",
"69 96 CURVE",
"74 134 OFFCURVE",
"82 193 OFFCURVE",
"77 223 CURVE",
"51 223 LINE",
"11 83 LINE",
"41 30 OFFCURVE",
"118 -10 OFFCURVE",
"224 -10 CURVE SMOOTH"
);
},
{
closed = 1;
nodes = (
"207 -266 OFFCURVE",
"258 -187 OFFCURVE",
"271 -125 CURVE SMOOTH",
"278 -86 OFFCURVE",
"264 -53 OFFCURVE",
"219 -53 CURVE SMOOTH",
"187 -53 OFFCURVE",
"156 -76 OFFCURVE",
"149 -111 CURVE SMOOTH",
"142 -143 OFFCURVE",
"163 -167 OFFCURVE",
"192 -167 CURVE SMOOTH",
"194 -167 OFFCURVE",
"197 -167 OFFCURVE",
"200 -166 CURVE",
"186 -209 OFFCURVE",
"152 -253 OFFCURVE",
"123 -280 CURVE",
"154 -309 LINE"
);
}
);
width = 541;
}
);
leftKerningGroup = S;
note = Scommaaccent;
rightKerningGroup = S;
unicode = 0218;
},
{
glyphname = Sdotaccent;
lastChange = "2015-10-27 09:00:36 +0000";
layers = (
{
layerId = "FF1AE41B-C668-46D5-83F9-5511CE68DF10";
name = "Regular Italic";
paths = (
{
closed = 1;
nodes = (
"361 -10 OFFCURVE",
"482 63 OFFCURVE",
"507 188 CURVE SMOOTH",
"559 442 OFFCURVE",
"198 401 OFFCURVE",
"229 556 CURVE SMOOTH",
"244 630 OFFCURVE",
"305 668 OFFCURVE",
"399 668 CURVE SMOOTH",
"451 668 OFFCURVE",
"492 653 OFFCURVE",
"516 627 CURVE",
"511 588 OFFCURVE",
"509 543 OFFCURVE",
"513 514 CURVE",
"540 514 LINE",
"575 638 LINE",
"539 687 OFFCURVE",
"477 710 OFFCURVE",
"383 710 CURVE SMOOTH",
"244 710 OFFCURVE",
"138 654 OFFCURVE",
"114 539 CURVE SMOOTH",
"67 306 OFFCURVE",
"432 366 OFFCURVE",
"393 172 CURVE SMOOTH",
"373 78 OFFCURVE",
"286 32 OFFCURVE",
"204 32 CURVE SMOOTH",
"139 32 OFFCURVE",
"93 59 OFFCURVE",
"69 96 CURVE",
"74 134 OFFCURVE",
"82 193 OFFCURVE",
"77 223 CURVE",
"51 223 LINE",
"11 83 LINE",
"41 30 OFFCURVE",
"118 -10 OFFCURVE",
"224 -10 CURVE SMOOTH"
);
},
{
closed = 1;
nodes = (
"431 785 OFFCURVE",
"455 807 OFFCURVE",
"461 836 CURVE SMOOTH",
"468 866 OFFCURVE",
"452 888 OFFCURVE",
"423 888 CURVE SMOOTH",
"394 888 OFFCURVE",
"372 866 OFFCURVE",
"365 836 CURVE SMOOTH",
"359 807 OFFCURVE",
"372 785 OFFCURVE",
"402 785 CURVE SMOOTH"
);
}
);
width = 541;
}
);
leftKerningGroup = S;
note = Sdotaccent;
rightKerningGroup = S;
unicode = 1E60;
},
{
glyphname = Sdotbelow;
lastChange = "2015-10-27 09:00:37 +0000";
layers = (
{
layerId = "FF1AE41B-C668-46D5-83F9-5511CE68DF10";
name = "Regular Italic";
paths = (
{
closed = 1;
nodes = (
"361 -10 OFFCURVE",
"482 63 OFFCURVE",
"507 188 CURVE SMOOTH",
"559 442 OFFCURVE",
"198 401 OFFCURVE",
"229 556 CURVE SMOOTH",
"244 630 OFFCURVE",
"305 668 OFFCURVE",
"399 668 CURVE SMOOTH",
"451 668 OFFCURVE",
"492 653 OFFCURVE",
"516 627 CURVE",
"511 588 OFFCURVE",
"509 543 OFFCURVE",
"513 514 CURVE",
"540 514 LINE",
"575 638 LINE",
"539 687 OFFCURVE",
"477 710 OFFCURVE",
"383 710 CURVE SMOOTH",
"244 710 OFFCURVE",
"138 654 OFFCURVE",
"114 539 CURVE SMOOTH",
"67 306 OFFCURVE",
"432 366 OFFCURVE",
"393 172 CURVE SMOOTH",
"373 78 OFFCURVE",
"286 32 OFFCURVE",
"204 32 CURVE SMOOTH",
"139 32 OFFCURVE",
"93 59 OFFCURVE",
"69 96 CURVE",
"74 134 OFFCURVE",
"82 193 OFFCURVE",
"77 223 CURVE",
"51 223 LINE",
"11 83 LINE",
"41 30 OFFCURVE",
"118 -10 OFFCURVE",
"224 -10 CURVE SMOOTH"
);
},
{
closed = 1;
nodes = (
"229 -160 OFFCURVE",
"253 -138 OFFCURVE",
"259 -109 CURVE SMOOTH",
"266 -79 OFFCURVE",
"251 -57 OFFCURVE",
"221 -57 CURVE SMOOTH",
"192 -57 OFFCURVE",
"169 -79 OFFCURVE",
"162 -109 CURVE SMOOTH",
"156 -138 OFFCURVE",
"171 -160 OFFCURVE",
"200 -160 CURVE SMOOTH"
);
}
);
width = 541;
}
);
leftKerningGroup = S;
note = Sdotbelow;
rightKerningGroup = S;
unicode = 1E62;
},
{
glyphname = Germandbls;
lastChange = "2015-10-27 09:00:36 +0000";
layers = (
{
layerId = "FF1AE41B-C668-46D5-83F9-5511CE68DF10";
name = "Regular Italic";
paths = (
{
closed = 1;
nodes = (
"552 -10 OFFCURVE",
"647 89 OFFCURVE",
"671 204 CURVE SMOOTH",
"693 312 OFFCURVE",
"625 386 OFFCURVE",
"487 399 CURVE",
"661 554 LINE",
"655 628 OFFCURVE",
"590 710 OFFCURVE",
"454 710 CURVE SMOOTH",
"277 710 OFFCURVE",
"176 620 OFFCURVE",
"146 475 CURVE SMOOTH",
"57 34 LINE",
"29 29 OFFCURVE",
"0 22 OFFCURVE",
"-25 15 CURVE",
"-28 0 LINE",
"213 0 LINE",
"216 15 LINE",
"207 21 OFFCURVE",
"179 31 OFFCURVE",
"164 34 CURVE",
"260 506 LINE SMOOTH",
"281 607 OFFCURVE",
"346 668 OFFCURVE",
"439 668 CURVE SMOOTH",
"519 668 OFFCURVE",
"571 626 OFFCURVE",
"584 575 CURVE",
"373 386 LINE",
"368 361 LINE",
"436 361 LINE SMOOTH",
"541 361 OFFCURVE",
"582 296 OFFCURVE",
"564 204 CURVE SMOOTH",
"542 101 OFFCURVE",
"475 30 OFFCURVE",
"381 30 CURVE SMOOTH",
"340 30 OFFCURVE",
"297 38 OFFCURVE",
"258 54 CURVE",
"250 11 LINE",
"283 -3 OFFCURVE",
"325 -10 OFFCURVE",
"376 -10 CURVE SMOOTH"
);
}
);
width = 697;
}
);
note = uni1E9E;
unicode = 1E9E;
},
{
glyphname = Schwa;
lastChange = "2015-10-27 09:00:36 +0000";
layers = (
{
layerId = "FF1AE41B-C668-46D5-83F9-5511CE68DF10";
name = "Regular Italic";
paths = (
{
closed = 1;
nodes = (
"492 -10 OFFCURVE",
"648 111 OFFCURVE",
"696 344 CURVE SMOOTH",
"739 559 OFFCURVE",
"634 710 OFFCURVE",
"412 710 CURVE SMOOTH",
"283 710 OFFCURVE",
"196 668 OFFCURVE",
"146 634 CURVE",
"152 596 LINE",
"236 647 OFFCURVE",
"309 666 OFFCURVE",
"389 666 CURVE SMOOTH",
"565 666 OFFCURVE",
"623 504 OFFCURVE",
"588 330 CURVE SMOOTH",
"555 174 OFFCURVE",
"455 30 OFFCURVE",
"291 30 CURVE SMOOTH",
"157 30 OFFCURVE",
"134 172 OFFCURVE",
"160 298 CURVE",
"589 298 LINE",
"598 341 LINE",
"64 341 LINE",
"59 312 LINE SMOOTH",
"23 138 OFFCURVE",
"81 -10 OFFCURVE",
"287 -10 CURVE SMOOTH"
);
}
);
width = 698;
}
);
note = uni018F;
unicode = 018F;
},
{
glyphname = T;
lastChange = "2015-10-27 09:00:37 +0000";
layers = (
{
layerId = "FF1AE41B-C668-46D5-83F9-5511CE68DF10";
name = "Regular Italic";
paths = (
{
closed = 1;
nodes = (
"412 0 LINE",
"414 14 LINE",
"391 22 OFFCURVE",
"359 29 OFFCURVE",
"336 33 CURVE",
"464 659 LINE",
"632 659 LINE",
"628 631 OFFCURVE",
"627 550 OFFCURVE",
"635 529 CURVE",
"660 529 LINE",
"694 700 LINE",
"139 700 LINE",
"105 529 LINE",
"129 529 LINE",
"144 550 OFFCURVE",
"178 631 OFFCURVE",
"185 659 CURVE",
"354 659 LINE",
"227 34 LINE",
"196 28 OFFCURVE",
"166 22 OFFCURVE",
"140 15 CURVE",
"137 0 LINE"
);
}
);
width = 626;
}
);
leftKerningGroup = T;
note = T;
rightKerningGroup = T;
unicode = 0054;
},
{
glyphname = Tbar;
lastChange = "2015-10-27 09:00:37 +0000";
layers = (
{
layerId = "FF1AE41B-C668-46D5-83F9-5511CE68DF10";
name = "Regular Italic";
paths = (
{
closed = 1;
nodes = (
"412 0 LINE",
"414 14 LINE",
"391 22 OFFCURVE",
"359 29 OFFCURVE",
"336 33 CURVE",
"464 659 LINE",
"632 659 LINE",
"628 631 OFFCURVE",
"627 550 OFFCURVE",
"635 529 CURVE",
"660 529 LINE",
"694 700 LINE",
"139 700 LINE",
"105 529 LINE",
"129 529 LINE",
"144 550 OFFCURVE",
"178 631 OFFCURVE",
"185 659 CURVE",
"354 659 LINE",
"227 34 LINE",
"196 28 OFFCURVE",
"166 22 OFFCURVE",
"140 15 CURVE",
"137 0 LINE"
);
},
{
closed = 1;
nodes = (
"540 315 LINE",
"548 355 LINE",
"154 355 LINE",
"145 315 LINE"
);
}
);
width = 626;
}
);
leftKerningGroup = T;
note = Tbar;
rightKerningGroup = T;
unicode = 0166;
},
{
glyphname = Tcaron;
lastChange = "2015-10-27 09:00:37 +0000";
layers = (
{
layerId = "FF1AE41B-C668-46D5-83F9-5511CE68DF10";
name = "Regular Italic";
paths = (
{
closed = 1;
nodes = (
"412 0 LINE",
"414 14 LINE",
"391 22 OFFCURVE",
"359 29 OFFCURVE",
"336 33 CURVE",
"464 659 LINE",
"632 659 LINE",
"628 631 OFFCURVE",
"627 550 OFFCURVE",
"635 529 CURVE",
"660 529 LINE",
"694 700 LINE",
"139 700 LINE",
"105 529 LINE",
"129 529 LINE",
"144 550 OFFCURVE",
"178 631 OFFCURVE",
"185 659 CURVE",
"354 659 LINE",
"227 34 LINE",
"196 28 OFFCURVE",
"166 22 OFFCURVE",
"140 15 CURVE",
"137 0 LINE"
);
},
{
closed = 1;
nodes = (
"458 786 LINE",
"492 826 OFFCURVE",
"571 888 OFFCURVE",
"617 916 CURVE",
"581 952 LINE",
"538 923 OFFCURVE",
"476 873 OFFCURVE",
"444 837 CURVE",
"440 837 LINE",
"423 873 OFFCURVE",
"383 923 OFFCURVE",
"351 952 CURVE",
"300 916 LINE",
"334 888 OFFCURVE",
"389 826 OFFCURVE",
"407 786 CURVE"
);
}
);
width = 626;
}
);
leftKerningGroup = T;
note = Tcaron;
rightKerningGroup = T;
unicode = 0164;
},
{
glyphname = Tcedilla;
lastChange = "2015-10-27 09:00:36 +0000";
layers = (
{
layerId = "FF1AE41B-C668-46D5-83F9-5511CE68DF10";
name = "Regular Italic";
paths = (
{
closed = 1;
nodes = (
"412 0 LINE",
"414 14 LINE",
"391 22 OFFCURVE",
"359 29 OFFCURVE",
"336 33 CURVE",
"464 659 LINE",
"632 659 LINE",
"628 631 OFFCURVE",
"627 550 OFFCURVE",
"635 529 CURVE",
"660 529 LINE",
"694 700 LINE",
"139 700 LINE",
"105 529 LINE",
"129 529 LINE",
"144 550 OFFCURVE",
"178 631 OFFCURVE",
"185 659 CURVE",
"354 659 LINE",
"227 34 LINE",
"196 28 OFFCURVE",
"166 22 OFFCURVE",
"140 15 CURVE",
"137 0 LINE"
);
},
{
closed = 1;
nodes = (
"268 -230 OFFCURVE",
"329 -199 OFFCURVE",
"343 -136 CURVE SMOOTH",
"351 -94 OFFCURVE",
"324 -63 OFFCURVE",
"256 -63 CURVE SMOOTH",
"250 -63 LINE",
"302 16 LINE",
"252 16 LINE",
"194 -69 LINE",
"210 -99 LINE",
"218 -98 OFFCURVE",
"226 -97 OFFCURVE",
"233 -97 CURVE SMOOTH",
"261 -97 OFFCURVE",
"292 -106 OFFCURVE",
"286 -136 CURVE SMOOTH",
"277 -175 OFFCURVE",
"241 -189 OFFCURVE",
"201 -189 CURVE SMOOTH",
"178 -189 OFFCURVE",
"154 -184 OFFCURVE",
"137 -175 CURVE",
"113 -207 LINE",
"135 -222 OFFCURVE",
"170 -230 OFFCURVE",
"200 -230 CURVE SMOOTH"
);
}
);
width = 626;
}
);
leftKerningGroup = T;
note = Tcedilla;
rightKerningGroup = T;
unicode = 0162;
},
{
glyphname = Tcommaaccent;
lastChange = "2015-10-27 09:00:35 +0000";
layers = (
{
layerId = "FF1AE41B-C668-46D5-83F9-5511CE68DF10";
name = "Regular Italic";
paths = (
{
closed = 1;
nodes = (
"412 0 LINE",
"414 14 LINE",
"391 22 OFFCURVE",
"359 29 OFFCURVE",
"336 33 CURVE",
"464 659 LINE",
"632 659 LINE",
"628 631 OFFCURVE",
"627 550 OFFCURVE",
"635 529 CURVE",
"660 529 LINE",
"694 700 LINE",
"139 700 LINE",
"105 529 LINE",
"129 529 LINE",
"144 550 OFFCURVE",
"178 631 OFFCURVE",
"185 659 CURVE",
"354 659 LINE",
"227 34 LINE",
"196 28 OFFCURVE",
"166 22 OFFCURVE",
"140 15 CURVE",
"137 0 LINE"
);
},
{
closed = 1;
nodes = (
"245 -281 OFFCURVE",
"293 -205 OFFCURVE",
"305 -143 CURVE SMOOTH",
"313 -104 OFFCURVE",
"302 -73 OFFCURVE",
"257 -73 CURVE SMOOTH",
"228 -73 OFFCURVE",
"195 -92 OFFCURVE",
"187 -128 CURVE SMOOTH",
"180 -166 OFFCURVE",
"200 -183 OFFCURVE",
"237 -183 CURVE",
"224 -225 OFFCURVE",
"191 -268 OFFCURVE",
"161 -295 CURVE",
"191 -324 LINE"
);
}
);
width = 626;
}
);
leftKerningGroup = T;
note = Tcommaaccent;
rightKerningGroup = T;
unicode = 021A;
},
{
glyphname = Tdotbelow;
lastChange = "2015-10-27 09:00:36 +0000";
layers = (
{
layerId = "FF1AE41B-C668-46D5-83F9-5511CE68DF10";
name = "Regular Italic";
paths = (
{
closed = 1;
nodes = (
"412 0 LINE",
"414 14 LINE",
"391 22 OFFCURVE",
"359 29 OFFCURVE",
"336 33 CURVE",
"464 659 LINE",
"632 659 LINE",
"628 631 OFFCURVE",
"627 550 OFFCURVE",
"635 529 CURVE",
"660 529 LINE",
"694 700 LINE",
"139 700 LINE",
"105 529 LINE",
"129 529 LINE",
"144 550 OFFCURVE",
"178 631 OFFCURVE",
"185 659 CURVE",
"354 659 LINE",
"227 34 LINE",
"196 28 OFFCURVE",
"166 22 OFFCURVE",
"140 15 CURVE",
"137 0 LINE"
);
},
{
closed = 1;
nodes = (
"271 -160 OFFCURVE",
"295 -138 OFFCURVE",
"300 -109 CURVE SMOOTH",
"307 -79 OFFCURVE",
"292 -57 OFFCURVE",
"262 -57 CURVE SMOOTH",
"233 -57 OFFCURVE",
"210 -79 OFFCURVE",
"204 -109 CURVE SMOOTH",
"198 -138 OFFCURVE",
"212 -160 OFFCURVE",
"241 -160 CURVE SMOOTH"
);
}
);
width = 626;
}
);
leftKerningGroup = T;
note = Tdotbelow;
rightKerningGroup = T;
unicode = 1E6C;
},
{
glyphname = Tlinebelow;
lastChange = "2015-10-27 09:00:36 +0000";
layers = (
{
layerId = "FF1AE41B-C668-46D5-83F9-5511CE68DF10";
name = "Regular Italic";
paths = (
{
closed = 1;
nodes = (
"412 0 LINE",
"414 14 LINE",
"391 22 OFFCURVE",
"359 29 OFFCURVE",
"336 33 CURVE",
"464 659 LINE",
"632 659 LINE",
"628 631 OFFCURVE",
"627 550 OFFCURVE",
"635 529 CURVE",
"660 529 LINE",
"694 700 LINE",
"139 700 LINE",
"105 529 LINE",
"129 529 LINE",
"144 550 OFFCURVE",
"178 631 OFFCURVE",
"185 659 CURVE",
"354 659 LINE",
"227 34 LINE",
"196 28 OFFCURVE",
"166 22 OFFCURVE",
"140 15 CURVE",
"137 0 LINE"
);
},
{
closed = 1;
nodes = (
"420 -105 LINE",
"428 -66 LINE",
"91 -66 LINE",
"84 -105 LINE"
);
}
);
width = 626;
}
);
leftKerningGroup = T;
note = Tlinebelow;
rightKerningGroup = T;
unicode = 1E6E;
},
{
glyphname = U;
lastChange = "2015-10-27 09:00:36 +0000";
layers = (
{
layerId = "FF1AE41B-C668-46D5-83F9-5511CE68DF10";
name = "Regular Italic";
paths = (
{
closed = 1;
nodes = (
"508 -10 OFFCURVE",
"612 63 OFFCURVE",
"643 216 CURVE SMOOTH",
"735 665 LINE",
"754 668 OFFCURVE",
"784 675 OFFCURVE",
"818 686 CURVE",
"821 700 LINE",
"616 700 LINE",
"613 686 LINE",
"637 677 OFFCURVE",
"662 671 OFFCURVE",
"687 667 CURVE",
"593 204 LINE SMOOTH",
"566 75 OFFCURVE",
"472 32 OFFCURVE",
"373 32 CURVE SMOOTH",
"273 32 OFFCURVE",
"196 71 OFFCURVE",
"223 204 CURVE SMOOTH",
"317 666 LINE",
"345 671 OFFCURVE",
"372 677 OFFCURVE",
"397 685 CURVE",
"400 700 LINE",
"136 700 LINE",
"133 686 LINE",
"157 677 OFFCURVE",
"183 671 OFFCURVE",
"207 666 CURVE",
"115 216 LINE SMOOTH",
"84 57 OFFCURVE",
"169 -10 OFFCURVE",
"338 -10 CURVE SMOOTH"
);
}
);
width = 750;
}
);
leftKerningGroup = U;
note = U;
rightKerningGroup = U;
unicode = 0055;
},
{
glyphname = Uacute;
lastChange = "2015-10-27 09:00:37 +0000";
layers = (
{
layerId = "FF1AE41B-C668-46D5-83F9-5511CE68DF10";
name = "Regular Italic";
paths = (
{
closed = 1;
nodes = (
"508 -10 OFFCURVE",
"612 63 OFFCURVE",
"643 216 CURVE SMOOTH",
"735 665 LINE",
"754 668 OFFCURVE",
"784 675 OFFCURVE",
"818 686 CURVE",
"821 700 LINE",
"616 700 LINE",
"613 686 LINE",
"637 677 OFFCURVE",
"662 671 OFFCURVE",
"687 667 CURVE",
"593 204 LINE SMOOTH",
"566 75 OFFCURVE",
"472 32 OFFCURVE",
"373 32 CURVE SMOOTH",
"273 32 OFFCURVE",
"196 71 OFFCURVE",
"223 204 CURVE SMOOTH",
"317 666 LINE",
"345 671 OFFCURVE",
"372 677 OFFCURVE",
"397 685 CURVE",
"400 700 LINE",
"136 700 LINE",
"133 686 LINE",
"157 677 OFFCURVE",
"183 671 OFFCURVE",
"207 666 CURVE",
"115 216 LINE SMOOTH",
"84 57 OFFCURVE",
"169 -10 OFFCURVE",
"338 -10 CURVE SMOOTH"
);
},
{
closed = 1;
nodes = (
"606 872 LINE SMOOTH",
"633 887 OFFCURVE",
"648 902 OFFCURVE",
"652 921 CURVE",
"656 936 OFFCURVE",
"647 953 OFFCURVE",
"623 953 CURVE SMOOTH",
"598 953 OFFCURVE",
"576 933 OFFCURVE",
"568 926 CURVE",
"433 813 LINE",
"446 786 LINE"
);
}
);
width = 750;
}
);
leftKerningGroup = U;
note = Uacute;
rightKerningGroup = U;
unicode = 00DA;
},
{
glyphname = Ubreve;
lastChange = "2015-10-27 09:00:37 +0000";
layers = (
{
layerId = "FF1AE41B-C668-46D5-83F9-5511CE68DF10";
name = "Regular Italic";
paths = (
{
closed = 1;
nodes = (
"508 -10 OFFCURVE",
"612 63 OFFCURVE",
"643 216 CURVE SMOOTH",
"735 665 LINE",
"754 668 OFFCURVE",
"784 675 OFFCURVE",
"818 686 CURVE",
"821 700 LINE",
"616 700 LINE",
"613 686 LINE",
"637 677 OFFCURVE",
"662 671 OFFCURVE",
"687 667 CURVE",
"593 204 LINE SMOOTH",
"566 75 OFFCURVE",
"472 32 OFFCURVE",
"373 32 CURVE SMOOTH",
"273 32 OFFCURVE",
"196 71 OFFCURVE",
"223 204 CURVE SMOOTH",
"317 666 LINE",
"345 671 OFFCURVE",
"372 677 OFFCURVE",
"397 685 CURVE",
"400 700 LINE",
"136 700 LINE",
"133 686 LINE",
"157 677 OFFCURVE",
"183 671 OFFCURVE",
"207 666 CURVE",
"115 216 LINE SMOOTH",
"84 57 OFFCURVE",
"169 -10 OFFCURVE",
"338 -10 CURVE SMOOTH"
);
},
{
closed = 1;
nodes = (
"586 778 OFFCURVE",
"655 818 OFFCURVE",
"684 905 CURVE",
"620 905 LINE",
"597 830 OFFCURVE",
"548 820 OFFCURVE",
"509 820 CURVE SMOOTH",
"469 820 OFFCURVE",
"424 830 OFFCURVE",
"432 905 CURVE",
"370 905 LINE",
"364 818 OFFCURVE",
"415 778 OFFCURVE",
"500 778 CURVE SMOOTH"
);
}
);
width = 750;
}
);
leftKerningGroup = U;
note = Ubreve;
rightKerningGroup = U;
unicode = 016C;
},
{
glyphname = Ucaron;
lastChange = "2015-10-27 09:00:37 +0000";
layers = (
{
layerId = "FF1AE41B-C668-46D5-83F9-5511CE68DF10";
name = "Regular Italic";
paths = (
{
closed = 1;
nodes = (
"508 -10 OFFCURVE",
"612 63 OFFCURVE",
"643 216 CURVE SMOOTH",
"735 665 LINE",
"754 668 OFFCURVE",
"784 675 OFFCURVE",
"818 686 CURVE",
"821 700 LINE",
"616 700 LINE",
"613 686 LINE",
"637 677 OFFCURVE",
"662 671 OFFCURVE",
"687 667 CURVE",
"593 204 LINE SMOOTH",
"566 75 OFFCURVE",
"472 32 OFFCURVE",
"373 32 CURVE SMOOTH",
"273 32 OFFCURVE",
"196 71 OFFCURVE",
"223 204 CURVE SMOOTH",
"317 666 LINE",
"345 671 OFFCURVE",
"372 677 OFFCURVE",
"397 685 CURVE",
"400 700 LINE",
"136 700 LINE",
"133 686 LINE",
"157 677 OFFCURVE",
"183 671 OFFCURVE",
"207 666 CURVE",
"115 216 LINE SMOOTH",
"84 57 OFFCURVE",
"169 -10 OFFCURVE",
"338 -10 CURVE SMOOTH"
);
},
{
closed = 1;
nodes = (
"519 786 LINE",
"553 826 OFFCURVE",
"633 888 OFFCURVE",
"679 916 CURVE",
"642 952 LINE",
"599 923 OFFCURVE",
"538 873 OFFCURVE",
"506 837 CURVE",
"501 837 LINE",
"485 873 OFFCURVE",
"444 923 OFFCURVE",
"413 952 CURVE",
"362 916 LINE",
"396 888 OFFCURVE",
"450 826 OFFCURVE",
"468 786 CURVE"
);
}
);
width = 750;
}
);
leftKerningGroup = U;
note = Ucaron;
rightKerningGroup = U;
unicode = 01D3;
},
{
glyphname = Ucircumflex;
lastChange = "2015-10-27 09:00:36 +0000";
layers = (
{
layerId = "FF1AE41B-C668-46D5-83F9-5511CE68DF10";
name = "Regular Italic";
paths = (
{
closed = 1;
nodes = (
"508 -10 OFFCURVE",
"612 63 OFFCURVE",
"643 216 CURVE SMOOTH",
"735 665 LINE",
"754 668 OFFCURVE",
"784 675 OFFCURVE",
"818 686 CURVE",
"821 700 LINE",
"616 700 LINE",
"613 686 LINE",
"637 677 OFFCURVE",
"662 671 OFFCURVE",
"687 667 CURVE",
"593 204 LINE SMOOTH",
"566 75 OFFCURVE",
"472 32 OFFCURVE",
"373 32 CURVE SMOOTH",
"273 32 OFFCURVE",
"196 71 OFFCURVE",
"223 204 CURVE SMOOTH",
"317 666 LINE",
"345 671 OFFCURVE",
"372 677 OFFCURVE",
"397 685 CURVE",
"400 700 LINE",
"136 700 LINE",
"133 686 LINE",
"157 677 OFFCURVE",
"183 671 OFFCURVE",
"207 666 CURVE",
"115 216 LINE SMOOTH",
"84 57 OFFCURVE",
"169 -10 OFFCURVE",
"338 -10 CURVE SMOOTH"
);
},
{
closed = 1;
nodes = (
"423 811 OFFCURVE",
"485 861 OFFCURVE",
"516 897 CURVE",
"520 897 LINE",
"538 861 OFFCURVE",
"578 811 OFFCURVE",
"610 781 CURVE",
"660 818 LINE",
"626 845 OFFCURVE",
"572 908 OFFCURVE",
"554 947 CURVE",
"503 947 LINE",
"469 908 OFFCURVE",
"389 845 OFFCURVE",
"344 818 CURVE",
"380 781 LINE"
);
}
);
width = 750;
}
);
leftKerningGroup = U;
note = Ucircumflex;
rightKerningGroup = U;
unicode = 00DB;
},
{
glyphname = Udieresis;
lastChange = "2015-10-27 09:00:35 +0000";
layers = (
{
layerId = "FF1AE41B-C668-46D5-83F9-5511CE68DF10";
name = "Regular Italic";
paths = (
{
closed = 1;
nodes = (
"508 -10 OFFCURVE",
"612 63 OFFCURVE",
"643 216 CURVE SMOOTH",
"735 665 LINE",
"754 668 OFFCURVE",
"784 675 OFFCURVE",
"818 686 CURVE",
"821 700 LINE",
"616 700 LINE",
"613 686 LINE",
"637 677 OFFCURVE",
"662 671 OFFCURVE",
"687 667 CURVE",
"593 204 LINE SMOOTH",
"566 75 OFFCURVE",
"472 32 OFFCURVE",
"373 32 CURVE SMOOTH",
"273 32 OFFCURVE",
"196 71 OFFCURVE",
"223 204 CURVE SMOOTH",
"317 666 LINE",
"345 671 OFFCURVE",
"372 677 OFFCURVE",
"397 685 CURVE",
"400 700 LINE",
"136 700 LINE",
"133 686 LINE",
"157 677 OFFCURVE",
"183 671 OFFCURVE",
"207 666 CURVE",
"115 216 LINE SMOOTH",
"84 57 OFFCURVE",
"169 -10 OFFCURVE",
"338 -10 CURVE SMOOTH"
);
},
{
closed = 1;
nodes = (
"430 785 OFFCURVE",
"454 807 OFFCURVE",
"460 836 CURVE SMOOTH",
"467 866 OFFCURVE",
"451 888 OFFCURVE",
"421 888 CURVE SMOOTH",
"393 888 OFFCURVE",
"371 866 OFFCURVE",
"364 836 CURVE SMOOTH",
"358 807 OFFCURVE",
"372 785 OFFCURVE",
"400 785 CURVE SMOOTH"
);
},
{
closed = 1;
nodes = (
"647 785 OFFCURVE",
"671 807 OFFCURVE",
"677 836 CURVE SMOOTH",
"684 866 OFFCURVE",
"668 888 OFFCURVE",
"639 888 CURVE SMOOTH",
"610 888 OFFCURVE",
"588 866 OFFCURVE",
"581 836 CURVE SMOOTH",
"575 807 OFFCURVE",
"588 785 OFFCURVE",
"618 785 CURVE SMOOTH"
);
}
);
width = 750;
}
);
leftKerningGroup = U;
note = Udieresis;
rightKerningGroup = U;
unicode = 00DC;
},
{
glyphname = Udieresisacute;
lastChange = "2015-10-27 09:00:37 +0000";
layers = (
{
layerId = "FF1AE41B-C668-46D5-83F9-5511CE68DF10";
name = "Regular Italic";
paths = (
{
closed = 1;
nodes = (
"508 -10 OFFCURVE",
"612 63 OFFCURVE",
"643 216 CURVE SMOOTH",
"735 665 LINE",
"754 668 OFFCURVE",
"784 675 OFFCURVE",
"818 686 CURVE",
"821 700 LINE",
"616 700 LINE",
"613 686 LINE",
"637 677 OFFCURVE",
"662 671 OFFCURVE",
"687 667 CURVE",
"593 204 LINE SMOOTH",
"566 75 OFFCURVE",
"472 32 OFFCURVE",
"373 32 CURVE SMOOTH",
"273 32 OFFCURVE",
"196 71 OFFCURVE",
"223 204 CURVE SMOOTH",
"317 666 LINE",
"345 671 OFFCURVE",
"372 677 OFFCURVE",
"397 685 CURVE",
"400 700 LINE",
"136 700 LINE",
"133 686 LINE",
"157 677 OFFCURVE",
"183 671 OFFCURVE",
"207 666 CURVE",
"115 216 LINE SMOOTH",
"84 57 OFFCURVE",
"169 -10 OFFCURVE",
"338 -10 CURVE SMOOTH"
);
},
{
closed = 1;
nodes = (
"433 785 OFFCURVE",
"457 806 OFFCURVE",
"463 836 CURVE SMOOTH",
"468 865 OFFCURVE",
"454 887 OFFCURVE",
"425 887 CURVE SMOOTH",
"396 887 OFFCURVE",
"372 865 OFFCURVE",
"367 836 CURVE SMOOTH",
"361 806 OFFCURVE",
"374 785 OFFCURVE",
"404 785 CURVE SMOOTH"
);
},
{
closed = 1;
nodes = (
"651 785 OFFCURVE",
"675 806 OFFCURVE",
"681 836 CURVE SMOOTH",
"686 865 OFFCURVE",
"672 887 OFFCURVE",
"642 887 CURVE SMOOTH",
"613 887 OFFCURVE",
"589 865 OFFCURVE",
"584 836 CURVE SMOOTH",
"578 806 OFFCURVE",
"592 785 OFFCURVE",
"621 785 CURVE SMOOTH"
);
},
{
closed = 1;
nodes = (
"670 980 LINE SMOOTH",
"697 994 OFFCURVE",
"712 1010 OFFCURVE",
"716 1028 CURVE SMOOTH",
"719 1044 OFFCURVE",
"710 1063 OFFCURVE",
"686 1063 CURVE SMOOTH",
"661 1063 OFFCURVE",
"640 1040 OFFCURVE",
"633 1034 CURVE",
"516 934 LINE",
"529 907 LINE"
);
}
);
width = 750;
}
);
leftKerningGroup = U;
note = Udieresisacute;
rightKerningGroup = U;
unicode = 01D7;
},
{
glyphname = Udieresiscaron;
lastChange = "2015-10-27 09:00:37 +0000";
layers = (
{
layerId = "FF1AE41B-C668-46D5-83F9-5511CE68DF10";
name = "Regular Italic";
paths = (
{
closed = 1;
nodes = (
"508 -10 OFFCURVE",
"612 63 OFFCURVE",
"643 216 CURVE SMOOTH",
"735 665 LINE",
"754 668 OFFCURVE",
"784 675 OFFCURVE",
"818 686 CURVE",
"821 700 LINE",
"616 700 LINE",
"613 686 LINE",
"637 677 OFFCURVE",
"662 671 OFFCURVE",
"687 667 CURVE",
"593 204 LINE SMOOTH",
"566 75 OFFCURVE",
"472 32 OFFCURVE",
"373 32 CURVE SMOOTH",
"273 32 OFFCURVE",
"196 71 OFFCURVE",
"223 204 CURVE SMOOTH",
"317 666 LINE",
"345 671 OFFCURVE",
"372 677 OFFCURVE",
"397 685 CURVE",
"400 700 LINE",
"136 700 LINE",
"133 686 LINE",
"157 677 OFFCURVE",
"183 671 OFFCURVE",
"207 666 CURVE",
"115 216 LINE SMOOTH",
"84 57 OFFCURVE",
"169 -10 OFFCURVE",
"338 -10 CURVE SMOOTH"
);
},
{
closed = 1;
nodes = (
"433 785 OFFCURVE",
"456 806 OFFCURVE",
"462 836 CURVE",
"468 865 OFFCURVE",
"453 887 OFFCURVE",
"424 887 CURVE SMOOTH",
"395 887 OFFCURVE",
"372 865 OFFCURVE",
"366 836 CURVE",
"360 806 OFFCURVE",
"374 785 OFFCURVE",
"404 785 CURVE SMOOTH"
);
},
{
closed = 1;
nodes = (
"651 785 OFFCURVE",
"674 806 OFFCURVE",
"680 836 CURVE",
"686 865 OFFCURVE",
"671 887 OFFCURVE",
"641 887 CURVE SMOOTH",
"612 887 OFFCURVE",
"589 865 OFFCURVE",
"583 836 CURVE",
"577 806 OFFCURVE",
"592 785 OFFCURVE",
"621 785 CURVE SMOOTH"
);
},
{
closed = 1;
nodes = (
"564 911 LINE",
"599 951 OFFCURVE",
"672 1003 OFFCURVE",
"717 1031 CURVE",
"680 1067 LINE",
"636 1038 OFFCURVE",
"584 998 OFFCURVE",
"551 962 CURVE",
"547 962 LINE",
"530 998 OFFCURVE",
"492 1038 OFFCURVE",
"461 1067 CURVE",
"410 1031 LINE",
"444 1003 OFFCURVE",
"495 951 OFFCURVE",
"514 911 CURVE"
);
}
);
width = 750;
}
);
leftKerningGroup = U;
note = Udieresiscaron;
rightKerningGroup = U;
unicode = 01D9;
},
